<?xml version="1.0" encoding="UTF-8" standalone="no"?>
<!DOCTYPE svg PUBLIC "-//W3C//DTD SVG 1.1//EN" "http://www.w3.org/Graphics/SVG/1.1/DTD/svg11.dtd">
<svg width="100%" height="100%" viewBox="0 0 1126 370" version="1.1" xmlns="http://www.w3.org/2000/svg" xmlns:xlink="http://www.w3.org/1999/xlink" xml:space="preserve" xmlns:serif="http://www.serif.com/" style="fill-rule:evenodd;clip-rule:evenodd;stroke-linejoin:round;stroke-miterlimit:2;">
    <g transform="matrix(1,0,0,1,-7510.416667,-7886.0525)">
        <g transform="matrix(4.166667,0,0,4.166667,7031.25,7031.25)">
            <g transform="matrix(1,0,0,1,176.4922,241.7011)">
                <path d="M0,-18.239C-12.23,-20.396 -23.894,-12.229 -26.05,0.001C-13.819,2.157 -2.156,-6.009 0,-18.239" style="fill:white;fill-rule:nonzero;"/>
            </g>
            <g transform="matrix(1,0,0,1,115,241.7011)">
                <path d="M0,-18.239C2.156,-6.009 13.819,2.157 26.05,0.001C23.894,-12.229 12.23,-20.396 0,-18.239" style="fill:white;fill-rule:nonzero;"/>
            </g>
            <g transform="matrix(1,0,0,1,145.7461,236.9536)">
                <path d="M0,-31.801C-8.781,-23.02 -8.781,-8.781 0,0C8.781,-8.781 8.781,-23.02 0,-31.801" style="fill:white;fill-rule:nonzero;"/>
            </g>
            <g transform="matrix(-0.288284,0.957545,0.957545,0.288284,169.825266,238.060649)">
                <path d="M13.671,-14.296C15.05,-9.693 16.911,-5.259 19.21,-1.07C16.871,2.619 14.993,6.688 13.671,11.079L1.897,7.534C4.384,-0.729 8.452,-8.084 13.671,-14.296" style="fill:white;fill-rule:nonzero;"/>
            </g>
            <g transform="matrix(1,0,0,1,125.7051,261.5204)">
                <path d="M0,3.683C-3.594,3.683 -7.188,3.963 -10.703,4.529L-10.703,-1.027C-5.403,-1.027 -0.324,-0.064 4.366,1.692C6.598,2.523 8.736,3.536 10.772,4.71C7.178,4.081 3.485,3.683 0,3.683" style="fill:white;fill-rule:nonzero;"/>
            </g>
            <g transform="matrix(1,0,0,1,166.0508,283.6406)">
                <path d="M0,-4.74C-5.861,-4.74 -11.569,-5.743 -16.963,-7.719C-22.729,-9.829 -32.313,-12.292 -40.346,-12.292C-43.989,-12.292 -47.554,-11.977 -51.015,-11.373L-51.015,1.151C-47.583,0.398 -44.014,-0.001 -40.346,-0.001C-34.328,-0.001 -26.388,1.922 -21.19,3.824C-14.436,6.298 -7.307,7.552 0,7.552C3.56,7.552 7.05,7.251 10.442,6.671L10.442,-5.842C7.079,-5.119 3.589,-4.74 0,-4.74" style="fill:white;fill-rule:nonzero;"/>
            </g>
            <g transform="matrix(1,0,0,1,176.4932,271.8704)">
                <path d="M0,-11.377L0,-0.355L-1.293,-0.079C-1.421,-0.055 -1.544,-0.025 -1.672,0C-3.644,-3.728 -5.964,-7.252 -8.574,-10.522C-5.802,-11.082 -2.936,-11.377 0,-11.377" style="fill:white;fill-rule:nonzero;"/>
            </g>
            <g transform="matrix(1,0,0,1,168.248,242.0464)">
                <path d="M0,30.655C-10.64,12.296 -30.502,-0.054 -53.246,-0.054L-53.246,12.271C-38.974,12.271 -26.122,18.353 -17.145,28.068C-17.109,28.078 -17.08,28.092 -17.046,28.103C-12.331,29.834 -7.336,30.709 -2.197,30.709C-1.465,30.709 -0.728,30.689 0,30.655" style="fill:white;fill-rule:nonzero;"/>
            </g>
            <g transform="matrix(1,0,0,1,229.4375,290.4648)">
                <path d="M0,-7.904L-0.224,-7.862L-0.413,-7.757L-0.427,-7.735L-0.567,-7.631L-0.651,-7.658L-0.799,-7.651L-1.016,-7.553L-1.022,-7.505L-1.002,-7.476L-1.022,-7.455L-1.022,-7.441L-1.051,-7.421L-1.19,-7.399L-1.499,-7.189L-1.499,-7.175L-1.611,-7.056L-1.682,-7.035L-1.695,-7L-1.702,-6.845L-1.73,-6.803L-1.808,-6.797L-1.85,-6.755L-1.863,-6.755L-1.87,-6.664L-1.947,-6.551L-1.976,-6.461L-2.046,-6.306L-2.123,-6.18L-2.172,-6.019L-2.172,-5.9L-2.186,-5.788L-2.199,-5.774L-2.249,-5.627L-2.256,-5.368L-2.284,-5.13L-2.368,-4.926L-2.389,-4.905L-2.445,-4.786L-2.445,-4.723L-2.403,-4.674L-2.424,-4.492L-2.438,-3.925L-2.459,-3.7L-2.466,-3.721L-2.487,-3.714L-2.515,-3.883L-2.529,-3.847L-2.529,-3.749L-2.578,-3.28L-2.557,-3.049L-2.501,-2.859L-2.431,-2.726L-2.375,-2.516L-2.305,-2.53L-2.284,-2.523L-2.276,-2.453L-2.291,-2.453L-2.326,-2.411L-2.333,-2.355L-2.318,-2.263L-2.186,-1.956L-2.157,-1.759L-2.108,-1.592L-2.011,-1.451L-2.004,-1.303L-1.969,-1.241L-1.927,-1.241L-1.885,-1.213L-1.835,-1.087L-1.73,-0.939L-1.415,-0.575L-1.268,-0.442L-1.247,-0.442L-1.184,-0.407L-1.016,-0.281L-0.89,-0.253L-0.848,-0.295L-0.806,-0.316L-0.784,-0.309L-0.735,-0.183L-0.448,-0.092L-0.343,-0.078L-0.098,-0.008L0.126,0.028L0.267,0.006L0.357,-0.022L0.421,-0.056L0.666,-0.085L1.072,-0.092L1.479,-0.204L1.5,-0.232L1.507,-0.316L1.576,-0.393L1.808,-0.709L2.011,-0.905L2.088,-1.051L2.179,-1.08L2.193,-1.255L2.306,-1.612L2.368,-1.927L2.536,-2.208L2.543,-2.278L2.571,-2.355L2.6,-2.362L2.635,-2.32L2.648,-2.327L2.697,-2.502L2.684,-2.705L2.662,-2.782L2.697,-2.908L2.712,-3.091L2.739,-3.188L2.747,-3.349L2.768,-3.433L2.803,-3.721L2.81,-3.966L2.712,-4.506L2.69,-5.031L2.655,-5.101L2.62,-5.234L2.62,-5.291L2.578,-5.514L2.536,-5.64L2.41,-5.914L2.396,-5.921L2.298,-6.187L2.298,-6.293L2.264,-6.369L2.151,-6.454L1.969,-6.867L1.752,-7.175L1.73,-7.294L1.618,-7.336L1.604,-7.364L1.254,-7.679L1.24,-7.679L1.121,-7.757L1.065,-7.777L0.862,-7.792L0.715,-7.847L0.168,-7.896L0,-7.904ZM0.547,-8.982L0.603,-8.878L0.631,-8.884L0.666,-8.955L0.715,-8.955L0.764,-8.863L0.848,-8.842L1.143,-8.688L1.247,-8.71L1.388,-8.681L1.668,-8.52L1.801,-8.485L1.822,-8.443L1.814,-8.366L2.004,-8.247L2.095,-8.226L2.179,-8.149L2.319,-8.05L2.452,-7.925L2.445,-7.834L2.459,-7.812L2.536,-7.777L2.586,-7.679L2.662,-7.679L2.739,-7.616L2.747,-7.595L2.816,-7.525L2.816,-7.511L2.852,-7.469L2.865,-7.379L2.894,-7.343L2.936,-7.336L2.999,-7.273L3.132,-7.042L3.146,-7.042L3.209,-6.965L3.23,-6.916L3.237,-6.818L3.251,-6.818L3.314,-6.768L3.398,-6.657L3.476,-6.467L3.482,-6.377L3.531,-6.278L3.587,-6.11L3.615,-5.837L3.629,-5.83L3.686,-5.514L3.686,-5.402L3.728,-5.353L3.734,-5.241L3.721,-5.164L3.763,-5.101L3.798,-4.947L3.818,-4.912L3.875,-4.884L3.889,-4.856L3.882,-4.8L3.84,-4.751L3.847,-4.443L3.902,-3.51L3.944,-3.287L3.944,-2.929L3.798,-2.397L3.798,-2.299L3.818,-2.186L3.77,-2.11L3.714,-1.85L3.65,-1.766L3.644,-1.64L3.573,-1.528L3.56,-1.528L3.482,-1.472L3.37,-1.297L3.328,-1.135L3.293,-1.093L3.237,-1.108L3.209,-1.1L3.195,-1.016L3.118,-0.912L3.111,-0.828L3.125,-0.786L3.104,-0.674L2.887,-0.316L2.887,-0.217L2.858,-0.175L2.81,-0.162L2.789,-0.127L2.781,0.006L2.747,0.16L2.586,0.174L2.41,0.377L2.319,0.441L2.2,0.469L2.13,0.525L1.94,0.637L1.856,0.658L1.717,0.756L1.611,0.791L1.331,0.791L0.673,0.917L0.532,0.966L0.421,0.98L-0.308,0.987L-0.413,1.015L-0.49,1.057L-0.799,1.078L-0.896,1.022L-0.96,1.03L-1.135,0.924L-1.338,0.833L-1.443,0.749L-1.499,0.763L-1.541,0.742L-1.632,0.651L-1.779,0.588L-1.947,0.469L-2.053,0.427L-2.199,0.315L-2.627,-0.127L-2.69,-0.204L-2.774,-0.365L-2.852,-0.47L-2.858,-0.596L-3.005,-0.758L-3.033,-0.828L-3.033,-0.939L-3.117,-1.122L-3.139,-1.261L-3.181,-1.395L-3.335,-1.661L-3.355,-1.717L-3.377,-1.914L-3.496,-2.305L-3.531,-2.916L-3.545,-2.936L-3.594,-3.245L-3.657,-3.433L-3.664,-3.588L-3.72,-3.721L-3.734,-4.121L-3.769,-4.086L-3.804,-4.092L-3.818,-4.113L-3.762,-4.316L-3.699,-4.366L-3.657,-4.506L-3.65,-5.031L-3.636,-5.185L-3.587,-5.333L-3.377,-5.739L-3.327,-5.9L-3.342,-5.949L-3.362,-5.956L-3.384,-5.984L-3.377,-6.124L-3.349,-6.159L-3.278,-6.187L-3.251,-6.271L-3.209,-6.348L-3.146,-6.622L-3.075,-6.719L-3.068,-6.761L-3.09,-6.818L-3.048,-6.993L-3.005,-7.035L-2.929,-7.028L-2.887,-7.119L-2.816,-7.385L-2.76,-7.463L-2.753,-7.589L-2.711,-7.658L-2.592,-7.785L-2.578,-7.785L-2.501,-7.847L-2.438,-7.883L-2.354,-7.911L-2.115,-8.05L-2.053,-8.072L-1.898,-8.191L-1.801,-8.24L-1.737,-8.247L-1.682,-8.345L-1.597,-8.345L-1.521,-8.422L-1.415,-8.436L-0.938,-8.618L-0.638,-8.814L-0.567,-8.849L-0.336,-8.878L-0.014,-8.884L-0.014,-8.898L0.042,-8.968L0.147,-8.982L0.547,-8.982Z" style="fill:white;fill-rule:nonzero;"/>
            </g>
            <g transform="matrix(1,0,0,1,250.8975,285.0907)">
                <path d="M0,5.058L0.049,5.079L0.062,5.107L0.14,5.157L0.217,5.233L0.645,5.233L0.645,6.004L0.385,6.018L0.357,6.053L0.351,6.137L0.252,6.235L0.154,6.305L0.07,6.333L-0.21,6.333L-0.386,6.291L-0.512,6.235L-0.693,6.193L-0.806,6.102L-0.848,6.011L-0.827,5.912L-0.792,5.899L-0.743,5.927L-0.735,5.892L-0.764,5.766L-0.701,5.689L-0.701,5.57L-0.729,5.486L-0.75,5.471L-0.764,5.436L-0.841,5.338L-0.854,5.254L-0.848,5.184L-0.785,5.135L-0.532,5.1L-0.393,5.065L-0.231,5.058L0,5.058ZM-1.717,1.324L-1.724,1.352L-1.779,1.387L-1.787,1.414L-1.772,1.478L-1.73,1.534L-1.71,1.597L-1.717,1.639L-1.745,1.681L-1.73,1.688L-1.66,1.674L-1.618,1.751L-1.569,1.787L-1.542,1.961L-1.472,2.08L-1.45,2.087L-1.45,2.102L-1.408,2.074L-1.45,1.983L-1.479,1.835L-1.542,1.661L-1.591,1.583L-1.66,1.52L-1.695,1.324L-1.717,1.324ZM-3.055,-1.275L-2.992,-1.206L-2.781,-1.177L-2.712,-1.107L-2.564,-1.08L-2.487,-1.037L-2.179,-0.988L-2.144,-0.953L-2.025,-0.89L-1.948,-0.827L-1.898,-0.75L-1.73,-0.722L-1.688,-0.652L-1.682,-0.575L-1.618,-0.511L-1.591,-0.442L-1.514,-0.343L-1.457,-0.211L-1.437,-0.078L-1.388,-0.036L-1.346,0.07L-1.304,0.112L-1.262,0.448L-1.233,0.533L-1.24,0.56L-1.212,0.623L-1.156,0.665L-1.143,0.701L-1.121,0.988L-1.135,1.387L-1.156,1.506L-1.191,1.604L-1.205,1.709L-1.205,1.954L-1.149,2.164L-1.114,2.69L-1.143,2.985L-1.128,3.012L-1.143,3.076L-1.205,3.16L-1.185,3.202L-1.198,3.23L-1.22,3.237L-1.24,3.222L-1.227,3.215L-1.227,3.153L-1.262,3.061L-1.262,3.222L-1.177,3.579L-1.135,3.909L-1.143,4.168L-1.17,4.365L-1.24,4.63L-1.24,4.778L-1.191,4.869L-1.191,4.988L-1.143,5.072L-0.904,5.325L-0.89,5.36L-0.834,5.409L-0.82,5.444L-0.799,5.444L-0.764,5.583L-0.778,5.745L-0.89,5.877L-1.009,5.912L-1.534,5.912L-1.703,5.941L-2.046,5.962L-2.187,5.983L-2.501,6.081L-2.774,6.2L-2.894,6.207L-2.957,6.193L-3.013,6.144L-3.083,6.053L-3.167,5.877L-3.181,5.751L-3.167,5.541L-3.104,5.338L-3.062,5.268L-2.971,5.191L-2.838,5.135L-2.474,5.177L-2.396,5.157L-2.319,5.079L-2.263,4.988L-2.235,4.883L-2.221,4.659L-2.235,4.316L-2.207,4.042L-2.187,3.994L-2.137,3.755L-2.123,3.727L-2.088,3.524L-2.088,3.272L-2.123,2.627L-2.102,2.466L-2.102,2.01L-2.2,1.604L-2.263,1.401L-2.256,1.387L-2.284,1.24L-2.298,1.226L-2.298,1.149L-2.319,1.135L-2.348,1.085L-2.348,0.924L-2.326,0.84L-2.333,0.743L-2.354,0.707L-2.417,0.679L-2.438,0.602L-2.48,0.553L-2.487,0.518L-2.467,0.315L-2.432,0.315L-2.41,0.336L-2.39,0.392L-2.348,0.441L-2.333,0.49L-2.319,0.644L-2.306,0.679L-2.242,0.694L-2.172,0.644L-2.116,0.651L-2.109,0.672L-1.969,0.763L-1.962,0.869L-1.948,0.882L-1.92,0.869L-1.885,0.882L-1.913,0.931L-1.871,1.037L-1.871,1.226L-1.745,1.275L-1.71,1.303L-1.688,1.246L-1.717,1.177L-1.737,1.156L-1.745,1.043L-1.787,0.931L-1.801,0.931L-1.836,0.875L-1.829,0.785L-1.94,0.701L-2.039,0.588L-2.088,0.462L-2.137,0.42L-2.158,0.371L-2.326,0.308L-2.382,0.21L-2.459,0.21L-2.494,0.252L-2.6,0.266L-2.67,0.196L-2.781,0.196L-2.823,0.182L-2.992,0.049L-3.076,0.006L-3.146,-0.091L-3.209,-0.133L-3.272,-0.155L-3.272,-0.14L-3.307,-0.127L-3.37,-0.127L-3.412,-0.169L-3.426,-0.169L-3.461,-0.211L-3.461,-0.308L-3.482,-0.337L-3.595,-0.337L-3.622,-0.442L-3.657,-0.498L-3.734,-0.533L-3.847,-0.61L-3.896,-0.63L-4.12,-0.806L-4.211,-0.904L-4.253,-0.911L-4.267,-1.016L-4.211,-1.009L-4.092,-1.114L-3.959,-1.198L-3.258,-1.198L-3.209,-1.261L-3.174,-1.275L-3.055,-1.275ZM-6.782,-1.009L-6.579,-0.953L-6.558,-0.932L-6.474,-0.897L-6.376,-0.897L-6.277,-0.806L-6.229,-0.736L-6.138,-0.743L-6.074,-0.68L-6.019,-0.722L-5.935,-0.714L-5.906,-0.68L-5.899,-0.568L-5.801,-0.477L-5.689,-0.427L-5.577,-0.301L-5.479,-0.231L-5.458,-0.12L-5.437,-0.098L-5.325,-0.098L-5.269,-0.12L-5.107,-0.35L-5.017,-0.449L-4.358,-0.834L-4.154,-0.806L-4.154,-0.778L-4.127,-0.736L-4.008,-0.624L-3.79,-0.477L-3.79,-0.463L-3.721,-0.427L-3.622,-0.316L-3.58,-0.239L-3.587,-0.204L-3.644,-0.182L-3.944,-0.14L-4.105,-0.063L-4.141,-0.021L-4.211,0.028L-4.47,0.259L-4.646,0.539L-4.694,0.665L-4.869,1.03L-4.918,1.219L-4.961,1.87L-5.023,2.109L-5.03,2.186L-5.079,2.41L-5.094,2.557L-5.087,2.879L-5.059,2.97L-5.023,3.307L-5.059,4.14L-5.01,4.61L-5.052,4.652L-5.059,4.749L-5.045,4.841L-5.017,4.833L-4.995,4.757L-4.968,4.764L-4.926,5.058L-4.911,5.072L-4.904,5.114L-4.849,5.199L-4.792,5.254L-4.687,5.31L-4.617,5.31L-4.484,5.331L-4.267,5.275L-4.231,5.254L-3.966,5.247L-3.882,5.283L-3.882,5.387L-3.832,5.444L-3.798,5.548L-3.798,5.758L-3.854,5.919L-3.902,6.004L-4.021,6.102L-4.12,6.158L-4.211,6.172L-4.302,6.151L-4.358,6.151L-4.393,6.186L-4.449,6.179L-4.498,6.095L-4.526,6.095L-4.568,6.165L-4.639,6.165L-4.681,6.13L-4.687,6.081L-4.673,6.053L-4.687,6.032L-4.771,5.99L-5.101,5.899L-5.332,5.899L-5.675,5.948L-6.208,5.99L-6.544,6.123L-6.579,6.172L-6.768,6.214L-6.901,6.207L-6.964,6.186L-7.069,6.025L-7.083,5.983L-7.133,5.941L-7.133,5.696L-7.069,5.541L-6.992,5.415L-6.831,5.219L-6.782,5.184L-6.691,5.184L-6.663,5.157L-6.6,5.135L-6.348,5.184L-6.242,5.177L-6.187,5.157L-6.081,5.072L-6.039,4.967L-5.997,4.932L-5.962,4.833L-5.906,4.477L-5.899,4.168L-5.97,3.727L-5.97,3.321L-5.948,2.914L-6.012,1.899L-5.97,1.562L-5.97,1.156L-6.061,0.827L-6.123,0.721L-6.131,0.672L-6.173,0.567L-6.25,0.546L-6.277,0.518L-6.292,0.469L-6.299,0.259L-6.369,0.161L-6.403,0.133L-6.46,0.035L-6.516,0.035L-6.558,0.049L-6.628,-0.021L-6.747,-0.063L-7.014,-0.078L-7.462,-0.155L-7.623,-0.147L-7.7,-0.112L-7.672,-0.043L-7.692,-0.001L-7.728,0.006L-7.777,-0.07L-7.798,-0.078L-7.84,-0.049L-7.896,0.049L-8.19,0.315L-8.232,0.378L-8.31,0.413L-8.372,0.462L-8.442,0.483L-8.478,0.602L-8.583,0.77L-8.625,0.869L-8.639,1.085L-8.778,1.485L-8.835,1.703L-8.855,1.864L-8.828,2.277L-8.813,2.312L-8.758,2.669L-8.744,2.935L-8.758,3.412L-8.688,4.155L-8.694,4.4L-8.786,4.764L-8.786,5.058L-8.758,5.135L-8.702,5.199L-8.646,5.233L-8.59,5.226L-8.583,5.283L-8.484,5.331L-8.19,5.283L-8.001,5.283L-7.966,5.296L-7.952,5.318L-7.833,5.409L-7.77,5.493L-7.749,5.597L-7.742,5.877L-7.791,5.976L-7.952,6.137L-7.994,6.158L-8.064,6.172L-8.246,6.151L-8.533,6.053L-8.639,5.996L-8.842,5.941L-8.996,5.912L-9.332,5.912L-9.584,5.954L-10.047,5.983L-10.173,6.018L-10.229,5.99L-10.278,6.018L-10.306,6.067L-10.341,6.081L-10.383,6.046L-10.418,6.046L-10.467,6.158L-10.509,6.179L-10.691,6.214L-10.789,6.214L-10.839,6.2L-10.93,6.13L-11.056,5.934L-11.077,5.808L-11.035,5.555L-10.979,5.402L-10.839,5.247L-10.705,5.163L-10.614,5.135L-10.411,5.149L-10.313,5.177L-10.124,5.17L-9.935,5.093L-9.857,5.023L-9.822,4.932L-9.809,4.82L-9.795,4.469L-9.696,3.979L-9.661,3.895L-9.641,3.776L-9.627,3.496L-9.654,2.985L-9.641,2.144L-9.669,2.045L-9.654,2.017L-9.592,1.975L-9.57,1.926L-9.627,1.849L-9.689,1.835L-9.738,1.674L-9.76,1.394L-9.773,0.672L-9.815,0.357L-9.864,0.224L-9.857,0.147L-9.893,0.077L-10.005,-0.028L-10.033,-0.028L-10.068,-0.007L-10.11,-0.014L-10.173,-0.07L-10.488,-0.07L-10.713,-0.036L-10.789,-0.036L-10.866,-0.07L-10.958,-0.063L-11.007,-0.091L-11.014,-0.112L-10.993,-0.217L-11.084,-0.259L-11.119,-0.295L-11.119,-0.435L-11.035,-0.533L-10.895,-0.477L-10.853,-0.553L-10.797,-0.568L-10.797,-0.596L-10.866,-0.624L-10.881,-0.645L-10.859,-0.708L-10.727,-0.771L-10.678,-0.827L-10.586,-0.848L-10.278,-0.841L-10.061,-0.806L-9.767,-0.806L-9.508,-0.876L-9.213,-0.919L-9.059,-0.897L-8.989,-0.82L-8.947,-0.82L-8.897,-0.792L-8.891,-0.771L-8.87,-0.757L-8.8,-0.588L-8.771,-0.392L-8.765,-0.098L-8.744,-0.085L-8.681,-0.085L-8.597,-0.112L-8.498,-0.182L-8.142,-0.714L-8.078,-0.764L-7.875,-0.883L-7.763,-0.911L-7.343,-0.939L-7.286,-0.974L-7.244,-0.974L-7.182,-0.911L-7.027,-0.925L-6.999,-0.953L-6.999,-1.009L-6.782,-1.009Z" style="fill:white;fill-rule:nonzero;"/>
            </g>
            <g transform="matrix(1,0,0,1,255.71,290.4626)">
                <path d="M0,-5.435L-0.14,-5.428L-0.188,-5.4L-0.252,-5.331L-0.287,-5.316L-0.371,-5.253L-0.707,-4.861L-0.784,-4.854L-0.833,-4.748L-0.868,-4.713L-1.064,-4.377L-1.078,-4.251L-1.12,-4.055L-1.212,-3.817L-1.226,-3.642L-1.219,-3.592L-1.177,-3.537L-1.142,-3.543L-1.106,-3.592L-1.071,-3.592L-1.016,-3.537L-0.764,-3.543L-0.7,-3.614L-0.56,-3.607L-0.455,-3.572L-0.146,-3.543L0.519,-3.592L0.646,-3.572L0.743,-3.572L0.799,-3.55L0.946,-3.523L1.311,-3.508L1.562,-3.55L1.871,-3.585L2.158,-3.565L2.2,-3.572L2.229,-3.614L2.242,-3.81L2.257,-3.866L2.074,-4.51L2.074,-4.693L2.032,-4.755L1.977,-4.777L1.935,-4.812L1.955,-4.91L1.899,-4.987L1.822,-4.973L1.794,-4.994L1.71,-5.113L1.661,-5.162L1.591,-5.197L1.332,-5.408L1.178,-5.421L1.094,-5.484L0.862,-5.547L0.68,-5.554L0,-5.435ZM0.638,-6.452L0.855,-6.416L1.24,-6.318L1.423,-6.247L1.752,-6.206L1.801,-6.185L1.899,-6.115L2.004,-6.066L2.061,-6.052L2.348,-5.807L2.46,-5.786L2.487,-5.75L2.487,-5.645L2.579,-5.554L2.621,-5.477L2.761,-5.316L2.774,-5.281L2.774,-5.183L2.845,-5.162L2.979,-4.973L3.055,-4.742L3.132,-4.623L3.188,-4.468L3.237,-3.796L3.23,-3.705L3.258,-3.473L3.279,-3.439L3.356,-3.389L3.356,-3.285L3.335,-3.109L3.301,-3.075L3.244,-3.102L3.182,-2.914L3.146,-2.906L3.09,-2.927L3.076,-2.914L3.041,-2.773L2.992,-2.717L2.824,-2.647L2.096,-2.661L1.864,-2.612L1.822,-2.612L1.724,-2.583L1.443,-2.577L1.339,-2.605L0.904,-2.647L0.533,-2.619L0.099,-2.619L-0.245,-2.696L-0.616,-2.696L-0.729,-2.667L-1.128,-2.625L-1.17,-2.612L-1.19,-2.577L-1.204,-2.276L-1.268,-2.212L-1.268,-1.989L-1.226,-1.799L-1.212,-1.813L-1.212,-1.834L-1.184,-1.862L-1.155,-1.855L-1.142,-1.764L-1.12,-1.722L-1.106,-1.477L-1.093,-1.456L-1.043,-1.442L-0.952,-1.246L-0.819,-1L-0.764,-0.868L-0.679,-0.755L-0.574,-0.573L-0.574,-0.475L-0.497,-0.398L-0.476,-0.356L-0.385,-0.244L-0.301,-0.258L-0.217,-0.166L-0.182,-0.16L-0.076,-0.097L0.043,-0.082L0.218,0.015L0.302,0.022L0.673,-0.082L1.052,-0.111L1.275,-0.173L1.311,-0.202L1.472,-0.272L1.556,-0.328L1.682,-0.454L1.745,-0.482L1.864,-0.559L2.088,-0.769L2.165,-0.888L2.165,-0.916L2.2,-1.014L2.229,-1.049L2.257,-1.14L2.249,-1.239L2.193,-1.281L2.172,-1.316L2.187,-1.42L2.257,-1.442L2.277,-1.358L2.299,-1.358L2.313,-1.378L2.313,-1.428L2.284,-1.442L2.271,-1.491L2.284,-1.512L2.368,-1.497L2.39,-1.519L2.522,-1.834L2.635,-1.974L2.782,-2.038L2.929,-2.023L2.957,-2.002L2.999,-1.939L3.14,-1.786L3.209,-1.638L3.237,-1.449L3.182,-1.21L3.076,-0.923L3.013,-0.826L2.943,-0.566L2.859,-0.363L2.831,-0.25L2.796,-0.181L2.663,-0.034L2.6,0.015L2.277,0.205L2.207,0.275L2.061,0.352L1.955,0.471L1.57,0.723L1.282,0.744L1.052,0.807L0.849,0.905L0.743,0.968L0.624,1.01L0.554,1.017L0.337,0.989L0.141,0.933L0.092,0.898L-0.027,0.891L-0.203,0.828L-0.301,0.842L-0.35,0.821L-0.385,0.786L-0.44,0.821L-0.476,0.828L-0.595,0.8L-0.609,0.779L-0.602,0.702L-0.63,0.674L-0.764,0.632L-1.106,0.373L-1.569,-0.146L-1.646,-0.3L-1.751,-0.447L-1.807,-0.566L-1.905,-0.65L-1.926,-0.832L-2.024,-1.281L-2.031,-1.596L-2.108,-1.932L-2.115,-2.038L-2.144,-2.184L-2.137,-2.192L-2.179,-2.331L-2.192,-2.598L-2.157,-2.92L-2.157,-3.025L-2.214,-3.698L-2.206,-3.859L-2.15,-4.181L-2.095,-4.314L-2.011,-4.419L-1.982,-4.49L-1.954,-4.651L-1.765,-5.085L-1.674,-5.205L-1.681,-5.289L-1.646,-5.337L-1.506,-5.379L-1.471,-5.421L-1.177,-5.68L-1.078,-5.814L-0.974,-5.933L-0.974,-5.947L-0.925,-6.017L-0.771,-6.136L-0.735,-6.213L-0.687,-6.269L-0.616,-6.297L-0.546,-6.29L-0.272,-6.318L-0.118,-6.367L0.169,-6.423L0.337,-6.43L0.428,-6.452L0.638,-6.452Z" style="fill:white;fill-rule:nonzero;"/>
            </g>
            <g transform="matrix(1,0,0,1,262.6748,291.2625)">
                <path d="M0,-9.773L0.133,-9.717L0.203,-9.654L0.272,-9.5L0.301,-9.206L0.308,-8.799L0.23,-8.274L0.245,-8.015L0.287,-7.643L0.294,-7.216L0.266,-6.817L0.301,-6.347L0.336,-6.166L0.343,-5.787L0.329,-5.703L0.371,-5.654L0.392,-5.605L0.392,-5.542L0.364,-5.478L0.287,-5.429L0.28,-5.051L0.301,-4.974L0.308,-4.785L0.364,-4.729L0.364,-4.63L0.322,-4.624L0.294,-4.182L0.224,-3.818L0.28,-3.748L0.287,-3.573L0.245,-3.51L0.272,-3.398L0.301,-3.005L0.301,-2.809L0.28,-2.515L0.35,-2.473L0.35,-2.41L0.272,-2.361L0.287,-2.003L0.378,-1.394L0.476,-1.121L0.553,-1.044L0.777,-0.924L0.896,-0.918L0.994,-0.889L1.148,-0.931L1.338,-0.946L1.436,-0.931L1.646,-0.834L1.702,-0.778L1.751,-0.651L1.751,-0.441L1.702,-0.301L1.618,-0.196L1.394,-0.056L1.31,-0.042L1.036,-0.098L1.002,-0.133L0.98,-0.182L0.868,-0.294L0.784,-0.294L0.722,-0.224L0.687,-0.217L0.581,-0.266L0.581,-0.287L0.616,-0.315L0.609,-0.357L0.546,-0.364L0.511,-0.294L0.413,-0.294L0.371,-0.308L0.336,-0.392L0.308,-0.406L0.23,-0.399L0.182,-0.308L0.14,-0.308L0.084,-0.392L0.056,-0.378L0.021,-0.301L-0.063,-0.273L-0.729,-0.238L-1.178,-0.056L-1.437,0L-1.604,0L-1.794,-0.042L-1.878,-0.084L-1.941,-0.133L-2.053,-0.266L-2.116,-0.434L-2.109,-0.518L-2.088,-0.595L-2.004,-0.743L-1.864,-0.84L-1.822,-0.847L-1.479,-1.008L-1.346,-1.015L-1.072,-1.065L-0.827,-1.163L-0.764,-1.24L-0.68,-1.443L-0.589,-1.822L-0.582,-1.968L-0.603,-2.424L-0.652,-2.564L-0.666,-2.908L-0.638,-3.23L-0.631,-3.713L-0.652,-3.839L-0.68,-4.182L-0.659,-4.533L-0.624,-4.757L-0.561,-4.771L-0.547,-4.785L-0.533,-5.058L-0.547,-5.458L-0.561,-5.555L-0.575,-5.563L-0.617,-5.464L-0.645,-5.535L-0.652,-5.682L-0.631,-5.948L-0.61,-5.941L-0.567,-5.724L-0.54,-6.06L-0.547,-6.081L-0.596,-6.116L-0.596,-6.172L-0.54,-6.208L-0.54,-6.27L-0.589,-6.34L-0.525,-6.418L-0.525,-6.683L-0.54,-6.718L-0.596,-6.753L-0.659,-7.167L-0.666,-7.328L-0.645,-7.833L-0.666,-7.896L-0.722,-7.917L-0.743,-7.945L-0.722,-8.001L-0.701,-8.001L-0.673,-8.022L-0.652,-8.078L-0.666,-8.133L-0.75,-8.204L-0.764,-8.323L-0.75,-8.414L-0.778,-8.47L-0.806,-8.568L-0.869,-8.645L-1.136,-8.744L-1.339,-8.757L-1.423,-8.799L-1.492,-8.799L-1.527,-8.813L-1.527,-8.828L-1.577,-8.877L-1.717,-8.912L-1.892,-8.848L-1.948,-8.877L-2.004,-8.932L-2.074,-9.051L-2.116,-9.219L-2.061,-9.395L-1.969,-9.528L-1.836,-9.591L-1.766,-9.577L-1.619,-9.577L-1.577,-9.627L-1.458,-9.633L-1.17,-9.711L-0.89,-9.752L-0.372,-9.738L-0.112,-9.773L0,-9.773Z" style="fill:white;fill-rule:nonzero;"/>
            </g>
            <g transform="matrix(1,0,0,1,265.75,291.2628)">
                <path d="M0,-9.788L0.126,-9.773L0.344,-9.718L0.477,-9.718L0.729,-9.647L1.191,-9.641L1.408,-9.669L1.576,-9.612L1.653,-9.528L1.675,-9.389L1.744,-9.367L1.808,-9.325L1.856,-9.094L1.863,-8.694L1.85,-8.652L1.829,-8.632L1.794,-8.625L1.766,-8.603L1.744,-8.548L1.744,-8.429L1.71,-8.295L1.702,-8.148L1.724,-7.65L1.759,-7.601L1.752,-7.559L1.717,-7.504L1.724,-7.475L1.779,-7.427L1.772,-7.378L1.73,-7.343L1.724,-7.294L1.779,-7.252L1.779,-6.257L1.794,-6.228L1.856,-6.222L1.878,-6.25L1.927,-6.257L1.955,-6.228L1.969,-6.235L1.969,-6.334L1.99,-6.361L2.039,-6.383L2.116,-6.396L2.144,-6.418L2.144,-6.509L2.179,-6.572L2.214,-6.586L2.271,-6.564L2.313,-6.586L2.354,-6.677L2.613,-6.908L2.684,-6.93L2.754,-6.972L2.768,-6.992L2.9,-7.048L3.097,-7.062L3.321,-7.104L3.79,-7.252L4.05,-7.237L4.231,-7.188L4.288,-7.188L4.337,-7.202L4.372,-7.188L4.428,-7.133L4.463,-7.118L4.505,-7.133L4.568,-7.195L4.673,-7.188L4.723,-7.098L4.876,-7.083L4.968,-7.048L5.045,-6.964L5.156,-6.957L5.275,-6.894L5.297,-6.859L5.43,-6.733L5.542,-6.6L5.647,-6.544L5.696,-6.48L5.724,-6.418L5.731,-6.319L5.787,-6.242L5.941,-5.844L6.039,-5.388L6.074,-5.317L6.187,-5.003L6.215,-4.597L6.151,-3.979L6.158,-3.714L6.18,-3.595L6.187,-3.405L6.173,-3.35L6.158,-3.145L6.088,-2.761L6.088,-2.522L6.131,-2.053L6.173,-1.787L6.187,-1.388L6.229,-1.268L6.306,-1.149L6.376,-1.093L6.467,-1.093L6.48,-0.988L6.606,-0.96L6.81,-0.946L6.859,-0.96L6.901,-1.044L6.957,-1.065L7.098,-1.051L7.251,-1.009L7.259,-0.988L7.301,-0.974L7.35,-0.939L7.434,-0.792L7.405,-0.728L7.489,-0.728L7.511,-0.693L7.511,-0.498L7.496,-0.448L7.462,-0.448L7.434,-0.498L7.42,-0.498L7.37,-0.35L7.266,-0.168L7.244,-0.154L7.167,-0.141L6.663,-0.141L6.48,-0.099L6.312,-0.091L5.57,-0.183L5.549,-0.196L5.542,-0.189L5.535,-0.238L5.5,-0.287L5.465,-0.295L5.43,-0.26L5.423,-0.218L5.437,-0.183L5.395,-0.168L5.114,-0.141L4.771,-0.141L4.498,-0.189L4.295,-0.196L4.162,-0.231L3.986,-0.364L3.916,-0.441L3.896,-0.49L3.896,-0.918L3.924,-0.974L4.015,-0.939L4.077,-1.037L4.105,-1.044L4.189,-0.995L4.309,-0.995L4.771,-0.883L4.968,-0.904L5.136,-1.044L5.136,-1.059L5.156,-1.079L5.185,-1.247L5.227,-1.814L5.24,-1.856L5.255,-1.997L5.24,-2.578L5.198,-2.726L5.178,-3.026L5.185,-3.279L5.248,-3.769L5.24,-4.092L5.185,-4.526L5.143,-5.325L5.114,-5.409L5.094,-5.423L5.03,-5.549L5.01,-5.563L4.968,-5.689L4.911,-5.794L4.659,-6.067L4.386,-6.264L4.246,-6.341L4.035,-6.348L3.931,-6.327L3.713,-6.306L3.713,-6.284L3.734,-6.284L3.734,-6.235L3.699,-6.215L3.679,-6.235L3.671,-6.277L3.699,-6.299L3.629,-6.306L3.531,-6.292L3.026,-6.277L2.949,-6.257L2.845,-6.116L2.761,-6.116L2.704,-6.096L2.677,-6.06L2.662,-5.955L2.508,-5.815L2.474,-5.815L2.375,-5.759L2.34,-5.683L2.347,-5.64L2.375,-5.591L2.291,-5.598L2.229,-5.528L2.095,-5.275L2.024,-5.22L1.94,-4.988L1.836,-4.33L1.787,-4.105L1.779,-3.966L1.717,-3.833L1.71,-3.342L1.772,-3.041L1.787,-2.858L1.772,-1.997L1.801,-1.688L1.829,-1.569L1.85,-1.576L1.885,-1.618L1.927,-1.569L1.913,-1.5L1.85,-1.478L1.856,-1.415L1.934,-1.366L1.948,-1.065L1.99,-0.981L2.109,-0.918L2.291,-0.918L2.551,-1.03L2.823,-1.037L2.9,-1.023L3.048,-0.862L3.104,-0.708L3.104,-0.532L3.041,-0.379L3.006,-0.35L2.978,-0.287L2.761,-0.084L2.684,-0.035L2.578,0L2.368,-0.007L1.71,-0.161L1.191,-0.176L1.198,-0.253L1.17,-0.273L1.107,-0.267L1.086,-0.245L1.079,-0.203L1.065,-0.189L0.554,-0.267L0.336,-0.26L0.315,-0.161L0.189,-0.126L0.154,-0.134L0.119,-0.21L0.084,-0.218L0.028,-0.119L-0.035,-0.105L-0.112,-0.119L-0.154,-0.168L-0.245,-0.126L-0.336,-0.141L-0.435,-0.189L-0.589,-0.364L-0.651,-0.518L-0.658,-0.602L-0.596,-0.785L-0.47,-0.939L-0.371,-1.009L-0.21,-1.086L-0.056,-1.079L0.225,-1.009L0.399,-0.995L0.616,-1.009L0.658,-1.03L0.722,-1.093L0.777,-1.254L0.806,-1.262L0.854,-1.247L0.904,-1.289L0.938,-1.394L0.98,-1.611L0.938,-1.695L0.938,-1.73L0.974,-1.787L0.974,-2.256L0.904,-2.354L0.89,-2.551L0.883,-3.363L0.785,-3.966L0.777,-4.414L0.841,-4.807L0.848,-5.626L0.883,-5.822L0.896,-5.836L0.946,-6.074L0.938,-6.096L0.953,-6.208L0.938,-6.607L0.883,-7.153L0.883,-7.7L0.792,-8.204L0.722,-8.414L0.624,-8.625L0.574,-8.786L0.532,-8.835L0.477,-8.863L0.399,-8.87L0.386,-8.919L0.302,-8.926L0.225,-8.968L-0.259,-8.926L-0.385,-8.933L-0.554,-8.996L-0.665,-9.157L-0.715,-9.311L-0.707,-9.508L-0.651,-9.605L-0.539,-9.703L-0.413,-9.746L-0.196,-9.78L0,-9.788Z" style="fill:white;fill-rule:nonzero;"/>
            </g>
            <g transform="matrix(1,0,0,1,278.0391,290.6179)">
                <path d="M0,-5.605L-0.54,-5.422L-0.673,-5.345L-0.771,-5.317L-0.813,-5.29L-0.841,-5.226L-0.967,-5.072L-1.044,-5.08L-1.178,-4.925L-1.22,-4.855L-1.233,-4.701L-1.269,-4.687L-1.366,-4.68L-1.395,-4.659L-1.485,-4.519L-1.507,-4.449L-1.507,-4.372L-1.598,-4.274L-1.619,-4.224L-1.626,-4.12L-1.64,-4.078L-1.696,-4.021L-1.766,-3.818L-1.78,-3.811L-1.836,-3.601L-1.85,-3.58L-1.885,-3.188L-1.85,-2.774L-1.794,-2.641L-1.78,-2.417L-1.717,-1.842L-1.724,-1.758L-1.646,-1.674L-1.584,-1.387L-1.535,-1.38L-1.5,-1.359L-1.479,-1.331L-1.472,-1.219L-1.401,-1.121L-1.381,-1.058L-1.304,-0.988L-1.289,-0.918L-1.212,-0.798L-0.981,-0.54L-0.981,-0.525L-0.876,-0.441L-0.785,-0.406L-0.785,-0.392L-0.722,-0.343L-0.652,-0.322L-0.652,-0.231L-0.61,-0.203L-0.498,-0.196L-0.176,-0.133L-0.07,-0.098L0.062,-0.105L0.126,-0.189L0.203,-0.196L0.23,-0.182L0.266,-0.119L0.308,-0.119L0.343,-0.133L0.378,-0.175L0.434,-0.168L0.693,-0.189L0.89,-0.266L0.91,-0.266L1.016,-0.322L1.239,-0.371L1.331,-0.371L1.59,-0.469L1.618,-0.498L1.611,-0.602L1.66,-0.609L1.695,-0.588L1.724,-0.602L1.737,-0.637L1.808,-0.708L1.969,-1.085L2.046,-1.177L2.095,-1.317L2.214,-1.506L2.249,-1.604L2.34,-2.606L2.354,-2.634L2.389,-2.816L2.396,-3.041L2.36,-3.678L2.305,-3.72L2.263,-3.797L2.249,-3.867L2.221,-4.224L2.186,-4.294L2.08,-4.624L1.982,-4.771L1.976,-4.932L1.954,-4.96L1.863,-4.96L1.835,-4.981L1.73,-5.114L1.478,-5.338L1.239,-5.429L1.148,-5.493L0.645,-5.542L0.441,-5.597L0.21,-5.619L0,-5.605ZM0.806,-6.53L0.848,-6.508L1.009,-6.488L1.009,-6.501L1.036,-6.522L1.1,-6.522L1.148,-6.453L1.184,-6.446L1.226,-6.488L1.282,-6.48L1.338,-6.446L1.38,-6.369L1.639,-6.334L1.73,-6.263L1.786,-6.151L1.961,-6.074L2.003,-6.032L2.053,-6.032L2.088,-6.067L2.144,-6.067L2.172,-6.053L2.186,-6.032L2.186,-5.941L2.27,-5.955L2.291,-5.941L2.276,-5.857L2.318,-5.793L2.333,-5.793L2.557,-5.563L2.746,-5.296L2.774,-5.226L2.928,-5.002L2.949,-4.897L2.971,-4.855L3.062,-4.778L3.124,-4.68L3.139,-4.553L3.201,-4.435L3.229,-4.414L3.194,-4.281L3.25,-4.231L3.278,-4.155L3.32,-4.091L3.362,-3.811L3.362,-3.734L3.327,-3.489L3.349,-3.46L3.404,-3.425L3.411,-3.383L3.397,-3.349L3.335,-3.314L3.32,-3.257L3.362,-2.802L3.362,-2.662L3.307,-2.255L3.166,-1.737L3.124,-1.506L3.11,-1.295L3.082,-1.127L3.033,-1.023L2.963,-0.946L2.963,-0.847L2.907,-0.679L2.936,-0.595L2.928,-0.56L2.886,-0.533L2.81,-0.518L2.802,-0.462L2.852,-0.42L2.852,-0.399L2.823,-0.364L2.739,-0.364L2.613,-0.147L2.605,-0.035L2.585,-0L2.438,0.042L2.417,0.07L2.115,0.316L1.905,0.385L1.786,0.456L1.611,0.469L1.548,0.519L1.464,0.519L1.324,0.568L1.268,0.645L1.197,0.638L1.163,0.596L1.106,0.603L0.98,0.659L0.932,0.707L0.539,0.771L0.153,0.813L0.014,0.848L-0.231,0.883L-0.322,0.869L-0.372,0.911L-0.414,0.925L-0.505,0.918L-0.567,0.82L-0.638,0.806L-0.897,0.701L-0.904,0.68L-1.065,0.575L-1.185,0.526L-1.395,0.378L-1.507,0.343L-1.682,0.175L-1.696,0.175L-1.822,0.07L-1.843,0.036L-1.934,-0.056L-1.99,-0.217L-2.053,-0.203L-2.103,-0.231L-2.137,-0.308L-2.326,-0.588L-2.333,-0.686L-2.396,-0.792L-2.438,-1.03L-2.536,-1.38L-2.586,-1.709L-2.628,-1.829L-2.697,-1.829L-2.732,-1.864L-2.732,-1.898L-2.81,-2.165L-2.816,-2.312L-2.739,-2.381L-2.739,-2.908L-2.761,-3.131L-2.803,-3.405L-2.81,-3.706L-2.732,-4.043L-2.726,-4.217L-2.663,-4.294L-2.635,-4.392L-2.558,-4.491L-2.529,-4.582L-2.509,-4.778L-2.445,-4.855L-2.41,-4.932L-2.375,-4.974L-2.361,-5.03L-2.368,-5.065L-2.39,-5.086L-2.383,-5.135L-2.298,-5.114L-2.298,-5.128L-2.214,-5.219L-2.116,-5.283L-1.814,-5.605L-1.808,-5.639L-1.772,-5.689L-1.696,-5.745L-1.569,-5.962L-1.485,-6.039L-1.331,-6.151L-1.227,-6.172L-0.911,-6.298L-0.666,-6.34L-0.519,-6.431L-0.393,-6.495L-0.035,-6.501L0.217,-6.466L0.441,-6.466L0.693,-6.488L0.756,-6.53L0.806,-6.53Z" style="fill:white;fill-rule:nonzero;"/>
            </g>
            <g transform="matrix(1,0,0,1,287.1885,291.2978)">
                <path d="M0,-7.237L0.344,-7.195L0.386,-7.168L0.512,-7.139L0.582,-7.104L0.673,-7.104L0.953,-7.034L1.03,-6.971L1.143,-6.845L1.163,-6.733L1.388,-6.425L1.485,-6.186L1.541,-6.089L1.633,-5.458L1.653,-5.402L1.66,-4.946L1.633,-4.758L1.527,-4.54L1.457,-4.47L1.353,-4.308L1.282,-4.246L1.205,-4.211L1.185,-4.19L1.198,-4.105L1.163,-4.071L1.065,-4.021L0.974,-4.043L0.946,-4.036L0.883,-3.979L0.806,-4.063L0.693,-4.029L0.421,-4.021L0.329,-4.049L0.26,-4.091L0.161,-4.239L0.105,-4.239L0.063,-4.288L0.007,-4.575L0.014,-4.827L0.049,-4.911L0.105,-5.003L0.245,-5.171L0.344,-5.248L0.631,-5.367L0.638,-5.493L0.708,-5.5L0.729,-5.535L0.722,-5.633L0.693,-5.738L0.582,-5.934L0.421,-6.116L0.245,-6.27L-0.014,-6.396L-0.231,-6.418L-0.259,-6.404L-0.28,-6.376L-0.378,-6.369L-0.406,-6.341L-0.427,-6.292L-0.532,-6.285L-0.596,-6.221L-0.729,-6.215L-0.854,-6.137L-0.925,-6.032L-0.995,-5.963L-1.086,-5.955L-1.205,-5.822L-1.24,-5.752L-1.31,-5.479L-1.352,-5.394L-1.401,-5.023L-1.443,-4.911L-1.45,-4.813L-1.506,-4.743L-1.541,-4.638L-1.598,-4.33L-1.569,-4.155L-1.569,-3.741L-1.598,-3.384L-1.569,-3.265L-1.527,-3.216L-1.527,-3.125L-1.548,-3.083L-1.611,-3.076L-1.625,-3.041L-1.618,-2.992L-1.598,-2.97L-1.534,-2.957L-1.499,-2.641L-1.506,-2.074L-1.534,-2.052L-1.548,-2.018L-1.499,-1.948L-1.506,-1.899L-1.562,-1.849L-1.583,-1.814L-1.569,-1.633L-1.583,-1.471L-1.506,-1.219L-1.373,-1.086L-1.275,-1.016L-1.226,-0.995L-1.044,-0.96L-0.777,-0.981L-0.574,-1.023L-0.483,-1.016L-0.309,-0.966L-0.273,-0.946L-0.154,-0.827L-0.077,-0.673L-0.077,-0.518L-0.119,-0.379L-0.231,-0.231L-0.315,-0.154L-0.371,-0.126L-0.371,-0.084L-0.357,-0.05L-0.399,-0.008L-0.603,0.007L-0.687,-0.07L-0.799,-0.077L-0.861,-0.112L-1.17,-0.14L-1.751,-0.07L-2.031,-0.063L-2.186,-0.091L-2.249,-0.07L-2.676,-0.07L-3.11,-0.042L-3.559,-0.07L-3.601,-0.105L-3.699,-0.105L-3.77,-0.154L-3.832,-0.175L-3.881,-0.211L-4.021,-0.414L-4.035,-0.511L-4.028,-0.673L-4.015,-0.736L-3.979,-0.792L-3.804,-0.869L-3.454,-0.883L-3.3,-0.834L-3.125,-0.841L-2.907,-0.904L-2.795,-0.96L-2.585,-1.008L-2.571,-1.023L-2.571,-1.142L-2.543,-1.226L-2.543,-1.842L-2.564,-2.299L-2.543,-2.536L-2.543,-2.858L-2.606,-3.293L-2.634,-3.72L-2.62,-3.895L-2.592,-4.063L-2.571,-4.127L-2.564,-4.105L-2.55,-4.113L-2.536,-4.049L-2.522,-4.036L-2.501,-4.049L-2.501,-4.113L-2.571,-4.14L-2.564,-4.217L-2.536,-4.253L-2.522,-4.253L-2.459,-4.308L-2.459,-4.365L-2.55,-4.456L-2.571,-4.778L-2.557,-4.82L-2.55,-4.806L-2.501,-4.82L-2.487,-4.835L-2.501,-4.932L-2.494,-5.016L-2.557,-5.023L-2.564,-5.009L-2.571,-5.374L-2.543,-5.513L-2.557,-5.892L-2.585,-5.963L-2.599,-5.969L-2.655,-5.948L-2.684,-5.969L-2.69,-6.095L-2.781,-6.137L-2.837,-6.215L-3.384,-6.228L-3.65,-6.27L-3.755,-6.327L-3.755,-6.341L-3.812,-6.411L-3.874,-6.544L-3.889,-6.726L-3.909,-6.768L-3.902,-6.845L-3.867,-6.873L-3.762,-6.915L-3.748,-6.95L-3.678,-7.007L-3.601,-7.034L-3.097,-7.097L-2.768,-7.091L-2.613,-7.062L-2.55,-7.034L-1.962,-7.027L-1.808,-6.965L-1.751,-6.894L-1.695,-6.733L-1.688,-6.634L-1.73,-6.277L-1.695,-6.221L-1.646,-6.228L-1.408,-6.495L-1.345,-6.592L-1.128,-6.803L-1.037,-6.859L-0.953,-6.95L-0.854,-6.985L-0.749,-7.049L-0.68,-7.111L-0.525,-7.195L-0.483,-7.195L-0.393,-7.23L-0.364,-7.223L-0.315,-7.16L-0.259,-7.188L-0.238,-7.23L-0.21,-7.244L0,-7.237Z" style="fill:white;fill-rule:nonzero;"/>
            </g>
            <g transform="matrix(1,0,0,1,297.5293,287.9638)">
                <path d="M0,-3.028L-0.084,-3.028L-0.224,-2.901L-0.322,-2.894L-0.385,-2.768L-0.483,-2.755L-0.812,-2.565L-0.994,-2.362L-1.051,-2.271L-1.142,-2.026L-1.226,-1.907L-1.324,-1.633L-1.352,-1.605L-1.45,-1.409L-1.464,-1.304L-1.45,-0.856L-1.408,-0.464L-1.394,0.293L-1.324,0.742L-1.296,0.805L-1.268,0.917L-1.268,1.001L-1.254,1.064L-1.17,1.155L-1.142,1.232L-1.148,1.24L-1.135,1.421L-1.037,1.604L-0.967,1.799L-0.819,1.982L-0.812,2.066L-0.791,2.094L-0.757,2.079L-0.722,2.01L-0.693,2.01L-0.665,2.037L-0.63,2.157L-0.469,2.276L-0.23,2.326L-0.133,2.395L-0.077,2.409L0.028,2.465L0.225,2.507L0.295,2.465L0.505,2.472L0.533,2.535L0.567,2.535L0.603,2.472L0.645,2.458L0.883,2.479L0.911,2.472L0.967,2.416L0.967,2.318L1.093,2.284L1.17,2.248L1.191,2.213L1.22,2.192L1.381,2.185L1.492,2.136L1.598,2.037L1.633,2.031L1.717,1.96L1.898,1.772L1.969,1.681L2.103,1.401L2.13,1.232L2.123,1.155L2.137,0.91L2.088,0.826L2.081,0.728L2.137,0.167L2.165,0.035L2.158,-0.422L2.179,-0.512L2.158,-0.695L2.172,-1.199L2.151,-1.535L2.103,-1.64L2.109,-1.717L2.088,-1.808L2.004,-1.872L1.898,-2.179L1.843,-2.264L1.78,-2.306L1.737,-2.432L1.688,-2.495L1.534,-2.649L1.395,-2.755L1.353,-2.839L1.311,-2.845L1.269,-2.824L1.114,-2.909L0.988,-2.909L0.764,-2.985L0.673,-3.028L0.477,-3.084L0.28,-3.09L0,-3.028ZM2.467,-6.467L2.705,-6.454L2.9,-6.383L2.984,-6.293L3.111,-6.061L3.132,-5.711L3.16,-5.487L3.146,-5.214L3.09,-4.716L3.097,-4.436L3.146,-3.966L3.16,-3.7L3.111,-3.181L3.139,-2.881L3.167,-2.768L3.167,-2.629L3.132,-2.572L3.146,-2.495L3.167,-2.488L3.188,-2.46L3.188,-2.173L3.118,-1.731L3.118,-1.36L3.139,-1.157L3.146,-0.709L3.09,-0.281L3.09,-0.022L3.111,0.265L3.153,0.51L3.153,0.874L3.125,1.127L3.125,1.582L3.181,1.792L3.223,2.129L3.265,2.262L3.258,2.346L3.342,2.381L3.356,2.368L3.398,2.451L3.482,2.451L3.545,2.402L4.07,2.451L4.231,2.487L4.337,2.487L4.421,2.563L4.407,2.563L4.478,2.606L4.568,2.703L4.61,2.787L4.624,2.9L4.617,3.159L4.589,3.201L4.568,3.208L4.478,3.187L4.436,3.201L4.372,3.264L4.365,3.348L4.309,3.362L4.267,3.306L4.001,3.306L4.001,3.32L3.938,3.397L3.763,3.369L3.734,3.326L3.721,3.264L3.657,3.236L3.531,3.222L3.398,3.187L3.363,3.165L3.139,3.11L2.929,3.11L2.726,3.123L2.529,3.187L2.459,3.18L2.396,3.145L2.396,3.131L2.354,3.081L2.333,3.075L2.298,3.096L2.264,3.081L2.2,2.9L2.187,2.717L2.13,2.648L2.06,2.655L1.983,2.69L1.92,2.781L1.542,3.012L1.507,3.019L1.443,3.117L1.408,3.138L1.353,3.145L1.282,3.187L1.093,3.355L0.988,3.383L0.547,3.383L0.512,3.397L0.421,3.397L0.371,3.362L0.238,3.404L-0.021,3.411L-0.062,3.439L-0.084,3.439L-0.154,3.404L-0.301,3.404L-0.385,3.32L-0.574,3.306L-0.616,3.292L-0.672,3.236L-0.784,3.18L-0.791,3.061L-0.896,3.019L-1.268,2.759L-1.331,2.739L-1.471,2.591L-1.569,2.529L-1.667,2.402L-1.744,2.339L-1.814,2.241L-1.828,2.199L-2.08,1.849L-2.186,1.646L-2.186,1.485L-2.199,1.456L-2.228,1.45L-2.284,1.47L-2.284,1.456L-2.318,1.435L-2.333,0.98L-2.41,0.882L-2.41,0.805L-2.347,0.735L-2.318,0.622L-2.318,0.196L-2.347,0.146L-2.396,0.118L-2.417,0.076L-2.438,-0.183L-2.431,-0.4L-2.402,-0.534L-2.396,-0.722L-2.382,-0.806L-2.354,-0.856L-2.312,-1.416L-2.318,-1.731L-2.298,-1.815L-2.27,-1.823L-2.234,-1.795L-2.234,-1.759L-2.214,-1.766L-2.186,-1.885L-2.192,-1.976L-2.214,-2.053L-2.08,-2.453L-2.011,-2.572L-1.989,-2.635L-1.892,-2.824L-1.808,-2.901L-1.821,-3L-1.801,-3.007L-1.737,-2.993L-1.618,-3.104L-1.611,-3.196L-1.471,-3.322L-1.366,-3.35L-1.268,-3.42L-1.212,-3.546L-1.19,-3.567L-1.1,-3.567L-0.98,-3.623L-0.848,-3.742L-0.651,-3.812L-0.378,-4.022L-0.273,-4.044L-0.049,-4.044L0.196,-4.015L0.512,-3.96L0.946,-3.945L1.121,-3.847L1.339,-3.763L1.479,-3.673L1.598,-3.546L1.71,-3.476L1.724,-3.455L1.787,-3.413L2.088,-3.077L2.165,-3.077L2.207,-3.112L2.229,-3.181L2.2,-3.434L2.179,-3.834L2.214,-4.092L2.221,-4.289L2.207,-4.478L2.172,-4.66L2.158,-4.814L2.13,-4.878L2.074,-5.165L2.06,-5.165L1.997,-5.22L1.99,-5.284L2.004,-5.346L1.948,-5.41L1.898,-5.43L1.836,-5.48L1.717,-5.514L1.492,-5.522L1.247,-5.445L0.974,-5.445L0.806,-5.487L0.715,-5.578L0.631,-5.788L0.617,-5.879L0.673,-6.019L0.82,-6.216L0.869,-6.243L0.932,-6.236L0.974,-6.278L0.974,-6.299L1.03,-6.362L1.227,-6.425L1.415,-6.439L1.569,-6.432L1.822,-6.397L2.032,-6.397L2.438,-6.461L2.467,-6.467Z" style="fill:white;fill-rule:nonzero;"/>
            </g>
            <g transform="matrix(1,0,0,1,307.4707,287.7805)">
                <path d="M0,-0.21L-0.098,-0.161L-0.168,-0.091L-0.182,-0.063L-0.259,0.007L-0.392,0.07L-0.812,0.105L-1.044,0.147L-1.45,0.245L-1.534,0.28L-1.639,0.287L-1.702,0.309L-1.863,0.337L-2.15,0.344L-2.199,0.364L-2.333,0.393L-2.494,0.567L-2.634,0.589L-2.647,0.659L-2.697,0.757L-2.802,0.876L-2.858,0.981L-2.879,1.086L-2.893,1.45L-2.928,1.492L-2.928,1.64L-2.907,1.66L-2.886,1.64L-2.872,1.598L-2.844,1.604L-2.823,1.64L-2.795,1.982L-2.627,2.277L-2.521,2.41L-2.318,2.536L-2.298,2.564L-2.206,2.635L-1.982,2.69L-1.793,2.684L-0.672,2.326L-0.476,2.165L-0.356,2.102L-0.224,1.99L-0.104,1.92L-0.049,1.856L0.092,1.633L0.112,1.388L0.176,1.17L0.231,0.799L0.231,0.525L0.176,-0.112L0.119,-0.203L0.042,-0.217L0,-0.21ZM-1.499,-3.832L-1.078,-3.797L-0.819,-3.755L-0.343,-3.776L-0.182,-3.755L0.042,-3.685L0.322,-3.523L0.379,-3.475L0.491,-3.439L0.54,-3.342L0.652,-3.194L0.75,-3.152L0.75,-3.139L0.764,-3.132L0.771,-2.991L0.841,-2.845L0.897,-2.795L1.072,-2.221L1.079,-2.108L1.128,-2.031L1.149,-1.912L1.143,-1.647L1.107,-1.401L1.107,-1.17L1.171,-1.156L1.198,-1.114L1.198,-0.967L1.185,-0.925L1.114,-0.903L1.107,-0.806L1.128,-0.477L1.107,-0.105L1.059,0.218L1.059,0.344L1.128,0.827L1.143,1.093L1.136,1.359L1.121,1.465L1.121,1.962L1.065,2.032L1.094,2.284L1.107,2.284L1.107,2.263L1.114,2.27L1.149,2.214L1.185,2.249L1.233,2.452L1.346,2.585L1.401,2.628L1.584,2.67L1.703,2.655L1.773,2.62L1.829,2.536L1.829,2.509L1.871,2.417L1.899,2.263L1.962,1.73L1.962,1.633L1.906,1.051L1.913,0.834L1.927,0.82L1.962,0.686L2.025,0.609L2.151,0.574L2.425,0.631L2.452,0.666L2.551,0.735L2.558,0.827L2.544,0.883L2.558,0.896L2.586,1.023L2.551,1.135L2.579,1.233L2.613,1.724L2.642,1.864L2.642,2.158L2.593,2.459L2.551,2.613L2.522,2.971L2.438,3.209L2.39,3.293L2.319,3.363L2.257,3.398L2.207,3.447L2.158,3.44L2.109,3.384L2.032,3.405L1.64,3.426L1.569,3.545L1.451,3.573L1.269,3.566L1.094,3.518L0.911,3.44L0.862,3.398L0.764,3.392L0.694,3.342L0.652,3.293L0.638,3.216L0.617,3.167L0.498,3.006L0.47,2.628L0.441,2.585L0.365,2.6L0.295,2.571L0.211,2.571L0.154,2.593L0.042,2.704L-0.034,2.746L-0.084,2.845L-0.168,2.845L-0.217,2.957L-0.427,3.153L-0.609,3.195L-0.679,3.244L-1.155,3.461L-1.366,3.58L-1.436,3.58L-1.576,3.622L-1.8,3.615L-1.85,3.595L-2.024,3.58L-2.087,3.553L-2.599,3.468L-2.809,3.419L-2.886,3.37L-2.97,3.293L-3.075,3.237L-3.173,3.16L-3.229,3.174L-3.377,3.048L-3.384,2.942L-3.587,2.677L-3.649,2.529L-3.755,2.375L-3.811,2.193L-3.874,1.856L-3.699,0.939L-3.691,0.617L-3.656,0.519L-3.601,0.435L-3.601,0.393L-3.629,0.337L-3.629,0.295L-3.601,0.238L-3.545,0.189L-3.488,0.099L-3.404,0.112L-3.349,0.042L-3.349,-0.063L-3.313,-0.098L-3.236,-0.133L-3.159,-0.126L-3.026,-0.224L-2.921,-0.203L-2.886,-0.224L-2.907,-0.322L-2.753,-0.435L-2.402,-0.519L-1.905,-0.554L-1.856,-0.638L-1.828,-0.651L-1.484,-0.673L-1.197,-0.749L-0.882,-0.757L-0.812,-0.771L-0.749,-0.868L-0.721,-0.89L-0.645,-0.883L-0.469,-0.995L-0.392,-1.009L-0.329,-1.058L-0.272,-1.19L-0.153,-1.275L-0.021,-1.303L-0.021,-1.415L0.042,-1.401L0.057,-1.408L0.105,-1.527L0.099,-1.576L0.134,-1.814L0.127,-2.298L-0.021,-2.523L-0.069,-2.578L-0.168,-2.648L-0.175,-2.684L-0.153,-2.732L-0.168,-2.76L-0.188,-2.76L-0.224,-2.732L-0.28,-2.739L-0.356,-2.788L-0.406,-2.795L-0.497,-2.894L-0.56,-2.914L-0.665,-2.914L-0.861,-2.978L-1.071,-3.006L-1.352,-2.978L-1.548,-2.929L-1.513,-2.852L-1.555,-2.823L-1.737,-2.788L-1.779,-2.802L-1.821,-2.852L-1.863,-2.852L-1.912,-2.83L-2.108,-2.795L-2.27,-2.634L-2.312,-2.536L-2.312,-2.382L-2.179,-2.115L-2.186,-2.073L-2.157,-1.87L-2.192,-1.541L-2.241,-1.437L-2.367,-1.268L-2.459,-1.198L-2.731,-1.156L-2.9,-1.177L-3.229,-1.268L-3.419,-1.499L-3.446,-1.647L-3.439,-1.702L-3.397,-1.737L-3.411,-1.793L-3.468,-1.779L-3.481,-1.892L-3.517,-2.039L-3.517,-2.179L-3.481,-2.361L-3.433,-2.473L-3.433,-2.592L-3.419,-2.613L-3.342,-2.655L-3.166,-2.852L-2.914,-3.23L-2.914,-3.251L-2.837,-3.32L-2.781,-3.419L-2.466,-3.615L-2.389,-3.552L-2.144,-3.559L-2.08,-3.573L-2.073,-3.587L-2.095,-3.65L-2.08,-3.685L-2.053,-3.699L-1.863,-3.727L-1.73,-3.79L-1.52,-3.825L-1.499,-3.832Z" style="fill:white;fill-rule:nonzero;"/>
            </g>
            <g transform="matrix(1,0,0,1,318.7793,292.9162)">
                <path d="M0,-7.875L-0.231,-7.84L-0.364,-7.756L-0.414,-7.679L-0.533,-7.615L-0.946,-7.153L-0.953,-7.125L-1.178,-6.81L-1.233,-6.648L-1.297,-6.529L-1.353,-6.348L-1.359,-6.046L-1.479,-5.604L-1.535,-5.255L-1.535,-5.129L-1.353,-4.414L-1.304,-4.035L-1.205,-3.812L-1.178,-3.644L-1.149,-3.566L-1.065,-3.468L-0.967,-3.279L-0.68,-2.971L-0.589,-2.978L-0.351,-2.774L-0.309,-2.712L-0.245,-2.69L0.027,-2.529L0.28,-2.508L0.588,-2.529L0.987,-2.529L1.106,-2.543L1.492,-2.62L1.576,-2.669L1.597,-2.704L1.674,-2.768L1.716,-2.88L1.737,-2.887L1.793,-2.942L1.814,-3.013L1.835,-3.034L1.976,-3.328L2.06,-3.391L2.045,-3.476L2.122,-3.58L2.164,-3.734L2.164,-4.442L2.179,-4.505L2.214,-4.54L2.228,-4.757L2.298,-5.359L2.206,-5.359L2.206,-5.604L2.15,-6.116L2.15,-6.6L2.137,-6.642L2.102,-6.642L2.073,-6.628L2.053,-6.635L2.003,-6.824L2.011,-6.992L1.982,-7.048L1.884,-7.056L1.856,-7.104L1.835,-7.259L1.8,-7.286L1.716,-7.321L1.681,-7.447L1.513,-7.615L1.429,-7.615L1.254,-7.763L1.184,-7.875L1.106,-7.91L0.917,-7.937L0.651,-7.937L0,-7.875ZM0.819,-8.891L0.974,-8.842L1.239,-8.694L1.358,-8.659L1.513,-8.555L1.59,-8.484L1.66,-8.456L1.927,-8.218L1.989,-8.19L1.996,-8.155L1.982,-8.099L1.996,-8.071L2.144,-8.029L2.172,-8.036L2.206,-8.099L2.206,-8.197L2.234,-8.274L2.276,-8.54L2.36,-8.659L2.501,-8.674L2.837,-8.646L2.978,-8.562L3.026,-8.513L3.139,-8.19L3.166,-7.833L3.159,-6.81L3.174,-6.789L3.208,-6.628L3.285,-6.579L3.3,-6.516L3.3,-6.131L3.285,-5.885L3.208,-5.836L3.194,-5.794L3.208,-5.731L3.174,-5.549L3.194,-4.869L3.181,-4.659L3.104,-4.225L3.104,-3.959L3.117,-3.755L3.174,-3.342L3.146,-3.195L3.166,-3.11L3.159,-3.068L3.131,-3.055L3.075,-2.999L3.082,-2.838L3.068,-2.796L3.089,-2.726L3.146,-2.69L3.166,-2.403L3.201,-2.298L3.208,-2.116L3.229,-1.955L3.243,-1.583L3.174,-1.114L3.174,-0.827L3.208,-0.497L3.216,-0.21L3.236,-0.154L3.335,-0.028L3.488,0.104L3.733,0.175L4.056,0.182L4.175,0.133L4.302,0.104L4.574,0.126L4.631,0.161L4.771,0.343L4.812,0.483L4.806,0.596L4.777,0.673L4.708,0.777L4.638,0.854L4.624,0.967L4.596,1.002L4.056,1.016L3.713,0.938L3.139,0.96L2.907,0.938L2.823,0.911L2.444,0.848L2.228,0.854L1.85,0.938L1.716,0.938L1.66,0.967L1.59,0.932L1.436,0.945L0.959,0.918L0.896,0.854L0.764,0.819L0.722,0.784L0.63,0.589L0.623,0.512L0.714,0.259L0.791,0.168L0.896,0.112L1.197,0.104L1.247,0.161L1.289,0.168L1.331,0.14L1.331,0.126L1.358,0.104L1.695,0.091L1.821,0.049L1.884,0.007L2.06,-0.147L2.15,-0.47L2.206,-0.463L2.221,-0.483L2.221,-0.525L2.179,-0.561L2.179,-0.658L2.199,-0.785L2.206,-1.121L2.192,-1.311L2.241,-1.38L2.241,-1.408L2.186,-1.479L2.186,-1.724L2.221,-1.94L2.221,-2.081L2.186,-2.137L2.13,-2.144L2.073,-2.067L1.976,-2.067L1.835,-1.913L1.772,-1.906L1.766,-1.836L1.73,-1.794L1.611,-1.772L1.548,-1.801L1.513,-1.843L1.442,-1.843L1.281,-1.779L1.1,-1.759L1.044,-1.73L0.959,-1.779L0.868,-1.766L0.841,-1.682L0.756,-1.64L0.574,-1.604L0.434,-1.591L0.301,-1.598L0.027,-1.64L-0.203,-1.633L-0.421,-1.598L-0.575,-1.604L-0.673,-1.626L-0.799,-1.695L-0.883,-1.724L-0.96,-1.759L-1.156,-1.934L-1.269,-1.99L-1.416,-2.165L-1.45,-2.193L-1.577,-2.242L-1.604,-2.298L-1.611,-2.382L-1.646,-2.417L-1.843,-2.739L-1.906,-2.816L-1.913,-2.936L-1.969,-3.034L-2.039,-3.286L-2.081,-3.321L-2.123,-3.328L-2.151,-3.356L-2.172,-3.644L-2.235,-3.755L-2.235,-3.86L-2.284,-3.944L-2.383,-4.295L-2.396,-4.897L-2.417,-4.975L-2.509,-5.731L-2.494,-5.955L-2.452,-6.229L-2.396,-6.292L-2.368,-6.376L-2.348,-6.403L-2.242,-6.48L-2.229,-6.684L-2.207,-6.712L-2.172,-6.866L-2.13,-6.992L-2.095,-7.048L-2.046,-7.266L-1.955,-7.392L-1.843,-7.497L-1.752,-7.539L-1.688,-7.658L-1.682,-7.707L-1.611,-7.826L-1.527,-8.05L-1.472,-8.099L-1.423,-8.253L-1.289,-8.323L-1.247,-8.358L-1.247,-8.464L-1.233,-8.478L-1.121,-8.513L-1.065,-8.513L-1.03,-8.491L-0.981,-8.498L-0.813,-8.652L-0.568,-8.771L-0.364,-8.82L-0.035,-8.82L0.182,-8.835L0.561,-8.891L0.819,-8.891Z" style="fill:white;fill-rule:nonzero;"/>
            </g>
            <g transform="matrix(1,0,0,1,326.1914,291.4029)">
                <path d="M0,-7.265L0.062,-7.238L0.077,-7.203L0.062,-7.146L0.077,-7.104L0.154,-7.035L0.175,-6.957L0.175,-6.838L0.267,-5.794L0.231,-5.486L0.231,-5.36L0.21,-5.325L0.175,-4.863L0.203,-4.568L0.203,-4.134L0.154,-3.846L0.133,-3.503L0.252,-2.844L0.315,-2.165L0.406,-1.906L0.42,-1.786L0.441,-1.738L0.497,-1.682L0.715,-1.402L0.903,-1.38L1.002,-1.331L1.002,-1.219L1.191,-1.1L1.303,-1.051L1.401,-1.044L1.464,-1.009L1.611,-0.974L1.675,-1.03L1.73,-1.023L1.786,-0.981L1.821,-0.981L1.885,-1.009L2.214,-1.03L2.501,-1.1L2.746,-1.114L2.894,-1.199L2.978,-1.268L3.097,-1.436L3.167,-1.59L3.167,-1.696L3.223,-1.766L3.271,-1.877L3.384,-2.046L3.447,-2.2L3.439,-2.256L3.412,-2.27L3.384,-2.319L3.397,-2.417L3.419,-2.438L3.489,-2.446L3.524,-2.466L3.524,-2.488L3.538,-2.501L3.545,-3.251L3.615,-3.601L3.629,-3.727L3.636,-4.821L3.706,-5.15L3.713,-5.262L3.678,-5.591L3.636,-5.668L3.643,-5.773L3.615,-5.865L3.615,-5.991L3.587,-6.081L3.503,-6.229L3.355,-6.298L3.355,-6.333L3.37,-6.333L3.37,-6.375L3.349,-6.39L3.32,-6.333L3.258,-6.333L3.216,-6.404L3.02,-6.404L2.956,-6.348L2.487,-6.439L2.368,-6.585L2.319,-6.824L2.347,-6.957L2.375,-7.02L2.494,-7.139L2.662,-7.167L3.09,-7.167L3.209,-7.196L3.468,-7.216L3.748,-7.174L4.057,-7.161L4.28,-7.132L4.379,-7.09L4.428,-7.048L4.477,-6.936L4.483,-6.81L4.567,-6.446L4.575,-6.306L4.561,-6.271L4.519,-6.229L4.505,-5.682L4.554,-5.591L4.589,-5.254L4.603,-5.227L4.645,-4.94L4.652,-4.561L4.624,-4.393L4.631,-4.337L4.582,-4.168L4.582,-3.202L4.505,-2.691L4.505,-2.431L4.554,-2.172L4.567,-1.962L4.596,-1.885L4.624,-1.751L4.666,-1.429L4.799,-1.241L5.002,-1.17L5.297,-1.093L5.745,-1.058L5.752,-1.072L5.822,-1.079L5.878,-0.897L5.927,-0.827L5.92,-0.736L5.871,-0.68L5.871,-0.575L5.843,-0.533L5.801,-0.42L5.759,-0.358L5.696,-0.294L5.562,-0.266L5.366,-0.259L5.331,-0.239L5.191,-0.239L4.953,-0.197L4.75,-0.113L4.617,-0.105L4.554,-0.007L4.364,0L4.315,-0.078L4.07,-0.126L3.902,-0.217L3.86,-0.266L3.804,-0.365L3.797,-0.855L3.783,-1.03L3.713,-1.121L3.671,-1.114L3.397,-0.791L3.271,-0.659L3.188,-0.63L3.125,-0.568L2.894,-0.484L2.887,-0.469L2.774,-0.413L2.508,-0.365L2.403,-0.281L2.221,-0.203L1.955,-0.161L1.353,-0.155L0.932,-0.063L0.848,-0.063L0.631,-0.091L0.519,-0.197L0.47,-0.203L0.309,-0.287L0.021,-0.526L0.007,-0.588L-0.028,-0.63L-0.07,-0.638L-0.112,-0.665L-0.203,-0.659L-0.273,-0.785L-0.273,-0.904L-0.329,-1.03L-0.364,-1.065L-0.413,-1.226L-0.428,-1.387L-0.532,-1.773L-0.554,-1.954L-0.631,-2.277L-0.687,-2.424L-0.722,-2.837L-0.735,-3.349L-0.764,-3.454L-0.785,-3.643L-0.848,-3.965L-0.841,-4.316L-0.819,-4.526L-0.771,-4.806L-0.777,-5.598L-0.722,-6.06L-0.819,-6.236L-0.974,-6.348L-1.185,-6.39L-1.479,-6.382L-1.73,-6.333L-1.969,-6.333L-2.046,-6.369L-2.123,-6.439L-2.172,-6.501L-2.186,-6.558L-2.186,-6.733L-2.053,-6.943L-1.94,-7.07L-1.843,-7.161L-1.604,-7.196L-1.422,-7.188L-1.03,-7.139L-0.918,-7.139L-0.743,-7.161L-0.68,-7.181L-0.658,-7.203L-0.505,-7.209L-0.455,-7.265L0,-7.265Z" style="fill:white;fill-rule:nonzero;"/>
            </g>
            <g transform="matrix(1,0,0,1,336.2656,290.4626)">
                <path d="M0,-5.435L-0.14,-5.428L-0.188,-5.4L-0.252,-5.331L-0.287,-5.316L-0.371,-5.253L-0.707,-4.861L-0.784,-4.854L-0.833,-4.748L-0.868,-4.713L-1.064,-4.377L-1.078,-4.251L-1.12,-4.055L-1.212,-3.817L-1.226,-3.642L-1.219,-3.592L-1.177,-3.537L-1.142,-3.543L-1.106,-3.592L-1.071,-3.592L-1.016,-3.537L-0.764,-3.543L-0.7,-3.614L-0.561,-3.607L-0.455,-3.572L-0.146,-3.543L0.519,-3.592L0.645,-3.572L0.743,-3.572L0.799,-3.55L0.946,-3.523L1.311,-3.508L1.562,-3.55L1.871,-3.585L2.158,-3.565L2.2,-3.572L2.229,-3.614L2.242,-3.81L2.256,-3.866L2.074,-4.51L2.074,-4.693L2.032,-4.755L1.977,-4.777L1.934,-4.812L1.955,-4.91L1.899,-4.987L1.822,-4.973L1.794,-4.994L1.71,-5.113L1.661,-5.162L1.591,-5.197L1.331,-5.408L1.178,-5.421L1.094,-5.484L0.862,-5.547L0.68,-5.554L0,-5.435ZM0.638,-6.452L0.855,-6.416L1.24,-6.318L1.423,-6.247L1.752,-6.206L1.801,-6.185L1.899,-6.115L2.004,-6.066L2.061,-6.052L2.348,-5.807L2.46,-5.786L2.487,-5.75L2.487,-5.645L2.579,-5.554L2.621,-5.477L2.761,-5.316L2.774,-5.281L2.774,-5.183L2.845,-5.162L2.978,-4.973L3.055,-4.742L3.132,-4.623L3.188,-4.468L3.237,-3.796L3.23,-3.705L3.258,-3.473L3.279,-3.439L3.356,-3.389L3.356,-3.285L3.335,-3.109L3.3,-3.075L3.244,-3.102L3.181,-2.914L3.146,-2.906L3.09,-2.927L3.076,-2.914L3.041,-2.773L2.992,-2.717L2.824,-2.647L2.095,-2.661L1.864,-2.612L1.822,-2.612L1.724,-2.583L1.443,-2.577L1.339,-2.605L0.904,-2.647L0.533,-2.619L0.099,-2.619L-0.245,-2.696L-0.616,-2.696L-0.729,-2.667L-1.128,-2.625L-1.17,-2.612L-1.19,-2.577L-1.205,-2.276L-1.268,-2.212L-1.268,-1.989L-1.226,-1.799L-1.212,-1.813L-1.212,-1.834L-1.184,-1.862L-1.155,-1.855L-1.142,-1.764L-1.12,-1.722L-1.106,-1.477L-1.093,-1.456L-1.044,-1.442L-0.952,-1.246L-0.819,-1L-0.764,-0.868L-0.679,-0.755L-0.574,-0.573L-0.574,-0.475L-0.497,-0.398L-0.476,-0.356L-0.385,-0.244L-0.301,-0.258L-0.217,-0.166L-0.182,-0.16L-0.077,-0.097L0.042,-0.082L0.218,0.015L0.302,0.022L0.673,-0.082L1.052,-0.111L1.275,-0.173L1.311,-0.202L1.472,-0.272L1.556,-0.328L1.682,-0.454L1.745,-0.482L1.864,-0.559L2.088,-0.769L2.165,-0.888L2.165,-0.916L2.2,-1.014L2.229,-1.049L2.256,-1.14L2.249,-1.239L2.193,-1.281L2.172,-1.316L2.187,-1.42L2.256,-1.442L2.277,-1.358L2.299,-1.358L2.313,-1.378L2.313,-1.428L2.284,-1.442L2.271,-1.491L2.284,-1.512L2.368,-1.497L2.39,-1.519L2.522,-1.834L2.635,-1.974L2.782,-2.038L2.929,-2.023L2.957,-2.002L2.999,-1.939L3.139,-1.786L3.209,-1.638L3.237,-1.449L3.181,-1.21L3.076,-0.923L3.013,-0.826L2.943,-0.566L2.858,-0.363L2.831,-0.25L2.796,-0.181L2.663,-0.034L2.6,0.015L2.277,0.205L2.207,0.275L2.061,0.352L1.955,0.471L1.569,0.723L1.282,0.744L1.052,0.807L0.848,0.905L0.743,0.968L0.624,1.01L0.554,1.017L0.337,0.989L0.141,0.933L0.092,0.898L-0.027,0.891L-0.203,0.828L-0.301,0.842L-0.35,0.821L-0.385,0.786L-0.441,0.821L-0.476,0.828L-0.595,0.8L-0.609,0.779L-0.603,0.702L-0.63,0.674L-0.764,0.632L-1.106,0.373L-1.569,-0.146L-1.646,-0.3L-1.751,-0.447L-1.808,-0.566L-1.905,-0.65L-1.927,-0.832L-2.024,-1.281L-2.031,-1.596L-2.108,-1.932L-2.115,-2.038L-2.144,-2.184L-2.137,-2.192L-2.179,-2.331L-2.192,-2.598L-2.157,-2.92L-2.157,-3.025L-2.214,-3.698L-2.206,-3.859L-2.15,-4.181L-2.095,-4.314L-2.011,-4.419L-1.982,-4.49L-1.954,-4.651L-1.765,-5.085L-1.674,-5.205L-1.681,-5.289L-1.646,-5.337L-1.506,-5.379L-1.471,-5.421L-1.177,-5.68L-1.078,-5.814L-0.974,-5.933L-0.974,-5.947L-0.925,-6.017L-0.771,-6.136L-0.735,-6.213L-0.687,-6.269L-0.616,-6.297L-0.546,-6.29L-0.272,-6.318L-0.119,-6.367L0.169,-6.423L0.337,-6.43L0.428,-6.452L0.638,-6.452Z" style="fill:white;fill-rule:nonzero;"/>
            </g>
            <g transform="matrix(1,0,0,1,345.1641,291.2978)">
                <path d="M0,-7.237L0.343,-7.195L0.385,-7.168L0.511,-7.139L0.581,-7.104L0.672,-7.104L0.952,-7.034L1.029,-6.971L1.142,-6.845L1.163,-6.733L1.387,-6.425L1.485,-6.186L1.541,-6.089L1.632,-5.458L1.653,-5.402L1.66,-4.946L1.632,-4.758L1.527,-4.54L1.457,-4.47L1.352,-4.308L1.282,-4.246L1.205,-4.211L1.184,-4.19L1.197,-4.105L1.163,-4.071L1.064,-4.021L0.974,-4.043L0.945,-4.036L0.883,-3.979L0.806,-4.063L0.693,-4.029L0.42,-4.021L0.329,-4.049L0.259,-4.091L0.161,-4.239L0.104,-4.239L0.062,-4.288L0.007,-4.575L0.014,-4.827L0.049,-4.911L0.104,-5.003L0.245,-5.171L0.343,-5.248L0.63,-5.367L0.637,-5.493L0.707,-5.5L0.729,-5.535L0.722,-5.633L0.693,-5.738L0.581,-5.934L0.42,-6.116L0.245,-6.27L-0.015,-6.396L-0.231,-6.418L-0.26,-6.404L-0.28,-6.376L-0.379,-6.369L-0.406,-6.341L-0.428,-6.292L-0.533,-6.285L-0.596,-6.221L-0.729,-6.215L-0.855,-6.137L-0.925,-6.032L-0.995,-5.963L-1.086,-5.955L-1.205,-5.822L-1.24,-5.752L-1.311,-5.479L-1.353,-5.394L-1.401,-5.023L-1.443,-4.911L-1.45,-4.813L-1.507,-4.743L-1.542,-4.638L-1.598,-4.33L-1.569,-4.155L-1.569,-3.741L-1.598,-3.384L-1.569,-3.265L-1.527,-3.216L-1.527,-3.125L-1.549,-3.083L-1.611,-3.076L-1.626,-3.041L-1.619,-2.992L-1.598,-2.97L-1.535,-2.957L-1.5,-2.641L-1.507,-2.074L-1.535,-2.052L-1.549,-2.018L-1.5,-1.948L-1.507,-1.899L-1.562,-1.849L-1.584,-1.814L-1.569,-1.633L-1.584,-1.471L-1.507,-1.219L-1.374,-1.086L-1.275,-1.016L-1.227,-0.995L-1.044,-0.96L-0.778,-0.981L-0.575,-1.023L-0.483,-1.016L-0.309,-0.966L-0.273,-0.946L-0.154,-0.827L-0.077,-0.673L-0.077,-0.518L-0.119,-0.379L-0.231,-0.231L-0.315,-0.154L-0.372,-0.126L-0.372,-0.084L-0.357,-0.05L-0.399,-0.008L-0.603,0.007L-0.687,-0.07L-0.799,-0.077L-0.862,-0.112L-1.17,-0.14L-1.752,-0.07L-2.032,-0.063L-2.187,-0.091L-2.249,-0.07L-2.677,-0.07L-3.111,-0.042L-3.56,-0.07L-3.602,-0.105L-3.699,-0.105L-3.77,-0.154L-3.833,-0.175L-3.882,-0.211L-4.021,-0.414L-4.036,-0.511L-4.029,-0.673L-4.015,-0.736L-3.979,-0.792L-3.805,-0.869L-3.454,-0.883L-3.3,-0.834L-3.125,-0.841L-2.908,-0.904L-2.796,-0.96L-2.586,-1.008L-2.571,-1.023L-2.571,-1.142L-2.544,-1.226L-2.544,-1.842L-2.564,-2.299L-2.544,-2.536L-2.544,-2.858L-2.606,-3.293L-2.635,-3.72L-2.621,-3.895L-2.593,-4.063L-2.571,-4.127L-2.564,-4.105L-2.551,-4.113L-2.536,-4.049L-2.522,-4.036L-2.502,-4.049L-2.502,-4.113L-2.571,-4.14L-2.564,-4.217L-2.536,-4.253L-2.522,-4.253L-2.46,-4.308L-2.46,-4.365L-2.551,-4.456L-2.571,-4.778L-2.558,-4.82L-2.551,-4.806L-2.502,-4.82L-2.487,-4.835L-2.502,-4.932L-2.494,-5.016L-2.558,-5.023L-2.564,-5.009L-2.571,-5.374L-2.544,-5.513L-2.558,-5.892L-2.586,-5.963L-2.6,-5.969L-2.655,-5.948L-2.684,-5.969L-2.69,-6.095L-2.782,-6.137L-2.838,-6.215L-3.385,-6.228L-3.65,-6.27L-3.756,-6.327L-3.756,-6.341L-3.812,-6.411L-3.875,-6.544L-3.889,-6.726L-3.91,-6.768L-3.902,-6.845L-3.868,-6.873L-3.763,-6.915L-3.749,-6.95L-3.679,-7.007L-3.602,-7.034L-3.097,-7.097L-2.768,-7.091L-2.613,-7.062L-2.551,-7.034L-1.962,-7.027L-1.808,-6.965L-1.752,-6.894L-1.696,-6.733L-1.688,-6.634L-1.73,-6.277L-1.696,-6.221L-1.646,-6.228L-1.408,-6.495L-1.346,-6.592L-1.128,-6.803L-1.037,-6.859L-0.953,-6.95L-0.855,-6.985L-0.75,-7.049L-0.68,-7.111L-0.525,-7.195L-0.483,-7.195L-0.393,-7.23L-0.364,-7.223L-0.315,-7.16L-0.26,-7.188L-0.238,-7.23L-0.211,-7.244L0,-7.237Z" style="fill:white;fill-rule:nonzero;"/>
            </g>
            <g transform="matrix(1,0,0,1,352.002,291.4801)">
                <path d="M0,-10.684L0.252,-10.58L0.28,-10.489L0.392,-10.405L0.462,-10.412L0.561,-10.278L0.581,-10.222L0.567,-10.124L0.714,-9.928L0.791,-9.752L0.868,-9.668L0.987,-9.445L1.093,-9.311L1.128,-9.192L1.205,-9.087L1.415,-8.639L1.436,-8.505L1.429,-8.421L1.366,-8.302L1.38,-8.233L1.366,-8.205L1.324,-8.176L1.219,-8.169L1.205,-8.183L1.17,-8.282L1.078,-8.351L0.987,-8.351L0.917,-8.456L0.742,-8.604L0.714,-8.646L0.7,-8.75L0.567,-8.814L0.497,-8.891L0.476,-8.933L0.462,-9.024L0.441,-9.052L0.371,-9.045L0.014,-9.514L-0.028,-9.598L-0.176,-9.613L-0.295,-9.591L-0.406,-9.514L-0.512,-9.368L-0.567,-9.269L-0.624,-8.982L-0.645,-8.961L-0.736,-8.954L-0.792,-8.877L-1.03,-8.666L-1.072,-8.666L-1.128,-8.688L-1.185,-8.673L-1.17,-8.576L-1.185,-8.555L-1.269,-8.505L-1.492,-8.275L-1.604,-8.19L-1.675,-8.176L-1.745,-8.183L-1.822,-8.246L-1.864,-8.317L-1.871,-8.386L-1.85,-8.492L-1.752,-8.723L-1.472,-9.101L-1.437,-9.122L-1.366,-9.115L-1.353,-9.248L-1.22,-9.41L-1.072,-9.746L-0.848,-10.124L-0.778,-10.278L-0.687,-10.405L-0.617,-10.544L-0.554,-10.6L-0.218,-10.684L0,-10.684ZM-0.806,-6.453L-0.946,-6.446L-0.995,-6.417L-1.059,-6.348L-1.094,-6.333L-1.178,-6.271L-1.514,-5.878L-1.591,-5.872L-1.64,-5.766L-1.675,-5.731L-1.871,-5.395L-1.885,-5.269L-1.927,-5.073L-2.019,-4.834L-2.032,-4.66L-2.025,-4.61L-1.983,-4.554L-1.948,-4.561L-1.913,-4.61L-1.878,-4.61L-1.822,-4.554L-1.569,-4.561L-1.507,-4.631L-1.366,-4.624L-1.262,-4.589L-0.953,-4.561L-0.287,-4.61L-0.161,-4.589L-0.063,-4.589L-0.008,-4.568L0.14,-4.54L0.504,-4.526L0.756,-4.568L1.064,-4.603L1.352,-4.582L1.394,-4.589L1.422,-4.631L1.436,-4.828L1.45,-4.883L1.268,-5.528L1.268,-5.71L1.226,-5.773L1.17,-5.794L1.128,-5.83L1.148,-5.927L1.093,-6.004L1.016,-5.991L0.987,-6.011L0.903,-6.13L0.854,-6.179L0.784,-6.214L0.525,-6.425L0.371,-6.439L0.287,-6.501L0.056,-6.565L-0.126,-6.572L-0.806,-6.453ZM-0.169,-7.469L0.049,-7.434L0.434,-7.335L0.616,-7.265L0.945,-7.223L0.994,-7.203L1.093,-7.132L1.197,-7.083L1.254,-7.07L1.541,-6.825L1.653,-6.803L1.681,-6.768L1.681,-6.663L1.772,-6.572L1.814,-6.495L1.954,-6.333L1.969,-6.298L1.969,-6.201L2.038,-6.179L2.172,-5.991L2.249,-5.759L2.325,-5.64L2.382,-5.486L2.431,-4.814L2.424,-4.722L2.452,-4.491L2.473,-4.456L2.55,-4.407L2.55,-4.302L2.529,-4.126L2.494,-4.092L2.438,-4.12L2.375,-3.931L2.34,-3.923L2.283,-3.945L2.27,-3.931L2.234,-3.79L2.186,-3.735L2.018,-3.664L1.289,-3.678L1.058,-3.629L1.016,-3.629L0.917,-3.601L0.637,-3.594L0.532,-3.622L0.098,-3.664L-0.273,-3.636L-0.708,-3.636L-1.051,-3.713L-1.423,-3.713L-1.535,-3.685L-1.934,-3.643L-1.976,-3.629L-1.997,-3.594L-2.011,-3.293L-2.074,-3.23L-2.074,-3.006L-2.032,-2.817L-2.019,-2.83L-2.019,-2.852L-1.99,-2.879L-1.962,-2.872L-1.948,-2.782L-1.927,-2.74L-1.913,-2.495L-1.899,-2.473L-1.85,-2.459L-1.759,-2.263L-1.626,-2.018L-1.569,-1.885L-1.485,-1.773L-1.381,-1.59L-1.381,-1.493L-1.304,-1.415L-1.282,-1.373L-1.191,-1.261L-1.107,-1.276L-1.023,-1.184L-0.988,-1.177L-0.883,-1.115L-0.764,-1.1L-0.589,-1.002L-0.505,-0.996L-0.134,-1.1L0.245,-1.128L0.469,-1.191L0.504,-1.219L0.665,-1.289L0.749,-1.345L0.875,-1.471L0.938,-1.499L1.058,-1.577L1.282,-1.787L1.358,-1.906L1.358,-1.934L1.394,-2.032L1.422,-2.067L1.45,-2.158L1.443,-2.256L1.387,-2.298L1.366,-2.333L1.38,-2.438L1.45,-2.459L1.471,-2.375L1.492,-2.375L1.506,-2.396L1.506,-2.446L1.478,-2.459L1.464,-2.508L1.478,-2.53L1.562,-2.515L1.583,-2.537L1.716,-2.852L1.828,-2.992L1.976,-3.055L2.122,-3.04L2.15,-3.02L2.192,-2.956L2.333,-2.803L2.402,-2.656L2.431,-2.466L2.375,-2.228L2.27,-1.941L2.207,-1.843L2.137,-1.583L2.053,-1.38L2.024,-1.268L1.989,-1.199L1.856,-1.051L1.793,-1.002L1.471,-0.813L1.4,-0.743L1.254,-0.665L1.148,-0.546L0.764,-0.294L0.476,-0.274L0.245,-0.21L0.042,-0.113L-0.063,-0.049L-0.183,-0.007L-0.253,0L-0.47,-0.029L-0.666,-0.084L-0.715,-0.12L-0.834,-0.126L-1.009,-0.19L-1.107,-0.175L-1.156,-0.197L-1.191,-0.232L-1.247,-0.197L-1.282,-0.19L-1.401,-0.217L-1.416,-0.239L-1.408,-0.316L-1.437,-0.343L-1.569,-0.385L-1.913,-0.645L-2.375,-1.163L-2.452,-1.318L-2.558,-1.464L-2.613,-1.583L-2.712,-1.667L-2.732,-1.85L-2.831,-2.298L-2.838,-2.614L-2.915,-2.95L-2.922,-3.055L-2.95,-3.202L-2.943,-3.209L-2.985,-3.349L-2.999,-3.616L-2.964,-3.938L-2.964,-4.042L-3.02,-4.715L-3.013,-4.876L-2.957,-5.199L-2.9,-5.331L-2.816,-5.437L-2.789,-5.507L-2.761,-5.668L-2.571,-6.103L-2.48,-6.222L-2.487,-6.306L-2.452,-6.355L-2.313,-6.397L-2.277,-6.439L-1.983,-6.698L-1.885,-6.831L-1.78,-6.951L-1.78,-6.964L-1.73,-7.035L-1.577,-7.154L-1.542,-7.231L-1.492,-7.287L-1.423,-7.315L-1.353,-7.308L-1.079,-7.335L-0.925,-7.384L-0.638,-7.441L-0.47,-7.448L-0.379,-7.469L-0.169,-7.469Z" style="fill:white;fill-rule:nonzero;"/>
            </g>
            <g transform="matrix(1,0,0,1,360.0234,291.3331)">
                <path d="M0,-7.245L0.049,-7.23L0.252,-7.23L0.344,-7.182L0.435,-7.182L0.477,-7.161L0.561,-7.146L0.764,-7.042L0.834,-7.034L1.009,-6.978L1.177,-6.992L1.353,-6.978L1.388,-6.957L1.576,-6.768L1.611,-6.705L1.675,-6.726L1.702,-6.698L1.717,-6.635L1.675,-6.558L1.702,-6.502L1.766,-6.481L1.821,-6.495L1.94,-6.432L2.018,-6.292L1.99,-6.208L2.053,-6.186L2.06,-5.956L2.095,-5.837L2.193,-5.647L2.228,-5.486L2.228,-5.276L2.263,-5.016L2.403,-4.372L2.474,-3.966L2.474,-3.818L2.445,-3.531L2.445,-3.048L2.48,-2.761L2.466,-2.452L2.34,-1.927L2.34,-1.766L2.368,-1.43L2.382,-1.409L2.438,-1.178L2.474,-1.121L2.746,-1.002L2.865,-0.988L2.865,-1.002L2.936,-1.072L3.048,-1.072L3.244,-1.044L3.419,-0.981L3.587,-0.897L3.644,-0.925L3.721,-0.855L3.818,-0.855L3.889,-0.771L3.916,-0.764L3.966,-0.778L3.966,-0.68L4.008,-0.596L4.021,-0.379L4.008,-0.189L3.986,-0.169L3.889,-0.141L3.587,-0.169L3.44,-0.141L3.125,-0.161L2.704,-0.147L2.284,-0.218L1.934,-0.218L1.801,-0.189L1.633,-0.112L1.359,-0.021L0.463,0L0.351,-0.015L0.21,-0.127L0.225,-0.218L0.147,-0.288L0.133,-0.344L0.147,-0.484L0.161,-0.518L0.189,-0.54L0.231,-0.61L0.225,-0.701L0.302,-0.785L0.364,-0.827L0.49,-0.883L0.693,-0.891L0.932,-0.82L1.044,-0.82L1.121,-0.862L1.177,-0.939L1.219,-0.96L1.275,-0.939L1.304,-0.953L1.296,-1.072L1.359,-1.156L1.388,-1.233L1.415,-1.52L1.338,-1.556L1.331,-1.759L1.353,-1.801L1.408,-1.829L1.408,-1.955L1.366,-2.452L1.408,-2.754L1.465,-2.831L1.479,-3.062L1.45,-3.994L1.465,-4.029L1.499,-4.372L1.479,-4.687L1.373,-5.115L1.304,-5.268L1.227,-5.346L1.212,-5.493L1.058,-5.766L0.98,-5.787L0.953,-5.815L0.946,-5.921L0.862,-6.032L0.819,-6.117L0.743,-6.117L0.666,-6.151L0.554,-6.243L0.371,-6.285L0.056,-6.27L-0.287,-6.292L-0.413,-6.312L-0.623,-6.312L-0.771,-6.257L-0.777,-6.236L-0.841,-6.193L-0.911,-6.215L-0.987,-6.18L-0.987,-6.166L-1.093,-6.067L-1.135,-5.941L-1.408,-5.738L-1.527,-5.634L-1.583,-5.542L-1.618,-5.381L-1.688,-5.262L-1.737,-5.087L-1.751,-4.932L-1.772,-4.87L-1.912,-4.597L-1.969,-4.429L-1.989,-3.482L-2.039,-3.118L-2.053,-2.809L-1.962,-2.025L-1.997,-1.752L-1.989,-1.339L-1.962,-1.268L-1.954,-1.121L-1.92,-1.094L-1.885,-1.086L-1.808,-1.044L-1.793,-0.953L-1.772,-0.911L-1.688,-0.876L-1.611,-0.862L-1.205,-0.946L-0.98,-0.911L-0.764,-0.743L-0.722,-0.68L-0.707,-0.589L-0.715,-0.399L-0.792,-0.288L-0.938,-0.154L-1.03,-0.112L-1.268,-0.092L-1.408,-0.105L-1.779,-0.183L-2.018,-0.183L-2.529,-0.063L-2.774,-0.07L-2.81,-0.085L-3.258,-0.085L-3.58,-0.008L-3.896,-0.015L-4.147,-0.085L-4.295,-0.211L-4.295,-0.33L-4.379,-0.344L-4.399,-0.399L-4.393,-0.61L-4.351,-0.61L-4.337,-0.575L-4.344,-0.498L-4.315,-0.498L-4.309,-0.61L-4.238,-0.764L-4.211,-0.785L-4.189,-0.771L-4.141,-0.778L-4.063,-0.855L-3.986,-0.862L-3.951,-0.876L-3.251,-0.891L-3.132,-0.918L-3.083,-1.002L-2.971,-1.052L-2.929,-1.156L-2.929,-2.06L-2.879,-2.096L-2.865,-2.123L-2.879,-2.158L-2.929,-2.207L-2.922,-2.348L-2.942,-2.943L-2.984,-3.146L-3.006,-3.391L-2.998,-3.608L-2.936,-4.008L-2.936,-4.316L-2.964,-4.946L-2.914,-5.332L-2.922,-5.381L-2.9,-5.549L-2.949,-5.914L-2.998,-5.998L-3.132,-6.124L-3.194,-6.159L-3.216,-6.208L-3.209,-6.278L-3.265,-6.334L-3.468,-6.264L-3.881,-6.228L-3.931,-6.236L-3.986,-6.278L-4.084,-6.278L-4.169,-6.354L-4.267,-6.495L-4.273,-6.74L-4.147,-6.943L-4.147,-6.957L-4.057,-7.049L-3.812,-7.126L-3.671,-7.133L-3.013,-7.007L-2.894,-7.014L-2.83,-6.992L-2.585,-6.985L-2.473,-7L-2.438,-7.056L-2.396,-7.056L-2.34,-6.992L-2.192,-6.972L-2.15,-6.936L-2.081,-6.81L-2.053,-6.72L-2.053,-6.348L-2.081,-6.201L-2.073,-6.124L-2.053,-6.096L-2.011,-6.082L-1.94,-6.117L-1.828,-6.222L-1.814,-6.222L-1.709,-6.306L-1.66,-6.376L-1.576,-6.439L-1.457,-6.593L-1.401,-6.628L-1.219,-6.852L-1.121,-6.901L-1.051,-6.957L-1.016,-6.957L-0.938,-7.042L-0.911,-7.056L-0.455,-7.098L-0.336,-7.133L-0.252,-7.14L-0.21,-7.161L-0.133,-7.245L0,-7.245Z" style="fill:white;fill-rule:nonzero;"/>
            </g>
            <g transform="matrix(1,0,0,1,368.6055,291.473)">
                <path d="M0,-7.588L0.043,-7.56L0.043,-7.496L0.063,-7.469L0.141,-7.447L0.204,-7.454L0.441,-7.412L0.624,-7.357L0.771,-7.335L0.904,-7.301L0.981,-7.244L1.233,-7.216L1.324,-7.174L1.409,-7.111L1.556,-7.041L1.717,-6.894L1.745,-6.887L1.878,-6.733L1.977,-6.705L1.99,-6.655L1.99,-6.586L1.962,-6.586L1.941,-6.565L1.969,-6.558L2.011,-6.579L2.039,-6.565L2.081,-6.46L2.284,-6.116L2.418,-5.626L2.41,-5.521L2.368,-5.401L2.361,-5.275L2.299,-5.101L2.222,-4.799L2.18,-4.701L2.103,-4.694L2.074,-4.659L2.074,-4.477L2.019,-4.428L1.78,-4.288L1.604,-4.26L1.317,-4.246L1.282,-4.253L1.233,-4.316L0.96,-4.322L0.904,-4.379L0.827,-4.372L0.799,-4.393L0.722,-4.505L0.701,-4.688L0.729,-4.933L0.743,-4.94L0.807,-5.114L0.925,-5.275L0.96,-5.408L1.171,-5.542L1.22,-5.598L1.269,-5.717L1.262,-5.836L1.22,-5.969L1.143,-6.096L1.129,-6.096L1.002,-6.235L0.764,-6.418L0.47,-6.529L0.196,-6.565L-0.294,-6.523L-0.735,-6.46L-0.784,-6.439L-0.784,-6.425L-0.806,-6.425L-0.896,-6.326L-1.058,-6.193L-1.093,-6.081L-1.12,-6.061L-1.197,-6.032L-1.239,-5.99L-1.358,-5.913L-1.541,-5.738L-1.555,-5.661L-1.576,-5.612L-1.625,-5.584L-1.639,-5.549L-1.639,-5.472L-1.653,-5.443L-1.744,-5.401L-1.807,-5.121L-1.842,-5.03L-1.961,-4.807L-2.024,-4.505L-2.018,-4.204L-1.961,-3.86L-1.934,-3.573L-1.919,-3.216L-1.87,-2.761L-1.814,-2.592L-1.758,-2.523L-1.758,-2.474L-1.793,-2.439L-1.772,-2.389L-1.709,-2.326L-1.687,-2.088L-1.646,-2.088L-1.618,-2.102L-1.597,-2.095L-1.506,-1.941L-1.484,-1.871L-1.457,-1.828L-1.415,-1.808L-1.365,-1.759L-1.316,-1.653L-1.274,-1.618L-1.247,-1.576L-1.254,-1.492L-1.022,-1.24L-1.016,-1.205L-0.959,-1.135L-0.974,-1.065L-0.959,-1.051L-0.917,-1.065L-0.861,-1.037L-0.777,-0.967L-0.707,-0.96L-0.707,-0.974L-0.679,-0.995L-0.623,-0.988L-0.553,-0.953L-0.356,-0.932L-0.21,-0.946L-0.118,-1.009L-0.021,-1.016L0.035,-1.079L0.372,-1.114L0.449,-1.142L0.456,-1.17L0.435,-1.212L0.441,-1.234L0.498,-1.269L0.666,-1.296L0.764,-1.276L1.22,-1.695L1.29,-1.786L1.317,-1.871L1.395,-1.962L1.43,-2.095L1.514,-2.305L1.549,-2.487L1.591,-2.565L1.612,-2.571L1.682,-2.684L1.668,-2.761L1.682,-2.788L1.787,-2.88L1.836,-2.964L1.822,-3.026L1.829,-3.055L1.99,-3.209L2.061,-3.202L2.165,-3.132L2.277,-3.118L2.39,-3.013L2.46,-2.914L2.516,-2.726L2.516,-2.558L2.502,-2.439L2.438,-2.172L2.306,-1.773L2.257,-1.485L2.215,-1.422L2.123,-1.219L2.004,-1.108L1.948,-1.086L1.64,-0.869L1.507,-0.735L1.401,-0.673L1.297,-0.547L1.213,-0.47L1.121,-0.442L0.757,-0.274L0.61,-0.259L0.449,-0.196L0.379,-0.148L0.204,-0.148L0.119,-0.022L-0.111,0L-0.343,-0.022L-0.525,-0.077L-0.623,-0.084L-0.763,-0.14L-1.1,-0.196L-1.464,-0.378L-1.667,-0.532L-1.73,-0.603L-1.842,-0.673L-1.849,-0.693L-1.919,-0.75L-1.934,-0.869L-2.018,-0.861L-2.045,-0.883L-2.073,-0.932L-2.256,-1.135L-2.354,-1.311L-2.438,-1.415L-2.459,-1.583L-2.473,-1.605L-2.557,-1.647L-2.647,-1.737L-2.676,-1.779L-2.669,-1.815L-2.689,-2.032L-2.725,-2.067L-2.76,-2.137L-2.767,-2.607L-2.816,-2.803L-2.907,-3.342L-2.907,-3.713L-2.879,-4.05L-2.907,-4.688L-2.886,-5.094L-2.809,-5.388L-2.773,-5.43L-2.689,-5.577L-2.634,-5.766L-2.641,-5.85L-2.627,-5.878L-2.466,-5.997L-2.459,-6.081L-2.473,-6.088L-2.479,-6.123L-2.459,-6.165L-2.389,-6.229L-2.27,-6.383L-2.115,-6.537L-1.87,-6.726L-1.751,-6.866L-1.751,-6.922L-1.737,-6.908L-1.695,-6.908L-1.674,-6.929L-1.66,-7.021L-1.625,-7.069L-1.583,-7.063L-1.548,-6.971L-1.513,-6.979L-1.471,-7.111L-1.38,-7.231L-1.261,-7.321L-1.071,-7.343L-0.84,-7.412L-0.364,-7.434L-0.126,-7.476L-0.126,-7.573L-0.104,-7.588L0,-7.588Z" style="fill:white;fill-rule:nonzero;"/>
            </g>
            <g transform="matrix(1,0,0,1,374.4346,291.2627)">
                <path d="M0,-9.283L0.057,-9.269L0.218,-9.192L0.302,-9.122L0.372,-9.08L0.435,-8.989L0.491,-8.855L0.54,-8.429L0.491,-8.162L0.47,-8.134L0.449,-8.127L0.421,-8.071L0.456,-8.015L0.463,-7.98L0.449,-7.952L0.351,-7.924L0.267,-7.811L0.238,-7.714L0.105,-7.608L-0.042,-7.581L-0.084,-7.497L-0.133,-7.504L-0.182,-7.608L-0.336,-7.685L-0.364,-7.721L-0.49,-7.811L-0.539,-7.861L-0.553,-7.924L-0.532,-7.972L-0.532,-8.015L-0.616,-8.169L-0.623,-8.351L-0.637,-8.387L-0.693,-8.414L-0.707,-8.456L-0.7,-8.506L-0.658,-8.617L-0.574,-8.625L-0.546,-8.645L-0.525,-8.694L-0.546,-8.877L-0.532,-8.905L-0.308,-9.122L-0.084,-9.269L-0.014,-9.276L0,-9.283ZM-1.442,-7.083L-1.064,-7.027L-0.378,-7.048L0.399,-6.964L0.477,-6.894L0.568,-6.712L0.624,-6.502L0.631,-6.389L0.659,-6.299L0.638,-5.801L0.659,-5.675L0.645,-5.605L0.603,-5.542L0.631,-4.631L0.652,-4.603L0.701,-4.582L0.708,-4.484L0.68,-4.386L0.652,-4.392L0.652,-4.414L0.61,-4.449L0.561,-4.211L0.554,-3.727L0.603,-3.363L0.603,-2.908L0.568,-2.515L0.631,-1.969L0.687,-1.723L0.687,-1.534L0.708,-1.212L0.729,-1.178L0.827,-1.079L1.086,-0.96L1.247,-0.911L1.556,-0.889L1.661,-0.869L1.696,-0.847L1.836,-0.805L1.899,-0.763L1.955,-0.708L2.019,-0.602L2.032,-0.456L2.011,-0.315L1.962,-0.224L1.759,-0.084L1.591,-0.084L1.45,-0.134L1.114,-0.203L0.477,-0.203L0.218,-0.231L0.077,-0.224L-0.146,-0.182L-0.441,-0.049L-0.623,0L-1.436,-0.007L-1.688,-0.119L-1.73,-0.168L-1.8,-0.322L-1.87,-0.357L-1.892,-0.428L-1.877,-0.609L-1.85,-0.666L-1.8,-0.666L-1.772,-0.651L-1.765,-0.673L-1.66,-0.792L-1.618,-0.799L-1.422,-0.883L-1.232,-0.883L-1.016,-0.834L-0.938,-0.841L-0.819,-0.876L-0.679,-0.946L-0.595,-1.015L-0.427,-1.22L-0.392,-1.339L-0.392,-1.457L-0.364,-1.745L-0.314,-1.962L-0.314,-2.382L-0.378,-2.796L-0.378,-3.314L-0.35,-3.573L-0.35,-3.979L-0.364,-4.014L-0.364,-4.169L-0.385,-4.295L-0.385,-4.645L-0.314,-4.764L-0.329,-5.675L-0.35,-5.801L-0.427,-5.787L-0.469,-5.836L-0.49,-5.899L-0.603,-6.025L-0.812,-6.054L-0.98,-6.123L-1.366,-6.151L-1.562,-6.208L-1.604,-6.312L-1.667,-6.334L-1.681,-6.361L-1.66,-6.445L-1.674,-6.48L-1.73,-6.509L-1.779,-6.656L-1.765,-6.81L-1.716,-7.013L-1.674,-7.048L-1.457,-7.076L-1.442,-7.083Z" style="fill:white;fill-rule:nonzero;"/>
            </g>
            <g transform="matrix(1,0,0,1,381.2803,287.7805)">
                <path d="M0,-0.21L-0.099,-0.161L-0.169,-0.091L-0.183,-0.063L-0.26,0.007L-0.393,0.07L-0.813,0.105L-1.044,0.147L-1.45,0.245L-1.535,0.28L-1.64,0.287L-1.703,0.309L-1.864,0.337L-2.151,0.344L-2.2,0.364L-2.333,0.393L-2.494,0.567L-2.635,0.589L-2.648,0.659L-2.697,0.757L-2.803,0.876L-2.858,0.981L-2.88,1.086L-2.894,1.45L-2.929,1.492L-2.929,1.64L-2.908,1.66L-2.887,1.64L-2.873,1.598L-2.845,1.604L-2.824,1.64L-2.796,1.982L-2.628,2.277L-2.522,2.41L-2.319,2.536L-2.299,2.564L-2.207,2.635L-1.983,2.69L-1.794,2.684L-0.673,2.326L-0.477,2.165L-0.357,2.102L-0.225,1.99L-0.105,1.92L-0.05,1.856L0.091,1.633L0.111,1.388L0.175,1.17L0.23,0.799L0.23,0.525L0.175,-0.112L0.119,-0.203L0.042,-0.217L0,-0.21ZM-1.5,-3.832L-1.079,-3.797L-0.82,-3.755L-0.344,-3.776L-0.183,-3.755L0.042,-3.685L0.322,-3.523L0.378,-3.475L0.49,-3.439L0.539,-3.342L0.651,-3.194L0.749,-3.152L0.749,-3.139L0.764,-3.132L0.771,-2.991L0.841,-2.845L0.896,-2.795L1.071,-2.221L1.078,-2.108L1.128,-2.031L1.148,-1.912L1.142,-1.647L1.106,-1.401L1.106,-1.17L1.17,-1.156L1.197,-1.114L1.197,-0.967L1.184,-0.925L1.113,-0.903L1.106,-0.806L1.128,-0.477L1.106,-0.105L1.058,0.218L1.058,0.344L1.128,0.827L1.142,1.093L1.135,1.359L1.12,1.465L1.12,1.962L1.064,2.032L1.093,2.284L1.106,2.284L1.106,2.263L1.113,2.27L1.148,2.214L1.184,2.249L1.232,2.452L1.345,2.585L1.4,2.628L1.583,2.67L1.702,2.655L1.772,2.62L1.828,2.536L1.828,2.509L1.87,2.417L1.898,2.263L1.961,1.73L1.961,1.633L1.905,1.051L1.912,0.834L1.927,0.82L1.961,0.686L2.024,0.609L2.15,0.574L2.424,0.631L2.452,0.666L2.55,0.735L2.557,0.827L2.543,0.883L2.557,0.896L2.585,1.023L2.55,1.135L2.578,1.233L2.613,1.724L2.641,1.864L2.641,2.158L2.592,2.459L2.55,2.613L2.521,2.971L2.438,3.209L2.389,3.293L2.318,3.363L2.256,3.398L2.206,3.447L2.157,3.44L2.108,3.384L2.031,3.405L1.639,3.426L1.569,3.545L1.45,3.573L1.268,3.566L1.093,3.518L0.91,3.44L0.861,3.398L0.764,3.392L0.693,3.342L0.651,3.293L0.637,3.216L0.616,3.167L0.497,3.006L0.469,2.628L0.441,2.585L0.364,2.6L0.294,2.571L0.21,2.571L0.153,2.593L0.042,2.704L-0.035,2.746L-0.084,2.845L-0.169,2.845L-0.218,2.957L-0.428,3.153L-0.61,3.195L-0.68,3.244L-1.156,3.461L-1.366,3.58L-1.437,3.58L-1.577,3.622L-1.801,3.615L-1.85,3.595L-2.025,3.58L-2.088,3.553L-2.6,3.468L-2.81,3.419L-2.887,3.37L-2.971,3.293L-3.076,3.237L-3.174,3.16L-3.23,3.174L-3.377,3.048L-3.385,2.942L-3.588,2.677L-3.65,2.529L-3.756,2.375L-3.812,2.193L-3.875,1.856L-3.699,0.939L-3.692,0.617L-3.657,0.519L-3.602,0.435L-3.602,0.393L-3.63,0.337L-3.63,0.295L-3.602,0.238L-3.546,0.189L-3.489,0.099L-3.405,0.112L-3.35,0.042L-3.35,-0.063L-3.314,-0.098L-3.237,-0.133L-3.16,-0.126L-3.027,-0.224L-2.922,-0.203L-2.887,-0.224L-2.908,-0.322L-2.754,-0.435L-2.403,-0.519L-1.906,-0.554L-1.857,-0.638L-1.829,-0.651L-1.485,-0.673L-1.198,-0.749L-0.883,-0.757L-0.813,-0.771L-0.75,-0.868L-0.722,-0.89L-0.645,-0.883L-0.47,-0.995L-0.393,-1.009L-0.33,-1.058L-0.273,-1.19L-0.154,-1.275L-0.021,-1.303L-0.021,-1.415L0.042,-1.401L0.056,-1.408L0.104,-1.527L0.098,-1.576L0.133,-1.814L0.126,-2.298L-0.021,-2.523L-0.07,-2.578L-0.169,-2.648L-0.176,-2.684L-0.154,-2.732L-0.169,-2.76L-0.189,-2.76L-0.225,-2.732L-0.28,-2.739L-0.357,-2.788L-0.406,-2.795L-0.498,-2.894L-0.561,-2.914L-0.666,-2.914L-0.862,-2.978L-1.072,-3.006L-1.353,-2.978L-1.549,-2.929L-1.514,-2.852L-1.556,-2.823L-1.738,-2.788L-1.78,-2.802L-1.822,-2.852L-1.864,-2.852L-1.913,-2.83L-2.109,-2.795L-2.271,-2.634L-2.313,-2.536L-2.313,-2.382L-2.18,-2.115L-2.187,-2.073L-2.158,-1.87L-2.193,-1.541L-2.242,-1.437L-2.368,-1.268L-2.46,-1.198L-2.732,-1.156L-2.901,-1.177L-3.23,-1.268L-3.419,-1.499L-3.447,-1.647L-3.44,-1.702L-3.398,-1.737L-3.412,-1.793L-3.469,-1.779L-3.482,-1.892L-3.518,-2.039L-3.518,-2.179L-3.482,-2.361L-3.434,-2.473L-3.434,-2.592L-3.419,-2.613L-3.342,-2.655L-3.167,-2.852L-2.915,-3.23L-2.915,-3.251L-2.838,-3.32L-2.782,-3.419L-2.467,-3.615L-2.39,-3.552L-2.145,-3.559L-2.081,-3.573L-2.074,-3.587L-2.095,-3.65L-2.081,-3.685L-2.053,-3.699L-1.864,-3.727L-1.73,-3.79L-1.521,-3.825L-1.5,-3.832Z" style="fill:white;fill-rule:nonzero;"/>
            </g>
            <g transform="matrix(1,0,0,1,256.3584,235.1275)">
                <path d="M0,32.029L0,38.434C-2.335,38.434 -4.522,37.809 -6.406,36.717C-10.236,34.504 -12.812,30.363 -12.812,25.624L-12.812,-6.405L-6.406,-6.405L-6.406,25.624C-6.406,29.162 -3.539,32.029 0,32.029" style="fill:white;fill-rule:nonzero;"/>
            </g>
            <g transform="matrix(1,0,0,1,196.1826,258.0708)">
                <path d="M0,-20.262C-0.524,-21.301 -0.812,-22.446 -0.615,-23.775C-0.146,-26.932 2.553,-29.356 5.744,-29.348C9.275,-29.339 12.134,-26.475 12.134,-22.942L18.539,-22.942C18.539,-30.017 12.803,-35.753 5.729,-35.753C-1.346,-35.753 -7.083,-30.017 -7.083,-22.942C-7.083,-20.821 -6.463,-18.935 -5.527,-17.195C-4.565,-15.405 -3.258,-13.822 -1.736,-12.474L9.39,-2.619C10.212,-1.891 10.922,-1.036 11.429,-0.061C11.866,0.78 12.138,1.67 12.134,2.701C12.122,6.064 9.437,8.898 6.078,9.076C2.381,9.272 -0.678,6.335 -0.678,2.68L-7.083,2.68C-7.083,9.755 -1.346,15.491 5.729,15.491C12.803,15.491 18.539,9.755 18.539,2.68C18.539,0.558 17.921,-1.324 16.987,-3.063C16.023,-4.857 14.714,-6.442 13.189,-7.791L2.054,-17.655C1.219,-18.394 0.501,-19.266 0,-20.262" style="fill:white;fill-rule:nonzero;"/>
            </g>
            <g transform="matrix(1,0,0,1,233.9385,273.5621)">
                <path d="M0,-38.433L0,-11.21C0,-9.883 -0.538,-8.681 -1.406,-7.813C-2.275,-6.944 -3.477,-6.406 -4.804,-6.406C-6.131,-6.406 -7.333,-6.944 -8.201,-7.813C-9.07,-8.681 -9.608,-9.883 -9.608,-11.21L-9.608,-38.433L-16.014,-38.433L-16.014,-11.21C-16.014,-10.666 -15.976,-10.131 -15.901,-9.609C-15.548,-7.154 -14.402,-4.955 -12.729,-3.285C-10.702,-1.256 -7.899,0 -4.804,0C-1.709,0 1.094,-1.256 3.121,-3.285C4.794,-4.955 5.939,-7.154 6.293,-9.609C6.367,-10.131 6.405,-10.666 6.405,-11.21L6.405,-38.433L0,-38.433Z" style="fill:white;fill-rule:nonzero;"/>
            </g>
            <g transform="matrix(1,0,0,1,301.7285,246.3458)">
                <path d="M0,16.006C0,18.661 -2.15,20.811 -4.805,20.811C-7.459,20.811 -9.608,18.661 -9.608,16.006L-9.608,0C-9.608,-2.654 -7.459,-4.804 -4.805,-4.804C-3.478,-4.804 -2.275,-4.265 -1.407,-3.397C-0.538,-2.528 0,-1.327 0,0L0,16.006ZM3.12,-7.925C1.094,-9.954 -1.709,-11.21 -4.805,-11.21C-10.995,-11.21 -16.015,-6.19 -16.015,0L-16.015,16.006C-16.015,22.196 -10.995,27.216 -4.805,27.216C1.386,27.216 6.405,22.196 6.405,16.006L6.405,0C6.405,-3.095 5.149,-5.898 3.12,-7.925" style="fill:white;fill-rule:nonzero;"/>
            </g>
            <g transform="matrix(1,0,0,1,327.3506,246.3458)">
                <path d="M0,16.006C0,18.661 -2.15,20.811 -4.805,20.811C-7.459,20.811 -9.608,18.661 -9.608,16.006L-9.608,0C-9.608,-2.654 -7.459,-4.804 -4.805,-4.804C-3.478,-4.804 -2.275,-4.265 -1.407,-3.397C-0.538,-2.528 0,-1.327 0,0L0,16.006ZM3.12,-7.925C1.094,-9.954 -1.709,-11.21 -4.805,-11.21C-10.995,-11.21 -16.015,-6.19 -16.015,0L-16.015,16.006C-16.015,22.196 -10.995,27.216 -4.805,27.216C1.386,27.216 6.405,22.196 6.405,16.006L6.405,0C6.405,-3.095 5.149,-5.898 3.12,-7.925" style="fill:white;fill-rule:nonzero;"/>
            </g>
            <g transform="matrix(1,0,0,1,352.9727,239.9408)">
                <path d="M0,22.411C0,25.066 -2.15,27.216 -4.805,27.216C-7.459,27.216 -9.608,25.066 -9.608,22.411L-9.608,6.405C-9.608,3.751 -7.459,1.601 -4.805,1.601C-3.478,1.601 -2.275,2.14 -1.407,3.008C-0.538,3.877 0,5.078 0,6.405L0,22.411ZM0,-11.21L0,-3.723C-1.456,-4.417 -3.085,-4.805 -4.805,-4.805C-10.995,-4.805 -16.014,0.215 -16.014,6.405L-16.014,22.411C-16.014,28.601 -10.995,33.621 -4.805,33.621C1.386,33.621 6.405,28.601 6.405,22.411L6.405,-11.21L0,-11.21Z" style="fill:white;fill-rule:nonzero;"/>
            </g>
            <g transform="matrix(1,0,0,1,384.999,246.221)">
                <path d="M0,16.289C-0.002,16.434 -0.007,16.578 -0.015,16.725C-0.311,22.474 -5.025,27.118 -10.778,27.333C-17.165,27.571 -22.418,22.464 -22.418,16.131L-16.013,16.131C-16.013,18.965 -13.563,21.224 -10.664,20.905C-8.44,20.661 -6.652,18.852 -6.43,16.627C-6.421,16.538 -6.414,16.448 -6.41,16.36C-6.325,14.537 -7.463,12.877 -9.15,12.184L-16.142,9.312C-19.922,7.76 -22.474,4.087 -22.417,0.001C-22.415,-0.144 -22.41,-0.289 -22.403,-0.435C-22.106,-6.185 -17.392,-10.828 -11.639,-11.043C-5.253,-11.282 0.001,-6.175 0.001,0.158L-6.404,0.158C-6.404,-2.676 -8.854,-4.935 -11.754,-4.615C-13.978,-4.371 -15.765,-2.564 -15.988,-0.338C-15.997,-0.248 -16.004,-0.159 -16.008,-0.07C-16.092,1.752 -14.955,3.413 -13.267,4.106L-6.275,6.977C-2.496,8.53 0.056,12.203 0,16.289" style="fill:white;fill-rule:nonzero;"/>
            </g>
            <g transform="matrix(1,0,0,1,269.7002,251.1477)">
                <path d="M0,-6.416L10.854,-6.416L10.854,-0.011L0,-0.011L0,22.414L-6.405,22.414L-6.405,-22.425C-6.405,-25.963 -3.538,-28.83 0,-28.83L16.014,-28.83L16.014,-22.425L0,-22.425L0,-6.416Z" style="fill:white;fill-rule:nonzero;"/>
            </g>
            <g transform="matrix(1,0,0,1,378.5801,219.7209)">
                <path d="M0,-0.498L0.599,-0.498C1.298,-0.498 1.863,-0.73 1.863,-1.297C1.863,-1.795 1.497,-2.128 0.698,-2.128C0.366,-2.128 0.134,-2.095 0,-2.061L0,-0.498ZM-0.033,2.563L-1.297,2.563L-1.297,-2.859C-0.798,-2.96 -0.1,-3.06 0.799,-3.06C1.83,-3.06 2.295,-2.893 2.694,-2.627C2.994,-2.394 3.227,-1.962 3.227,-1.463C3.227,-0.831 2.761,-0.365 2.096,-0.165L2.096,-0.099C2.628,0.067 2.928,0.5 3.094,1.231C3.26,2.064 3.359,2.396 3.493,2.563L2.129,2.563C1.963,2.362 1.863,1.897 1.696,1.265C1.597,0.666 1.264,0.4 0.565,0.4L-0.033,0.4L-0.033,2.563ZM0.799,-4.623C-1.597,-4.623 -3.393,-2.66 -3.393,-0.266C-3.393,2.163 -1.597,4.093 0.865,4.093C3.26,4.126 5.022,2.163 5.022,-0.266C5.022,-2.66 3.26,-4.623 0.832,-4.623L0.799,-4.623ZM0.865,-5.721C3.992,-5.721 6.42,-3.292 6.42,-0.266C6.42,2.828 3.992,5.223 0.832,5.223C-2.295,5.223 -4.79,2.828 -4.79,-0.266C-4.79,-3.292 -2.295,-5.721 0.832,-5.721L0.865,-5.721Z" style="fill:white;fill-rule:nonzero;"/>
            </g>
        </g>
    </g>
</svg>
