<?xml version="1.0" encoding="UTF-8" standalone="no"?>
<!DOCTYPE svg PUBLIC "-//W3C//DTD SVG 1.1//EN" "http://www.w3.org/Graphics/SVG/1.1/DTD/svg11.dtd">
<svg width="100%" height="100%" viewBox="0 0 1977 893" version="1.1" xmlns="http://www.w3.org/2000/svg" xmlns:xlink="http://www.w3.org/1999/xlink" xml:space="preserve" xmlns:serif="http://www.serif.com/" style="fill-rule:evenodd;clip-rule:evenodd;stroke-linejoin:round;stroke-miterlimit:2;">
    <g transform="matrix(1,0,0,1,-1675.19625,-1396.187917)">
        <g transform="matrix(4.166667,0,0,4.166667,0,0)">
            <g transform="matrix(1,0,0,1,0,3.5909)">
                <path d="M557.481,523.474L557.481,404.9C557.481,388.491 545.371,371.077 530.567,366.209L428.962,332.774C426.321,331.904 423.765,331.494 421.353,331.494C410.223,331.494 402.047,340.272 402.047,353.751L402.047,472.33C402.047,488.744 414.158,506.152 428.962,511.025L530.567,544.451C545.371,549.324 557.481,539.887 557.481,523.474ZM420.467,387.746C424.673,386.408 429.299,385.721 434.352,385.721C447.289,385.721 457.993,390.72 466.462,400.707C474.957,410.701 479.187,423.377 479.187,438.736C479.187,455.28 474.976,468.609 466.593,478.76C458.176,488.912 447.236,493.989 433.723,493.989C429.827,493.989 425.409,493.171 420.467,491.591L420.467,467.166C424.887,468.714 428.748,469.479 432.032,469.479C438.766,469.479 444.127,466.795 448.178,461.429C452.211,456.068 454.208,448.758 454.208,439.499C454.208,430.923 452.211,423.88 448.212,418.33C444.21,412.78 439.162,409.995 433.114,409.995C429.146,409.995 424.929,410.754 420.467,412.223L420.467,387.746ZM496.422,480.115C488.039,469.961 483.833,456.628 483.833,440.089C483.833,424.731 488.064,412.055 496.552,402.062C505.027,392.073 515.726,387.07 528.667,387.07C533.714,387.07 538.341,387.756 542.552,389.101L542.552,413.578C538.08,412.107 533.874,411.349 529.9,411.349C523.853,411.349 518.806,414.128 514.807,419.684C510.81,425.228 508.813,432.277 508.813,440.848C508.813,450.111 510.81,457.42 514.831,462.783C518.882,468.148 524.249,470.827 530.979,470.827C534.271,470.827 538.134,470.068 542.552,468.517L542.552,492.944C537.612,494.526 533.188,495.338 529.296,495.338C515.778,495.338 504.838,490.266 496.422,480.115ZM419.138,445.804L419.138,432.04C419.138,429.604 421.134,427.612 423.576,427.612C426.017,427.612 428.01,429.604 428.01,432.04L428.01,445.804C428.01,448.241 426.017,450.243 423.576,450.243C421.134,450.243 419.138,448.241 419.138,445.804" style="fill:white;"/>
            </g>
            <g transform="matrix(1,0,0,1,0,2.6558)">
                <path d="M808.656,385.321L786.379,385.321L786.379,431.239C781.254,424.22 775.627,420.695 769.497,420.695C762.787,420.695 757.377,424.113 753.243,430.925C750.139,436.097 748.211,442.599 747.457,450.419C747.8,453.153 747.968,456.064 747.968,459.139C747.968,461.915 747.819,464.539 747.518,467.019C748.306,474.585 750.182,480.894 753.137,485.941C757.169,492.825 762.482,496.273 769.052,496.273C775.313,496.273 780.934,492.356 785.909,484.573L786.219,484.573L786.219,493.879L808.656,493.879L808.656,385.321ZM771.546,471.737C770,468.716 769.207,464.481 769.207,458.979C769.207,446.599 772.102,440.416 777.914,440.416C783.57,440.416 786.379,446.226 786.379,457.906C786.379,463.741 785.643,468.266 784.145,471.453C782.646,474.658 780.626,476.239 778.073,476.239C775.279,476.239 773.133,474.734 771.546,471.737ZM578.873,391.032L578.873,493.879L602.229,493.879L602.229,453.197L623.24,453.197L623.24,431.868L602.229,431.868L602.229,413.066L626.101,413.066L626.101,391.032L578.873,391.032ZM820.216,427.164C815.507,431.583 813.167,437.21 813.167,444.016C813.167,448.808 814.327,452.801 816.691,456.01C819.054,459.221 822.923,462.006 828.264,464.375C834.94,467.295 838.785,469.108 839.804,469.765C840.829,470.424 841.361,471.477 841.361,472.923C841.361,474.261 840.727,475.392 839.49,476.341C838.276,477.312 836.724,477.785 834.887,477.785C831.494,477.785 825.972,475.522 818.32,471.003L810.613,487.571C819.843,493.275 828.525,496.118 836.652,496.118C844.145,496.118 850.325,493.802 855.135,489.171C859.973,484.549 862.395,478.651 862.395,471.453C862.395,466.425 860.844,462.272 857.794,458.979C854.743,455.697 849.85,452.858 843.12,450.513C839.519,449.223 837.045,448.045 835.68,446.995C834.332,445.941 833.655,444.703 833.655,443.258C833.655,440.285 835.492,438.786 839.2,438.786C843.459,438.786 848.932,440.837 855.613,444.964L864.238,429.006C853.955,423.35 845.282,420.537 838.199,420.537C830.889,420.537 824.894,422.746 820.216,427.164ZM693.852,430.737C689.829,435.948 687.344,442.711 686.401,451.022C686.696,453.584 686.842,456.286 686.842,459.139C686.842,461.842 686.696,464.404 686.411,466.826C687.398,474.846 690.009,481.407 694.249,486.493C699.769,493.121 707.21,496.432 716.622,496.432C726.43,496.432 734.113,493.169 739.658,486.676C743.917,481.696 746.528,475.145 747.518,467.019C747.233,464.298 747.089,461.406 747.089,458.355C747.089,455.571 747.211,452.927 747.457,450.419C746.445,442.384 743.961,435.822 739.977,430.737C734.617,423.929 726.852,420.537 716.622,420.537C706.711,420.537 699.112,423.929 693.852,430.737ZM708.235,458.51C708.235,451.728 708.973,447.073 710.468,444.519C711.942,441.996 714.098,440.705 716.937,440.705C719.808,440.705 721.965,442.02 723.415,444.655C724.826,447.28 725.57,451.834 725.57,458.355C725.57,464.93 724.826,469.582 723.361,472.318C721.912,475.025 719.702,476.392 716.782,476.392C711.072,476.392 708.235,470.424 708.235,458.51ZM632.724,430.737C627.465,437.552 624.83,447.019 624.83,459.139C624.83,470.737 627.591,479.864 633.116,486.493C638.638,493.121 646.078,496.432 655.491,496.432C665.304,496.432 672.981,493.169 678.531,486.676C682.815,481.658 685.439,475.044 686.411,466.826C686.112,464.399 685.962,461.837 685.962,459.139C685.962,456.286 686.107,453.584 686.401,451.022C685.439,442.711 682.927,435.948 678.85,430.737C673.479,423.929 665.719,420.537 655.491,420.537C645.58,420.537 637.98,423.929 632.724,430.737ZM647.107,458.51C647.107,451.728 647.838,447.073 649.341,444.519C650.815,441.996 652.967,440.705 655.809,440.705C658.672,440.705 660.833,442.02 662.278,444.655C663.7,447.28 664.434,451.834 664.434,458.355C664.434,464.93 663.7,469.582 662.225,472.318C660.779,475.025 658.57,476.392 655.655,476.392C649.945,476.392 647.107,470.424 647.107,458.51" style="fill:white;"/>
            </g>
            <g transform="matrix(1,0,0,1,0,-45.0168)">
                <path d="M862.821,464.717C862.821,463.514 863.122,462.392 863.725,461.337C864.325,460.285 865.147,459.457 866.201,458.853C867.251,458.243 868.381,457.94 869.595,457.94C870.799,457.94 871.925,458.239 872.979,458.844C874.028,459.444 874.854,460.27 875.464,461.32C876.073,462.373 876.378,463.504 876.378,464.717C876.378,465.903 876.083,467.014 875.498,468.048C874.918,469.092 874.101,469.924 873.046,470.547C871.998,471.171 870.846,471.487 869.595,471.487C868.357,471.487 867.207,471.171 866.153,470.553C865.108,469.933 864.287,469.102 863.701,468.063C863.116,467.025 862.821,465.907 862.821,464.717ZM863.764,464.717C863.764,463.658 864.03,462.688 864.551,461.797C865.084,460.899 865.79,460.194 866.689,459.671C867.584,459.149 868.554,458.887 869.595,458.887C870.653,458.887 871.63,459.152 872.519,459.675C873.415,460.202 874.12,460.912 874.642,461.807C875.169,462.701 875.425,463.673 875.425,464.717C875.425,465.776 875.165,466.752 874.637,467.643C874.115,468.537 873.399,469.242 872.509,469.765C871.611,470.286 870.643,470.547 869.595,470.547C868.56,470.547 867.593,470.286 866.694,469.769C865.786,469.247 865.074,468.537 864.548,467.637C864.03,466.729 863.764,465.757 863.764,464.717ZM872.345,463.078C872.345,463.558 872.219,463.984 871.964,464.355C871.707,464.721 871.349,464.997 870.886,465.177L873.032,468.738L871.519,468.738L869.653,465.543L868.434,465.543L868.434,468.738L867.105,468.738L867.105,460.704L869.454,460.704C870.451,460.704 871.181,460.903 871.649,461.295C872.114,461.687 872.345,462.281 872.345,463.078ZM868.434,464.437L869.406,464.437C869.889,464.437 870.276,464.317 870.571,464.065C870.856,463.813 871.001,463.499 871.001,463.114C871.001,462.661 870.871,462.339 870.615,462.146C870.358,461.947 869.953,461.854 869.391,461.854L868.434,461.854L868.434,464.437Z" style="fill:white;"/>
            </g>
        </g>
    </g>
</svg>
