<?xml version="1.0" encoding="UTF-8" standalone="no"?>
<!DOCTYPE svg PUBLIC "-//W3C//DTD SVG 1.1//EN" "http://www.w3.org/Graphics/SVG/1.1/DTD/svg11.dtd">
<svg width="100%" height="100%" viewBox="0 0 1554 166" version="1.1" xmlns="http://www.w3.org/2000/svg" xmlns:xlink="http://www.w3.org/1999/xlink" xml:space="preserve" xmlns:serif="http://www.serif.com/" style="fill-rule:evenodd;clip-rule:evenodd;stroke-linejoin:round;stroke-miterlimit:2;">
    <g transform="matrix(1,0,0,1,-169.5881,-457.256583)">
        <g transform="matrix(1,0,0,1,357.8521,622.0801)">
            <path d="M0,-164.293L0,-22.381C0,-10.137 -10.162,-0.202 -22.707,-0.177L-165.428,0.067C-178.007,0.092 -188.221,-9.851 -188.221,-22.129L-188.264,-164.385L-163.793,-164.293L-163.982,-30.989C-163.991,-26.891 -160.592,-23.574 -156.402,-23.574L-31.845,-23.574C-27.654,-23.574 -24.256,-26.891 -24.264,-30.981L-24.359,-164.259L0,-164.293Z" style="fill:rgb(17,36,68);fill-rule:nonzero;"/>
        </g>
        <g transform="matrix(1,0,0,1,546.1158,480.1671)">
            <path d="M0,119.767C0.034,132.053 -9.91,142.03 -22.188,142.039L-164.731,142.139L-140.719,118.339L-31.3,118.281C-27.218,118.272 -23.909,114.972 -23.901,110.89L-23.834,62.348C-23.825,58.267 -27.126,54.941 -31.216,54.933L-142.577,54.647C-154.821,54.622 -164.731,44.687 -164.731,32.443L-164.731,-0.167C-164.731,-12.437 -154.787,-22.372 -142.526,-22.372L0,-22.355L-23.533,1.286L-133.549,1.219C-137.63,1.21 -140.939,4.511 -140.956,8.584L-141.023,23.423C-141.04,27.521 -137.723,30.855 -133.624,30.855L-22.356,30.939C-10.128,30.939 -0.202,40.841 -0.168,53.077L0,119.767Z" style="fill:rgb(17,36,68);fill-rule:nonzero;"/>
        </g>
        <g transform="matrix(1,0,0,1,591.7145,568.9794)">
            <path d="M0,-57.982L136.662,-57.898L112.913,-34.14L8.616,-34.299C4.51,-34.308 1.193,-30.974 1.201,-26.867L1.47,53.21L-22.221,53.193L-22.221,-35.777C-22.221,-48.047 -12.27,-57.99 0,-57.982M177.995,-87.602L-22.221,-87.568L-22.221,-111.192L198.327,-111.091L177.995,-87.602Z" style="fill:rgb(17,36,68);fill-rule:nonzero;"/>
        </g>
        <g transform="matrix(1,0,0,1,901.3908,591.158)">
            <path d="M0,-102.34C0,-106.43 -2.977,-109.747 -6.647,-109.739L-115.586,-109.621C-119.249,-109.613 -122.218,-106.304 -122.218,-102.222L-122.218,-0.025C-122.218,4.065 -119.249,7.382 -115.578,7.382L-6.64,7.348C-2.977,7.348 0,4.04 0,-0.05L0,-102.34ZM21.253,-111.158L21.253,8.827C21.253,21.096 12.33,31.031 1.326,31.031L-123.544,31.031C-134.555,31.031 -143.478,21.096 -143.478,8.827L-143.478,-111.158C-143.478,-123.428 -134.555,-133.371 -123.544,-133.371L1.326,-133.371C12.33,-133.371 21.253,-123.428 21.253,-111.158" style="fill:rgb(17,36,68);fill-rule:nonzero;"/>
        </g>
        <g transform="matrix(1,0,0,1,1134.4403,457.9469)">
            <path d="M0,164.217L-27.902,164.36L-70.664,76.993L-164.732,76.758L-164.606,164.309L-188.355,164.234L-188.389,53.109L-31.075,53.118C-26.994,53.118 -23.677,49.809 -23.677,45.719L-23.677,30.997C-23.677,26.907 -26.985,23.598 -31.075,23.598L-188.264,23.598L-211.797,-0.143L-43.61,-0.109C-9.862,-0.109 0.082,9.842 0.065,22.12L0.031,54.722C0.014,67.05 -10.03,77.002 -22.35,76.901L-39.826,76.767L0,164.217Z" style="fill:rgb(17,36,68);fill-rule:nonzero;"/>
        </g>
        <g transform="matrix(1,0,0,1,1180.8949,592.0565)">
            <path d="M0,-103.44L-0.106,-1.78C-0.114,2.318 3.129,5.644 7.115,5.627L151.685,5.132L127.469,30.133L-1.242,30.687C-13.209,30.729 -22.922,20.769 -22.922,8.466L-22.848,-111.972C-22.84,-124.234 -13.176,-134.169 -1.25,-134.169L165.342,-134.169L142.452,-110.578L7.213,-110.83C3.235,-110.839 0.008,-107.53 0,-103.44" style="fill:rgb(17,36,68);fill-rule:nonzero;"/>
        </g>
        <g transform="matrix(1,0,0,1,1558.1355,481.4865)">
            <path d="M0,117.02L-23.736,140.694L-165.84,140.711C-178.102,140.719 -188.045,130.776 -188.045,118.515L-188.053,51.766C-188.053,39.513 -178.127,29.57 -165.874,29.561L-29.519,29.41L-53.228,53.185L-156.905,53.244C-160.986,53.244 -164.295,56.553 -164.303,60.643L-164.345,109.705C-164.354,113.795 -161.037,117.112 -156.938,117.112L0,117.02ZM-23.635,-0.109L-188.053,-0.008L-188.053,-23.699L-0.102,-23.699L-23.635,-0.109Z" style="fill:rgb(146,168,192);fill-rule:nonzero;"/>
        </g>
        <g transform="matrix(1,0,0,1,1700.1765,486.1636)">
            <path d="M0,107.659L-0.043,67.6C-0.043,64.138 -2.856,61.332 -6.318,61.332L-89.682,61.332C-93.151,61.332 -95.964,64.138 -95.964,67.607L-95.964,107.666C-95.964,111.128 -93.151,113.942 -89.682,113.942L-6.276,113.942C-2.807,113.942 0.007,111.128 0,107.659M-6.311,-6.241L-89.767,-6.241C-93.236,-6.241 -96.05,-3.434 -96.05,0.035L-96.05,32.204C-96.05,35.673 -93.243,38.48 -89.781,38.487L-6.368,38.672C-2.906,38.679 -0.1,35.88 -0.078,32.425L-0.036,0.064C-0.021,-3.413 -2.835,-6.241 -6.311,-6.241M22.503,-10.052L22.481,33.707C22.474,39.726 19.582,45.389 14.71,48.93C13.663,49.685 12.95,50.205 12.95,50.205L14.874,51.622C19.732,55.17 22.595,60.819 22.588,66.831L22.567,117.76C22.56,128.153 14.126,136.58 3.725,136.58L-99.676,136.58C-110.076,136.58 -118.51,128.153 -118.51,117.753L-118.524,67.75C-118.524,61.303 -115.226,55.298 -109.784,51.843L-107.205,50.205L-109.449,48.859C-115.126,45.461 -118.61,39.32 -118.61,32.703L-118.61,-9.945C-118.61,-20.338 -110.19,-28.772 -99.797,-28.779L3.654,-28.907C14.069,-28.921 22.517,-20.473 22.503,-10.052" style="fill:rgb(17,36,68);fill-rule:nonzero;"/>
        </g>
    </g>
</svg>
