<?xml version="1.0" encoding="UTF-8" standalone="no"?>
<!DOCTYPE svg PUBLIC "-//W3C//DTD SVG 1.1//EN" "http://www.w3.org/Graphics/SVG/1.1/DTD/svg11.dtd">
<svg width="100%" height="100%" viewBox="0 0 729 235" version="1.1" xmlns="http://www.w3.org/2000/svg" xmlns:xlink="http://www.w3.org/1999/xlink" xml:space="preserve" xmlns:serif="http://www.serif.com/" style="fill-rule:evenodd;clip-rule:evenodd;stroke-linejoin:round;stroke-miterlimit:2;">
    <g transform="matrix(1,0,0,1,-6875.474167,-2844.052917)">
        <g transform="matrix(4.166667,0,0,4.166667,5580.7125,0)">
            <g transform="matrix(1,0,0,1,370.6819,689.3679)">
                <path d="M0,1.013C-1.059,-0.001 -2.196,-0.933 -3.404,-1.773C-3.404,-1.59 -3.408,-1.429 -3.421,-1.363C-3.461,-1.163 -2.983,-0.246 -2.624,0.153C-2.265,0.552 -1.905,1.549 -1.547,1.669C-1.187,1.789 -0.31,2.786 -0.07,2.706C0.169,2.626 -0.11,1.549 -0.07,1.271C-0.06,1.193 -0.033,1.103 0,1.013" style="fill:white;fill-rule:nonzero;"/>
            </g>
            <g transform="matrix(1,0,0,1,373.8537,711.1015)">
                <path d="M0,-17.129C-0.411,-16.593 -1.024,-15.649 -0.889,-14.919C-0.69,-13.842 -0.23,-10.013 -0.28,-9.295C-0.331,-8.576 -0.69,-5.865 -0.052,-5.226C0.587,-4.588 1.225,-2.514 1.704,-1.955C2.183,-1.397 1.983,-0.853 2.621,-0.428C3.259,0 4.416,-0.839 4.416,-0.839L5.334,-1.915L5.43,-2.366C5.054,-7.874 3.097,-12.947 0,-17.129" style="fill:white;fill-rule:nonzero;"/>
            </g>
            <g transform="matrix(-0.512818,0.858497,0.858497,0.512818,365.701872,685.124622)">
                <path d="M1.43,-2.521C1.516,-1.974 1.591,-1.558 1.632,-1.437C1.796,-0.968 1.43,0.812 1.43,0.812L1.242,0.699C1.242,-0.372 1.307,-1.447 1.43,-2.521" style="fill:white;fill-rule:nonzero;"/>
            </g>
            <g transform="matrix(1,0,0,1,368.799,704.0335)">
                <path d="M0,15.646C-0.028,15.6 -0.055,15.555 -0.083,15.509L-1.223,14.476C-1.284,14.452 -1.34,14.431 -1.401,14.408L-5.96,14.444C-6.098,14.445 -6.213,14.338 -6.222,14.201L-6.358,12.121C-6.363,12.051 -6.394,11.987 -6.446,11.942C-6.74,11.686 -7.779,10.825 -8.557,10.666C-8.587,10.665 -8.615,10.664 -8.645,10.663L-10.468,10.9C-10.621,10.919 -10.757,10.803 -10.763,10.65L-10.787,9.985C-10.79,9.884 -10.852,9.794 -10.945,9.754L-12.787,8.959C-12.815,8.953 -12.842,8.946 -12.869,8.939L-15.818,8.703L-18.279,8.51C-18.336,8.526 -18.388,8.54 -18.446,8.556L-20.196,9.77C-20.276,9.825 -20.376,9.833 -20.462,9.79C-20.696,9.672 -21.175,9.447 -21.429,9.447C-21.775,9.447 -22.095,9.847 -22.573,9.633C-22.975,9.455 -23.509,8.637 -23.669,8.381C-23.7,8.331 -23.713,8.274 -23.706,8.216C-23.67,7.889 -23.558,6.756 -23.716,6.416C-23.86,6.109 -25.027,5.96 -25.557,5.907C-25.701,5.892 -25.804,5.763 -25.79,5.62L-25.663,4.411C-25.656,4.385 -25.649,4.358 -25.642,4.332L-25.227,3.363C-25.196,3.291 -25.198,3.211 -25.234,3.142C-25.331,2.953 -25.532,2.587 -25.631,2.587C-25.764,2.587 -26.509,2.852 -26.588,3.172C-26.648,3.408 -26.926,4.082 -27.066,4.416C-27.113,4.528 -27.231,4.592 -27.351,4.57L-29.103,4.252C-29.163,4.241 -29.217,4.21 -29.257,4.162C-29.472,3.906 -30.166,3.037 -30.099,2.587C-30.019,2.055 -29.247,-0.684 -28.982,-0.844C-28.716,-1.004 -27.838,-1.243 -27.36,-1.375C-26.88,-1.509 -24.089,-1.641 -23.37,-1.083C-22.653,-0.524 -22.546,0.858 -22.148,0.885C-21.757,0.911 -21.341,-0.084 -21.699,-1.625C-21.714,-1.688 -21.706,-1.752 -21.675,-1.809C-21.474,-2.18 -20.65,-3.636 -19.887,-4.168C-19.009,-4.78 -18.877,-6.135 -18.531,-6.402C-18.185,-6.667 -17.866,-6.774 -17.467,-7.199C-17.068,-7.625 -16.563,-8.237 -16.111,-8.422C-15.659,-8.609 -15.154,-8.981 -15.287,-9.407C-15.419,-9.832 -16.191,-10.285 -16.297,-10.55C-16.403,-10.816 -13.372,-10.949 -13.106,-11.454C-12.84,-11.959 -14.642,-12.571 -15.017,-12.731C-15.393,-12.89 -15.685,-14.193 -16.191,-14.618C-16.494,-14.874 -16.662,-14.642 -16.749,-14.414C-16.806,-14.266 -16.982,-14.203 -17.121,-14.282C-17.61,-14.562 -18.593,-15.112 -19.11,-15.303C-19.234,-15.349 -19.372,-15.292 -19.43,-15.173C-19.594,-14.841 -19.884,-14.143 -19.728,-13.635C-19.618,-13.278 -19.607,-13.077 -19.622,-12.966C-19.632,-12.896 -19.674,-12.839 -19.733,-12.799C-19.884,-12.696 -20.281,-12.399 -20.259,-12.119C-20.233,-11.773 -20.286,-11.029 -20.632,-11.135C-20.977,-11.242 -21.217,-12.81 -21.323,-12.837C-21.429,-12.863 -24.089,-13.156 -24.116,-14.299C-24.142,-15.443 -23.557,-15.366 -23.557,-15.366C-23.557,-15.366 -21.749,-16.188 -21.509,-16.161C-21.338,-16.142 -21.303,-16.897 -21.297,-17.329C-21.295,-17.485 -21.428,-17.608 -21.584,-17.592C-22.363,-17.51 -24.518,-17.321 -25.339,-17.624C-26.349,-17.996 -26.562,-18.528 -27.067,-18.714C-27.25,-18.781 -27.51,-18.859 -27.768,-18.93C-28.332,-19.085 -28.937,-19.048 -29.466,-18.799C-30.29,-18.411 -31.091,-17.984 -31.869,-17.52C-32.333,-17.244 -32.667,-16.794 -32.817,-16.275C-33.082,-15.363 -33.653,-14.12 -33.875,-13.475C-34.115,-12.773 -34.104,-11.964 -34.093,-11.701C-34.11,-11.645 -34.125,-11.598 -34.142,-11.543C-34.466,-11.117 -36.145,-8.908 -36.481,-8.237C-36.853,-7.492 -36.613,-6.402 -36.294,-5.152C-36.152,-4.593 -35.924,-3.471 -35.716,-2.401C-35.656,-2.093 -35.203,-2.134 -35.199,-2.449C-35.195,-2.747 -34.774,-2.807 -34.688,-2.522C-34.243,-1.047 -33.629,0.925 -33.449,1.203C-33.157,1.656 -33.369,2.294 -33.316,2.958C-33.263,3.624 -30.71,5.299 -29.806,5.644C-28.902,5.991 -28.397,6.177 -27.599,6.788C-26.801,7.399 -25.817,7.187 -25.525,7.48C-25.232,7.772 -24.647,9.048 -23.61,9.847C-22.573,10.643 -21.164,10.883 -20.791,10.883C-20.672,10.883 -20.574,10.889 -20.497,10.896C-20.361,10.909 -20.261,11.024 -20.262,11.16L-20.284,12.849C-20.285,12.945 -20.336,13.032 -20.421,13.075C-20.83,13.285 -22.028,14.009 -22.16,15.364C-22.308,16.867 -21.392,18.135 -21.243,18.329C-21.232,18.348 -21.222,18.365 -21.21,18.384L-19.843,21.39C-19.82,21.44 -19.783,21.481 -19.735,21.508C-19.303,21.752 -17.068,23.037 -16.816,23.541C-16.537,24.1 -18.132,32.118 -18.491,32.596C-18.767,32.964 -18.972,33.686 -19.053,34C-19.077,34.099 -19.043,34.201 -18.965,34.267C-18.776,34.425 -18.377,34.691 -17.836,34.727C-17.798,34.728 -17.762,34.73 -17.724,34.73C-17.553,34.731 -17.37,34.712 -17.174,34.655C-17.123,34.64 -17.077,34.609 -17.043,34.568L-15.811,33.074C-15.79,33.049 -15.775,33.022 -15.765,32.991C-15.698,32.787 -15.392,31.929 -14.901,31.718C-14.343,31.479 -12.468,31.319 -11.391,30.043C-11.391,30.043 -9.866,28.518 -7.938,27.364C-7.9,27.342 -7.87,27.313 -7.848,27.274C-7.723,27.058 -7.265,26.253 -6.923,25.536C-6.524,24.698 -3.533,24.26 -2.855,23.382C-2.255,22.606 -2.03,19.994 -1.986,19.396C-1.98,19.319 -1.942,19.251 -1.878,19.206C-1.421,18.883 0.447,17.436 0,15.646" style="fill:white;fill-rule:nonzero;"/>
            </g>
            <g transform="matrix(1,0,0,1,357.7277,686.5585)">
                <path d="M0,-1.57C-0.161,-1.89 -2.771,-3.299 -3.991,-3.791C-4.365,-3.949 -4.892,-3.881 -4.894,-3.881C-5.637,-3.68 -7.515,-3.151 -7.739,-2.891C-8.018,-2.567 -6.263,-2.208 -5.704,-2.088C-5.146,-1.968 -4.109,-1.091 -3.67,-0.613C-3.231,-0.133 -3.87,0.385 -3.87,0.385C-3.87,0.385 -2.633,1.541 -2.314,1.662C-1.995,1.781 -1.317,2.028 -1.078,2.084C-0.838,2.14 -0.279,2.379 -0.279,2.379C-0.279,2.379 -1.024,0.425 -0.812,-0.014C-0.599,-0.453 -0.279,-0.791 -0.279,-0.791C-0.279,-0.791 0.199,-1.171 0,-1.57" style="fill:white;fill-rule:nonzero;"/>
            </g>
            <g transform="matrix(1,0,0,1,373.5978,701.7157)">
                <path d="M0,24.921C0,24.921 -0.304,23.714 -0.089,19.977C0.684,6.539 -4.6,2.066 -4.6,2.066C-8.446,-1.561 -12.433,-1.67 -18.144,-1.453C-23.854,-1.237 -43.493,1.479 -62.855,16.419C-62.855,16.419 -38.759,0.475 -14.844,1.12C-9.806,1.256 -2.96,3.36 -1.76,15.281C-1.581,17.058 -1.471,22.42 -1.471,22.42C-1.455,22.804 -1.447,23.189 -1.438,23.573C-1.417,24.414 -1.213,26.591 0.388,25.908C2.36,25.069 5.818,17.096 5.818,17.096C5.818,17.096 1.398,24.218 0,24.921" style="fill:white;fill-rule:nonzero;"/>
            </g>
            <g transform="matrix(1,0,0,1,372.6555,706.7739)">
                <path d="M0,22.019C-0.732,22.054 -1.332,21.442 -1.334,20.71C-1.335,20.29 -1.334,19.738 -1.329,19.037C-1.289,13.412 -2.194,9.471 -3.114,6.948C-4.359,3.535 -7.247,0.933 -10.796,0.156C-12.461,-0.208 -14.302,-0.32 -16.296,-0.245C-21.079,-0.067 -37.539,0.441 -57.112,14.491C-57.112,14.491 -34.553,1.495 -14.498,1.88C-9.428,1.977 -3.609,3.808 -2.457,16.592C-2.297,18.37 -2.315,18.867 -2.315,18.867C-2.299,19.251 -2.31,18.867 -2.299,19.251C-2.277,20.091 -2.507,22.171 -0.975,22.25C0.765,22.339 1.863,21.363 1.863,21.363C1.863,21.363 1.08,21.967 0,22.019" style="fill:white;fill-rule:nonzero;"/>
            </g>
            <g transform="matrix(1,0,0,1,424.4716,731.6288)">
                <path d="M0,-3.141C0.38,-3.141 0.685,-3.057 0.896,-2.965L1.122,-3.81C0.939,-3.915 0.509,-4.02 -0.049,-4.02C-1.489,-4.02 -2.644,-3.128 -2.644,-1.506C-2.644,-0.152 -1.799,0.879 -0.155,0.879C0.423,0.879 0.868,0.767 1.066,0.675L0.904,-0.171C0.692,-0.088 0.331,-0.017 0.006,-0.017C-0.954,-0.017 -1.517,-0.616 -1.517,-1.568C-1.517,-2.627 -0.847,-3.141 0,-3.141" style="fill:white;fill-rule:nonzero;"/>
            </g>
            <g transform="matrix(1,0,0,1,411.1592,729.6755)">
                <path d="M0,0.758L1.799,0.758L1.799,-0.143L0,-0.143L0,-1.161L1.9,-1.161L1.9,-2.065L-1.108,-2.065L-1.108,2.823L2.01,2.823L2.01,1.918L0,1.918L0,0.758Z" style="fill:white;fill-rule:nonzero;"/>
            </g>
            <g transform="matrix(1,0,0,1,391.4394,731.6288)">
                <path d="M0,-3.141C0.38,-3.141 0.685,-3.057 0.896,-2.965L1.121,-3.81C0.939,-3.915 0.509,-4.02 -0.05,-4.02C-1.489,-4.02 -2.644,-3.128 -2.644,-1.506C-2.644,-0.152 -1.799,0.879 -0.155,0.879C0.423,0.879 0.868,0.767 1.065,0.675L0.904,-0.171C0.692,-0.088 0.331,-0.017 0.006,-0.017C-0.954,-0.017 -1.517,-0.616 -1.517,-1.568C-1.517,-2.627 -0.847,-3.141 0,-3.141" style="fill:white;fill-rule:nonzero;"/>
            </g>
            <g transform="matrix(1,0,0,1,397.0945,728.4489)">
                <path d="M0,3.211C-0.735,3.211 -1.151,2.505 -1.151,1.62C-1.151,0.727 -0.749,-0.001 0.007,-0.001C0.799,-0.001 1.151,0.805 1.151,1.612C1.151,2.476 0.762,3.211 0,3.211M0.049,-0.85C-1.349,-0.85 -2.288,0.161 -2.288,1.64C-2.288,3.069 -1.42,4.061 -0.043,4.061C1.237,4.061 2.288,3.198 2.288,1.599C2.288,0.204 1.484,-0.85 0.049,-0.85" style="fill:white;fill-rule:nonzero;"/>
            </g>
            <g transform="matrix(1,0,0,1,405.613,732.4981)">
                <path d="M0,-4.888L-0.523,-3.265C-0.689,-2.723 -0.857,-2.058 -0.981,-1.492L-1.009,-1.492C-1.118,-2.065 -1.264,-2.695 -1.423,-3.26L-1.902,-4.888L-3.376,-4.888L-3.687,0L-2.664,0L-2.576,-1.851C-2.541,-2.468 -2.512,-3.215 -2.496,-3.882L-2.474,-3.882C-2.359,-3.237 -2.192,-2.547 -2.039,-1.966L-1.524,-0.083L-0.645,-0.083L-0.051,-1.978C0.124,-2.549 0.34,-3.26 0.493,-3.882L0.515,-3.882C0.508,-3.172 0.537,-2.463 0.559,-1.868L0.632,0L1.706,0L1.451,-4.888L0,-4.888Z" style="fill:white;fill-rule:nonzero;"/>
            </g>
            <g transform="matrix(1,0,0,1,411.0449,726.5507)">
                <path d="M0,0.87L0.937,0.87L1.777,0L0.591,0L0,0.87Z" style="fill:white;fill-rule:nonzero;"/>
            </g>
            <g transform="matrix(1,0,0,1,417.3686,730.286)">
                <path d="M0,-0.502L-0.422,-0.502L-0.422,-1.813C-0.344,-1.828 -0.189,-1.849 0.064,-1.849C0.55,-1.843 0.853,-1.617 0.853,-1.185C0.853,-0.77 0.537,-0.502 0,-0.502M1.102,-0.08L1.102,-0.103C1.522,-0.255 1.966,-0.683 1.966,-1.307C1.966,-1.757 1.805,-2.097 1.515,-2.329C1.167,-2.605 0.659,-2.714 -0.066,-2.714C-0.654,-2.714 -1.184,-2.67 -1.539,-2.612L-1.539,2.212L-0.442,2.212L-0.442,0.29L-0.117,0.29C0.34,0.297 0.55,0.465 0.681,1.073C0.818,1.682 0.941,2.073 1.021,2.212L2.154,2.212C2.059,2.023 1.907,1.386 1.754,0.834C1.639,0.385 1.449,0.058 1.102,-0.08" style="fill:white;fill-rule:nonzero;"/>
            </g>
            <g transform="matrix(1,0,0,1,0,618.219)">
                <rect x="428.243" y="109.38" width="1.113" height="4.911" style="fill:white;"/>
            </g>
            <g transform="matrix(1,0,0,1,434.3572,728.4489)">
                <path d="M0,3.211C-0.735,3.211 -1.151,2.505 -1.151,1.62C-1.151,0.727 -0.749,-0.001 0.007,-0.001C0.799,-0.001 1.151,0.805 1.151,1.612C1.151,2.476 0.763,3.211 0,3.211M0.05,-0.85C-1.349,-0.85 -2.288,0.161 -2.288,1.64C-2.288,3.069 -1.42,4.061 -0.043,4.061C1.237,4.061 2.288,3.198 2.288,1.599C2.288,0.204 1.484,-0.85 0.05,-0.85" style="fill:white;fill-rule:nonzero;"/>
            </g>
            <g transform="matrix(1,0,0,1,466.0987,730.287)">
                <path d="M0,-0.503L-0.422,-0.503L-0.422,-1.814C-0.344,-1.829 -0.189,-1.85 0.064,-1.85C0.55,-1.844 0.853,-1.618 0.853,-1.186C0.853,-0.771 0.537,-0.503 0,-0.503M1.106,-0.081L1.106,-0.103C1.528,-0.256 1.974,-0.686 1.974,-1.313C1.974,-1.765 1.812,-2.107 1.521,-2.34C1.171,-2.618 0.66,-2.726 -0.068,-2.726C-0.658,-2.726 -1.191,-2.682 -1.548,-2.624L-1.548,2.223L-0.446,2.223L-0.446,0.292L-0.119,0.292C0.34,0.299 0.551,0.467 0.682,1.078C0.82,1.69 0.944,2.083 1.024,2.223L2.163,2.223C2.067,2.032 1.914,1.393 1.761,0.838C1.645,0.387 1.455,0.059 1.106,-0.081" style="fill:white;fill-rule:nonzero;"/>
            </g>
            <g transform="matrix(1,0,0,1,0,618.219)">
                <rect x="470.792" y="109.38" width="1.113" height="4.911" style="fill:white;"/>
            </g>
            <g transform="matrix(1,0,0,1,459.8871,729.6734)">
                <path d="M0,0.762L1.807,0.762L1.807,-0.143L0,-0.143L0,-1.166L1.91,-1.166L1.91,-2.075L-1.113,-2.075L-1.113,2.837L2.02,2.837L2.02,1.928L0,1.928L0,0.762Z" style="fill:white;fill-rule:nonzero;"/>
            </g>
            <g transform="matrix(1,0,0,1,476.9067,728.4489)">
                <path d="M0,3.211C-0.735,3.211 -1.151,2.505 -1.151,1.62C-1.151,0.727 -0.749,-0.001 0.007,-0.001C0.799,-0.001 1.151,0.805 1.151,1.612C1.151,2.476 0.763,3.211 0,3.211M0.049,-0.85C-1.349,-0.85 -2.288,0.161 -2.288,1.64C-2.288,3.069 -1.42,4.061 -0.043,4.061C1.237,4.061 2.288,3.198 2.288,1.599C2.288,0.204 1.484,-0.85 0.049,-0.85" style="fill:white;fill-rule:nonzero;"/>
            </g>
            <g transform="matrix(1,0,0,1,483.4084,730.287)">
                <path d="M0,-0.503L-0.422,-0.503L-0.422,-1.814C-0.344,-1.829 -0.189,-1.85 0.064,-1.85C0.55,-1.844 0.853,-1.618 0.853,-1.186C0.853,-0.771 0.537,-0.503 0,-0.503M1.106,-0.081L1.106,-0.103C1.528,-0.256 1.974,-0.686 1.974,-1.313C1.974,-1.765 1.812,-2.107 1.521,-2.34C1.171,-2.618 0.66,-2.726 -0.068,-2.726C-0.658,-2.726 -1.191,-2.682 -1.548,-2.624L-1.548,2.223L-0.446,2.223L-0.446,0.292L-0.119,0.292C0.34,0.299 0.551,0.467 0.682,1.078C0.82,1.69 0.944,2.083 1.024,2.223L2.163,2.223C2.067,2.032 1.914,1.393 1.761,0.838C1.645,0.387 1.455,0.059 1.106,-0.081" style="fill:white;fill-rule:nonzero;"/>
            </g>
            <g transform="matrix(1,0,0,1,441.833,729.6734)">
                <path d="M0,0.762L1.807,0.762L1.807,-0.143L0,-0.143L0,-1.166L1.91,-1.166L1.91,-2.075L-1.113,-2.075L-1.113,2.837L2.02,2.837L2.02,1.928L0,1.928L0,0.762Z" style="fill:white;fill-rule:nonzero;"/>
            </g>
            <g transform="matrix(1,0,0,1,450.2876,732.5094)">
                <path d="M0,-4.911L-1.261,-4.911L-1.676,-4.014C-1.8,-3.73 -1.887,-3.512 -2.012,-3.199L-2.027,-3.199C-2.149,-3.475 -2.251,-3.723 -2.398,-4.021L-2.828,-4.911L-4.105,-4.911L-2.733,-2.484L-4.156,0L-2.886,0L-2.484,-0.89C-2.325,-1.225 -2.2,-1.487 -2.098,-1.771L-2.085,-1.771C-1.945,-1.487 -1.829,-1.232 -1.647,-0.89L-1.202,0L0.082,0L-1.377,-2.513L0,-4.911Z" style="fill:white;fill-rule:nonzero;"/>
            </g>
            <g transform="matrix(1,0,0,1,452.5139,731.5806)">
                <path d="M0,-3.053L1.328,-3.053L1.328,0.929L2.441,0.929L2.441,-3.053L3.782,-3.053L3.782,-3.982L0,-3.982L0,-3.053Z" style="fill:white;fill-rule:nonzero;"/>
            </g>
            <g transform="matrix(1,0,0,1,482.8481,684.9917)">
                <path d="M0,-0.189L0.334,-0.189C0.499,-0.189 0.632,-0.232 0.732,-0.317C0.831,-0.403 0.882,-0.512 0.882,-0.644C0.882,-0.798 0.837,-0.909 0.749,-0.976C0.66,-1.043 0.52,-1.077 0.328,-1.077L0,-1.077L0,-0.189ZM1.342,-0.656C1.342,-0.491 1.299,-0.345 1.211,-0.218C1.123,-0.092 1,0.003 0.841,0.065L1.578,1.286L1.058,1.286L0.418,0.191L0,0.191L0,1.286L-0.458,1.286L-0.458,-1.47L0.35,-1.47C0.692,-1.47 0.943,-1.402 1.103,-1.269C1.263,-1.135 1.342,-0.93 1.342,-0.656M-1.602,-0.093C-1.602,0.264 -1.513,0.597 -1.333,0.908C-1.154,1.218 -0.909,1.462 -0.598,1.641C-0.288,1.819 0.045,1.908 0.399,1.908C0.758,1.908 1.091,1.818 1.398,1.639C1.706,1.46 1.949,1.217 2.13,0.911C2.31,0.604 2.4,0.27 2.4,-0.093C2.4,-0.452 2.311,-0.785 2.131,-1.092C1.952,-1.399 1.709,-1.643 1.402,-1.824C1.097,-2.004 0.762,-2.094 0.399,-2.094C0.04,-2.094 -0.293,-2.005 -0.6,-1.825C-0.908,-1.646 -1.151,-1.403 -1.332,-1.097C-1.512,-0.791 -1.602,-0.456 -1.602,-0.093M-1.927,-0.093C-1.927,-0.505 -1.824,-0.892 -1.618,-1.253C-1.412,-1.614 -1.128,-1.899 -0.767,-2.107C-0.406,-2.315 -0.017,-2.419 0.399,-2.419C0.812,-2.419 1.198,-2.316 1.559,-2.11C1.92,-1.904 2.204,-1.62 2.413,-1.259C2.621,-0.898 2.725,-0.51 2.725,-0.093C2.725,0.313 2.625,0.695 2.425,1.051C2.225,1.408 1.944,1.694 1.584,1.908C1.223,2.123 0.828,2.23 0.399,2.23C-0.028,2.23 -0.422,2.123 -0.783,1.91C-1.143,1.696 -1.425,1.411 -1.625,1.054C-1.827,0.698 -1.927,0.315 -1.927,-0.093" style="fill:white;fill-rule:nonzero;"/>
            </g>
            <g transform="matrix(1,0,0,1,402.7626,691.0121)">
                <path d="M0,2.974L2.264,-2.174L0.785,5.148L0,2.974Z" style="fill:white;"/>
            </g>
            <g transform="matrix(1,0,0,1,400.3007,720.7488)">
                <path d="M0,-31.176L-11.505,0.734L-7.412,0.734L1.374,-23.703C2.106,-25.74 2.906,-27.751 3.774,-29.734L4.726,-31.91L1.045,-31.91C0.577,-31.91 0.159,-31.617 0,-31.176" style="fill:white;fill-rule:nonzero;"/>
            </g>
            <g transform="matrix(1,0,0,1,412.356,721.4824)">
                <path d="M0,-32.644L-4.092,-32.644L7.678,0L8.004,0L9.931,-5.152L0,-32.644Z" style="fill:white;fill-rule:nonzero;"/>
            </g>
            <g transform="matrix(1,0,0,1,455.6839,700.0499)">
                <path d="M0,10.203L0,0C0,-4.474 -3.49,-7.606 -7.786,-7.606C-12.081,-7.606 -15.572,-4.474 -15.572,0L-15.572,10.203C-15.572,14.677 -12.081,17.81 -7.786,17.81C-3.49,17.81 0,14.677 0,10.203M3.848,0L3.848,10.203C3.848,17.138 -1.655,21.434 -7.786,21.434C-13.917,21.434 -19.42,17.138 -19.42,10.203L-19.42,0C-19.42,-6.935 -13.917,-11.231 -7.786,-11.231C-1.655,-11.231 3.848,-6.935 3.848,0" style="fill:white;fill-rule:nonzero;"/>
            </g>
            <g transform="matrix(1,0,0,1,474.1406,703.2014)">
                <path d="M0,3.901C-4.264,3.901 -7.441,0.498 -7.441,-3.403C-7.441,-7.305 -4.264,-10.708 0,-10.708C4.355,-10.708 7.576,-7.305 7.576,-3.403C7.576,0.498 4.355,3.901 0,3.901M0,-14.382C-6.487,-14.382 -11.342,-9.347 -11.342,-3.403C-11.342,2.495 -6.487,7.621 0,7.621C0.726,7.621 1.406,7.576 2.087,7.44L-5.126,18.283L-0.59,18.283L9.709,2.495C10.844,0.77 11.433,-1.272 11.433,-3.403C11.433,-9.347 6.578,-14.382 0,-14.382" style="fill:white;fill-rule:nonzero;"/>
            </g>
            <g transform="matrix(1,0,0,1,412.7044,688.838)">
                <path d="M0,32.645L4.092,32.645L-7.678,0L-8.005,0L-9.931,5.152L0,32.645Z" style="fill:white;fill-rule:nonzero;"/>
            </g>
            <g transform="matrix(1,0,0,1,424.7593,689.5735)">
                <path d="M0,31.174L11.504,-0.735L7.412,-0.735L-0.57,21.466C-1.838,24.992 -3.224,28.475 -4.725,31.909L-1.045,31.908C-0.577,31.908 -0.159,31.615 0,31.174" style="fill:white;fill-rule:nonzero;"/>
            </g>
        </g>
    </g>
</svg>
