<?xml version="1.0" encoding="UTF-8" standalone="no"?>
<!DOCTYPE svg PUBLIC "-//W3C//DTD SVG 1.1//EN" "http://www.w3.org/Graphics/SVG/1.1/DTD/svg11.dtd">
<svg width="100%" height="100%" viewBox="0 0 6624 1228" version="1.1" xmlns="http://www.w3.org/2000/svg" xmlns:xlink="http://www.w3.org/1999/xlink" xml:space="preserve" xmlns:serif="http://www.serif.com/" style="fill-rule:evenodd;clip-rule:evenodd;stroke-linejoin:round;stroke-miterlimit:2;">
    <g transform="matrix(1,0,0,1,-690.426948,-1828.549319)">
        <g>
            <g transform="matrix(-36.650946,0,0,36.650946,7206.547244,2038.804253)">
                <path d="M0,-5.737C-1.614,-5.737 -2.925,-4.426 -2.925,-2.812C-2.925,-1.197 -1.614,0.114 0,0.114C1.614,0.114 2.925,-1.197 2.925,-2.812C2.925,-4.426 1.614,-5.737 0,-5.737ZM0,-5.509C1.489,-5.509 2.697,-4.3 2.697,-2.812C2.697,-1.323 1.489,-0.114 0,-0.114C-1.489,-0.114 -2.697,-1.323 -2.697,-2.812C-2.697,-4.3 -1.489,-5.509 0,-5.509Z" style="fill:white;"/>
            </g>
            <g transform="matrix(36.650946,0,0,36.650946,7159.249199,1870.759667)">
                <path d="M0,3.402L0,0L1.508,0C1.811,0 2.042,0.031 2.199,0.092C2.357,0.153 2.482,0.261 2.577,0.415C2.671,0.569 2.718,0.74 2.718,0.927C2.718,1.169 2.64,1.373 2.483,1.538C2.327,1.704 2.087,1.808 1.76,1.853C1.88,1.91 1.97,1.967 2.032,2.023C2.164,2.143 2.288,2.295 2.404,2.476L2.993,3.402L2.43,3.402L1.98,2.694C1.85,2.489 1.741,2.333 1.657,2.225C1.571,2.116 1.495,2.041 1.428,1.997C1.361,1.955 1.292,1.924 1.223,1.907C1.172,1.897 1.089,1.891 0.973,1.891L0.452,1.891L0.452,3.402L0,3.402ZM0.452,1.502L1.417,1.502C1.624,1.502 1.784,1.48 1.899,1.437C2.015,1.395 2.103,1.327 2.162,1.233C2.222,1.14 2.252,1.038 2.252,0.928C2.252,0.767 2.194,0.634 2.078,0.531C1.961,0.427 1.778,0.376 1.527,0.376L0.452,0.376L0.452,1.502Z" style="fill:white;fill-rule:nonzero;"/>
            </g>
            <g transform="matrix(36.650946,0,0,36.650946,-396.823352,-25859.906489)">
                <path d="M125.16,782.383L125.72,782.383L125.72,787.406L125.16,787.406L125.16,782.383ZM126.948,787.406L126.948,783.855L127.459,783.855L127.459,784.341C127.534,784.157 127.658,784.023 127.833,783.936C128.007,783.85 128.238,783.806 128.523,783.806C128.825,783.806 129.06,783.852 129.23,783.945C129.399,784.038 129.526,784.187 129.61,784.395C129.712,784.187 129.85,784.038 130.019,783.945C130.189,783.852 130.412,783.806 130.686,783.806C131.151,783.806 131.474,783.898 131.653,784.082C131.833,784.268 131.922,784.599 131.922,785.078L131.922,787.406L131.397,787.406L131.397,785.244C131.397,784.848 131.347,784.589 131.244,784.467C131.142,784.344 130.942,784.283 130.645,784.283C130.317,784.283 130.079,784.367 129.929,784.534C129.78,784.702 129.705,784.97 129.705,785.342L129.705,787.406L129.193,787.406L129.193,785.002C129.193,784.72 129.143,784.53 129.04,784.431C128.938,784.333 128.742,784.283 128.454,784.283C128.118,784.283 127.869,784.368 127.711,784.54C127.553,784.71 127.473,784.977 127.473,785.342L127.473,787.406L126.948,787.406ZM133.511,785.922C133.511,786.29 133.597,786.558 133.769,786.726C133.94,786.893 134.216,786.977 134.596,786.977C134.939,786.977 135.169,786.915 135.282,786.792C135.396,786.669 135.452,786.383 135.452,785.935L135.452,785.328C135.452,784.878 135.396,784.592 135.282,784.468C135.169,784.345 134.939,784.283 134.596,784.283C134.216,784.283 133.94,784.367 133.769,784.534C133.597,784.702 133.511,784.97 133.511,785.342L133.511,785.922ZM132.985,783.855L133.49,783.855L133.49,784.407C133.576,784.2 133.708,784.048 133.889,783.951C134.07,783.855 134.313,783.806 134.616,783.806C135.122,783.806 135.479,783.911 135.686,784.12C135.894,784.329 135.998,784.693 135.998,785.21L135.998,786.054C135.998,786.569 135.894,786.931 135.686,787.14C135.479,787.349 135.122,787.454 134.616,787.454C134.323,787.454 134.092,787.41 133.92,787.324C133.748,787.238 133.612,787.096 133.511,786.9L133.511,788.767L132.985,788.767L132.985,783.855ZM139.356,785.935L139.356,785.328C139.356,784.881 139.3,784.596 139.186,784.474C139.072,784.351 138.833,784.29 138.47,784.29L138.224,784.29C137.861,784.29 137.625,784.351 137.513,784.472C137.401,784.594 137.346,784.88 137.346,785.328L137.346,785.935C137.346,786.387 137.402,786.674 137.514,786.796C137.627,786.916 137.863,786.977 138.224,786.977L138.47,786.977C138.831,786.977 139.07,786.915 139.185,786.792C139.299,786.669 139.356,786.383 139.356,785.935M138.23,787.454C137.7,787.454 137.329,787.35 137.117,787.143C136.906,786.937 136.8,786.573 136.8,786.054L136.8,785.21C136.8,784.688 136.905,784.324 137.116,784.117C137.325,783.91 137.695,783.806 138.224,783.806L138.47,783.806C139,783.806 139.373,783.91 139.584,784.117C139.796,784.324 139.902,784.688 139.902,785.21L139.902,786.054C139.902,786.575 139.797,786.94 139.587,787.145C139.376,787.352 139.005,787.454 138.476,787.454L138.23,787.454ZM140.842,787.406L140.842,783.855L141.353,783.855L141.353,784.341C141.428,784.155 141.543,784.021 141.701,783.935C141.859,783.849 142.067,783.806 142.329,783.806C142.715,783.806 142.987,783.9 143.143,784.086C143.299,784.274 143.377,784.604 143.377,785.078L143.377,785.106L142.846,785.106L142.846,785.002C142.846,784.718 142.801,784.527 142.711,784.429C142.621,784.331 142.452,784.283 142.202,784.283C141.911,784.283 141.7,784.366 141.57,784.53C141.439,784.696 141.374,784.967 141.374,785.342L141.374,787.406L140.842,787.406ZM143.729,784.304L143.729,783.855L144.164,783.855L144.164,783.053L144.689,783.053L144.689,783.855L146.43,783.855L146.43,784.304L144.689,784.304L144.689,786.259C144.689,786.537 144.735,786.727 144.826,786.828C144.917,786.928 145.091,786.977 145.347,786.977C145.601,786.977 145.772,786.929 145.861,786.832C145.95,786.736 145.995,786.545 145.995,786.259L145.995,786.155L146.528,786.155L146.528,786.185C146.528,786.685 146.445,787.021 146.28,787.194C146.115,787.368 145.771,787.454 145.25,787.454C144.843,787.454 144.56,787.362 144.401,787.178C144.243,786.996 144.164,786.664 144.164,786.185L144.164,784.304L143.729,784.304ZM149.81,786.501L149.81,786.127C149.81,785.957 149.723,785.834 149.552,785.756C149.38,785.676 149.106,785.637 148.73,785.637C148.388,785.637 148.157,785.681 148.042,785.767C147.926,785.853 147.868,786.019 147.868,786.265C147.868,786.545 147.929,786.73 148.053,786.823C148.174,786.916 148.42,786.963 148.788,786.963C149.119,786.963 149.371,786.923 149.547,786.844C149.722,786.764 149.81,786.649 149.81,786.501M149.836,787.031C149.755,787.18 149.626,787.287 149.45,787.354C149.273,787.421 149.029,787.454 148.716,787.454C148.161,787.454 147.788,787.374 147.599,787.216C147.41,787.057 147.315,786.762 147.315,786.329C147.315,786.079 147.337,785.883 147.381,785.742C147.425,785.6 147.498,785.486 147.599,785.401C147.684,785.328 147.81,785.278 147.976,785.248C148.141,785.217 148.378,785.202 148.689,785.202C149.01,785.202 149.257,785.228 149.426,785.281C149.597,785.334 149.725,785.422 149.81,785.546L149.81,784.933C149.81,784.644 149.753,784.455 149.642,784.369C149.529,784.284 149.247,784.241 148.795,784.241C148.467,784.241 148.248,784.276 148.14,784.345C148.033,784.413 147.977,784.542 147.972,784.732L147.447,784.732L147.447,784.65C147.447,784.346 147.545,784.13 147.742,784.001C147.938,783.871 148.278,783.806 148.759,783.806C149.135,783.806 149.42,783.822 149.616,783.854C149.812,783.884 149.957,783.935 150.051,784.005C150.155,784.086 150.228,784.186 150.271,784.306C150.313,784.425 150.334,784.63 150.334,784.92L150.334,787.406L149.856,787.406L149.836,787.031ZM152.677,787.454C152.146,787.454 151.775,787.35 151.563,787.143C151.353,786.936 151.247,786.573 151.247,786.053L151.247,785.211C151.247,784.69 151.352,784.324 151.562,784.117C151.772,783.91 152.142,783.806 152.67,783.806L152.916,783.806C153.418,783.806 153.78,783.903 154.002,784.095C154.225,784.287 154.34,784.603 154.349,785.043L153.803,785.047C153.792,784.758 153.727,784.56 153.607,784.452C153.488,784.344 153.257,784.29 152.916,784.29L152.67,784.29C152.307,784.29 152.071,784.351 151.959,784.472C151.848,784.594 151.792,784.88 151.792,785.328L151.792,785.935C151.792,786.387 151.849,786.674 151.96,786.796C152.074,786.916 152.31,786.977 152.67,786.977L152.916,786.977C153.262,786.977 153.497,786.918 153.619,786.8C153.742,786.682 153.803,786.466 153.803,786.154L153.803,786.093L154.349,786.093L154.349,786.161C154.349,786.624 154.239,786.956 154.02,787.155C153.799,787.354 153.435,787.454 152.922,787.454L152.677,787.454ZM152.836,787.406L152.836,787.793L153.052,787.793C153.265,787.793 153.403,787.822 153.467,787.883C153.53,787.945 153.561,788.099 153.561,788.346C153.561,788.618 153.531,788.787 153.471,788.854C153.413,788.92 153.274,788.953 153.059,788.953L152.166,788.953L152.166,788.656L152.887,788.656C153.006,788.656 153.079,788.64 153.106,788.609C153.133,788.578 153.147,788.485 153.147,788.33C153.147,788.193 153.135,788.11 153.111,788.076C153.088,788.044 153.011,788.028 152.879,788.028L152.615,788.028L152.615,787.406L152.836,787.406ZM157.617,786.501L157.617,786.127C157.617,785.957 157.531,785.834 157.359,785.756C157.187,785.676 156.913,785.637 156.538,785.637C156.195,785.637 155.964,785.681 155.849,785.767C155.733,785.853 155.675,786.019 155.675,786.265C155.675,786.545 155.736,786.73 155.86,786.823C155.981,786.916 156.227,786.963 156.596,786.963C156.926,786.963 157.178,786.923 157.354,786.844C157.529,786.764 157.617,786.649 157.617,786.501M157.644,787.031C157.562,787.18 157.434,787.287 157.258,787.354C157.081,787.421 156.836,787.454 156.523,787.454C155.968,787.454 155.595,787.374 155.406,787.216C155.217,787.057 155.123,786.762 155.123,786.329C155.123,786.079 155.145,785.883 155.188,785.742C155.232,785.6 155.305,785.486 155.406,785.401C155.491,785.328 155.617,785.278 155.783,785.248C155.948,785.217 156.186,785.202 156.497,785.202C156.817,785.202 157.064,785.228 157.233,785.281C157.404,785.334 157.532,785.422 157.617,785.546L157.617,784.933C157.617,784.644 157.56,784.455 157.449,784.369C157.336,784.284 157.054,784.241 156.602,784.241C156.274,784.241 156.055,784.276 155.947,784.345C155.84,784.413 155.784,784.542 155.779,784.732L155.254,784.732L155.254,784.65C155.254,784.346 155.352,784.13 155.549,784.001C155.746,783.871 156.085,783.806 156.567,783.806C156.942,783.806 157.228,783.822 157.423,783.854C157.619,783.884 157.764,783.935 157.858,784.005C157.962,784.086 158.035,784.186 158.078,784.306C158.12,784.425 158.142,784.63 158.142,784.92L158.142,787.406L157.664,787.406L157.644,787.031ZM157.679,782.549C157.62,782.752 157.537,782.904 157.429,783.005C157.322,783.106 157.191,783.157 157.035,783.157C157.004,783.157 156.97,783.154 156.933,783.149C156.895,783.143 156.855,783.134 156.813,783.123L156.493,783.028C156.452,783.015 156.418,783.005 156.392,782.999C156.364,782.993 156.338,782.991 156.311,782.991C156.248,782.991 156.189,783.012 156.135,783.054C156.081,783.097 156.036,783.157 156,783.233L155.73,783.233C155.78,783.037 155.861,782.886 155.974,782.781C156.085,782.676 156.224,782.625 156.388,782.625C156.424,782.625 156.456,782.627 156.486,782.632C156.515,782.636 156.542,782.643 156.567,782.653L156.894,782.757C156.92,782.765 156.951,782.774 156.985,782.78C157.018,782.787 157.05,782.791 157.079,782.791C157.155,782.791 157.22,782.771 157.272,782.732C157.325,782.693 157.369,782.632 157.403,782.549L157.679,782.549ZM161.61,785.935L161.61,785.328C161.61,784.881 161.554,784.596 161.44,784.474C161.326,784.351 161.087,784.29 160.724,784.29L160.477,784.29C160.115,784.29 159.878,784.351 159.767,784.472C159.655,784.594 159.6,784.88 159.6,785.328L159.6,785.935C159.6,786.387 159.656,786.674 159.768,786.796C159.881,786.916 160.117,786.977 160.477,786.977L160.724,786.977C161.085,786.977 161.323,786.915 161.438,786.792C161.553,786.669 161.61,786.383 161.61,785.935M160.484,787.454C159.954,787.454 159.583,787.35 159.371,787.143C159.16,786.937 159.054,786.573 159.054,786.054L159.054,785.21C159.054,784.688 159.159,784.324 159.37,784.117C159.579,783.91 159.949,783.806 160.477,783.806L160.724,783.806C161.254,783.806 161.626,783.91 161.838,784.117C162.05,784.324 162.156,784.688 162.156,785.21L162.156,786.054C162.156,786.575 162.051,786.94 161.841,787.145C161.629,787.352 161.259,787.454 160.729,787.454L160.484,787.454ZM168.51,786.397L166.661,784.853C166.355,784.858 166.143,784.931 166.023,785.073C165.904,785.216 165.844,785.486 165.844,785.884C165.844,786.166 165.859,786.365 165.89,786.485C165.92,786.603 165.971,786.693 166.043,786.754C166.122,786.824 166.246,786.872 166.417,786.9C166.585,786.929 166.892,786.943 167.335,786.943C167.703,786.943 167.977,786.9 168.159,786.815C168.342,786.73 168.458,786.591 168.51,786.397M168.965,786.784C168.851,787.042 168.663,787.222 168.405,787.322C168.146,787.424 167.691,787.475 167.038,787.475C166.576,787.475 166.241,787.442 166.033,787.378C165.826,787.315 165.657,787.205 165.524,787.05C165.437,786.944 165.372,786.796 165.332,786.608C165.292,786.419 165.271,786.16 165.271,785.832C165.271,785.404 165.341,785.087 165.48,784.88C165.62,784.673 165.851,784.536 166.174,784.472C166.018,784.361 165.902,784.218 165.826,784.045C165.751,783.869 165.713,783.656 165.713,783.404C165.713,782.999 165.819,782.718 166.03,782.559C166.242,782.4 166.635,782.321 167.211,782.321C167.752,782.321 168.142,782.406 168.377,782.578C168.613,782.749 168.732,783.029 168.732,783.419L168.732,783.841L168.172,783.841L168.172,783.456C168.172,783.216 168.122,783.054 168.021,782.97C167.919,782.887 167.65,782.846 167.211,782.846C166.791,782.846 166.533,782.883 166.437,782.958C166.342,783.031 166.293,783.181 166.293,783.405C166.293,783.724 166.451,784.016 166.766,784.279L166.802,784.31L168.615,785.823L168.615,785.126L169.174,785.126L169.174,785.863C169.174,785.913 169.171,785.971 169.164,786.035C169.157,786.101 169.146,786.175 169.131,786.259L170.078,787.048L169.755,787.44L168.965,786.784ZM172.855,787.406L172.855,782.383L176.379,782.383L176.379,782.915L173.408,782.915L173.408,784.559L176.295,784.559L176.295,785.071L173.408,785.071L173.408,786.881L176.379,786.881L176.379,787.406L172.855,787.406ZM176.781,787.406L178.128,785.507L176.954,783.855L177.546,783.855L178.404,785.099L179.262,783.855L179.856,783.855L178.694,785.507L180.042,787.406L179.448,787.406L178.404,785.909L177.382,787.406L176.781,787.406ZM181.236,785.922C181.236,786.29 181.322,786.558 181.494,786.726C181.666,786.893 181.941,786.977 182.321,786.977C182.665,786.977 182.894,786.915 183.007,786.792C183.121,786.669 183.177,786.383 183.177,785.935L183.177,785.328C183.177,784.878 183.121,784.592 183.007,784.468C182.894,784.345 182.665,784.283 182.321,784.283C181.941,784.283 181.666,784.367 181.494,784.534C181.322,784.702 181.236,784.97 181.236,785.342L181.236,785.922ZM180.711,783.855L181.215,783.855L181.215,784.407C181.301,784.2 181.434,784.048 181.615,783.951C181.796,783.855 182.038,783.806 182.341,783.806C182.847,783.806 183.204,783.911 183.411,784.12C183.619,784.329 183.723,784.693 183.723,785.21L183.723,786.054C183.723,786.569 183.619,786.931 183.411,787.14C183.204,787.349 182.847,787.454 182.341,787.454C182.049,787.454 181.817,787.41 181.646,787.324C181.473,787.238 181.337,787.096 181.236,786.9L181.236,788.767L180.711,788.767L180.711,783.855ZM187.082,785.935L187.082,785.328C187.082,784.881 187.026,784.596 186.911,784.474C186.797,784.351 186.559,784.29 186.195,784.29L185.949,784.29C185.586,784.29 185.35,784.351 185.238,784.472C185.126,784.594 185.071,784.88 185.071,785.328L185.071,785.935C185.071,786.387 185.128,786.674 185.239,786.796C185.353,786.916 185.588,786.977 185.949,786.977L186.195,786.977C186.557,786.977 186.795,786.915 186.91,786.792C187.024,786.669 187.082,786.383 187.082,785.935M185.956,787.454C185.425,787.454 185.054,787.35 184.842,787.143C184.632,786.937 184.525,786.573 184.525,786.054L184.525,785.21C184.525,784.688 184.63,784.324 184.841,784.117C185.051,783.91 185.42,783.806 185.949,783.806L186.195,783.806C186.726,783.806 187.098,783.91 187.31,784.117C187.522,784.324 187.627,784.688 187.627,785.21L187.627,786.054C187.627,786.575 187.523,786.94 187.312,787.145C187.102,787.352 186.731,787.454 186.201,787.454L185.956,787.454ZM188.567,787.406L188.567,783.855L189.079,783.855L189.079,784.341C189.154,784.155 189.269,784.021 189.427,783.935C189.584,783.849 189.792,783.806 190.054,783.806C190.441,783.806 190.713,783.9 190.868,784.086C191.025,784.274 191.103,784.604 191.103,785.078L191.103,785.106L190.571,785.106L190.571,785.002C190.571,784.718 190.526,784.527 190.436,784.429C190.347,784.331 190.177,784.283 189.927,784.283C189.636,784.283 189.425,784.366 189.295,784.53C189.165,784.696 189.1,784.967 189.1,785.342L189.1,787.406L188.567,787.406ZM191.454,784.304L191.454,783.855L191.89,783.855L191.89,783.053L192.415,783.053L192.415,783.855L194.156,783.855L194.156,784.304L192.415,784.304L192.415,786.259C192.415,786.537 192.46,786.727 192.552,786.828C192.643,786.928 192.816,786.977 193.072,786.977C193.327,786.977 193.498,786.929 193.587,786.832C193.675,786.736 193.72,786.545 193.72,786.259L193.72,786.155L194.253,786.155L194.253,786.185C194.253,786.685 194.17,787.021 194.006,787.194C193.84,787.368 193.497,787.454 192.975,787.454C192.569,787.454 192.286,787.362 192.127,787.178C191.969,786.996 191.89,786.664 191.89,786.185L191.89,784.304L191.454,784.304ZM197.535,786.501L197.535,786.127C197.535,785.957 197.449,785.834 197.277,785.756C197.105,785.676 196.831,785.637 196.456,785.637C196.113,785.637 195.883,785.681 195.768,785.767C195.651,785.853 195.594,786.019 195.594,786.265C195.594,786.545 195.655,786.73 195.778,786.823C195.9,786.916 196.145,786.963 196.514,786.963C196.844,786.963 197.096,786.923 197.272,786.844C197.448,786.764 197.535,786.649 197.535,786.501M197.562,787.031C197.481,787.18 197.352,787.287 197.176,787.354C196.999,787.421 196.754,787.454 196.441,787.454C195.886,787.454 195.513,787.374 195.324,787.216C195.135,787.057 195.041,786.762 195.041,786.329C195.041,786.079 195.062,785.883 195.107,785.742C195.15,785.6 195.223,785.486 195.324,785.401C195.409,785.328 195.535,785.278 195.701,785.248C195.867,785.217 196.104,785.202 196.415,785.202C196.736,785.202 196.982,785.228 197.151,785.281C197.322,785.334 197.45,785.422 197.535,785.546L197.535,784.933C197.535,784.644 197.479,784.455 197.367,784.369C197.254,784.284 196.972,784.241 196.521,784.241C196.192,784.241 195.974,784.276 195.865,784.345C195.758,784.413 195.702,784.542 195.697,784.732L195.172,784.732L195.172,784.65C195.172,784.346 195.27,784.13 195.467,784.001C195.664,783.871 196.003,783.806 196.485,783.806C196.86,783.806 197.146,783.822 197.341,783.854C197.537,783.884 197.683,783.935 197.777,784.005C197.881,784.086 197.953,784.186 197.996,784.306C198.038,784.425 198.06,784.63 198.06,784.92L198.06,787.406L197.582,787.406L197.562,787.031ZM200.402,787.454C199.872,787.454 199.5,787.35 199.289,787.143C199.078,786.936 198.972,786.573 198.972,786.053L198.972,785.211C198.972,784.69 199.077,784.324 199.288,784.117C199.497,783.91 199.867,783.806 200.396,783.806L200.642,783.806C201.144,783.806 201.505,783.903 201.728,784.095C201.95,784.287 202.065,784.603 202.074,785.043L201.528,785.047C201.517,784.758 201.452,784.56 201.333,784.452C201.214,784.344 200.982,784.29 200.642,784.29L200.396,784.29C200.033,784.29 199.797,784.351 199.685,784.472C199.573,784.594 199.518,784.88 199.518,785.328L199.518,785.935C199.518,786.387 199.574,786.674 199.686,786.796C199.799,786.916 200.035,786.977 200.396,786.977L200.642,786.977C200.987,786.977 201.222,786.918 201.344,786.8C201.468,786.682 201.528,786.466 201.528,786.154L201.528,786.093L202.074,786.093L202.074,786.161C202.074,786.624 201.965,786.956 201.745,787.155C201.525,787.354 201.16,787.454 200.647,787.454L200.402,787.454ZM200.562,787.406L200.562,787.793L200.778,787.793C200.991,787.793 201.129,787.822 201.192,787.883C201.256,787.945 201.287,788.099 201.287,788.346C201.287,788.618 201.257,788.787 201.197,788.854C201.138,788.92 201,788.953 200.784,788.953L199.891,788.953L199.891,788.656L200.612,788.656C200.732,788.656 200.804,788.64 200.832,788.609C200.858,788.578 200.872,788.485 200.872,788.33C200.872,788.193 200.86,788.11 200.836,788.076C200.813,788.044 200.736,788.028 200.605,788.028L200.34,788.028L200.34,787.406L200.562,787.406ZM205.342,786.501L205.342,786.127C205.342,785.957 205.256,785.834 205.084,785.756C204.913,785.676 204.639,785.637 204.263,785.637C203.92,785.637 203.69,785.681 203.575,785.767C203.458,785.853 203.401,786.019 203.401,786.265C203.401,786.545 203.462,786.73 203.585,786.823C203.707,786.916 203.952,786.963 204.321,786.963C204.651,786.963 204.903,786.923 205.08,786.844C205.255,786.764 205.342,786.649 205.342,786.501M205.369,787.031C205.288,787.18 205.159,787.287 204.983,787.354C204.806,787.421 204.562,787.454 204.249,787.454C203.693,787.454 203.32,787.374 203.132,787.216C202.942,787.057 202.848,786.762 202.848,786.329C202.848,786.079 202.87,785.883 202.914,785.742C202.958,785.6 203.03,785.486 203.132,785.401C203.217,785.328 203.342,785.278 203.508,785.248C203.674,785.217 203.911,785.202 204.222,785.202C204.543,785.202 204.79,785.228 204.959,785.281C205.129,785.334 205.257,785.422 205.342,785.546L205.342,784.933C205.342,784.644 205.286,784.455 205.174,784.369C205.062,784.284 204.779,784.241 204.328,784.241C204,784.241 203.781,784.276 203.673,784.345C203.565,784.413 203.509,784.542 203.504,784.732L202.979,784.732L202.979,784.65C202.979,784.346 203.078,784.13 203.274,784.001C203.471,783.871 203.811,783.806 204.292,783.806C204.667,783.806 204.953,783.822 205.149,783.854C205.345,783.884 205.49,783.935 205.584,784.005C205.688,784.086 205.76,784.186 205.803,784.306C205.846,784.425 205.867,784.63 205.867,784.92L205.867,787.406L205.39,787.406L205.369,787.031ZM205.404,782.549C205.346,782.752 205.263,782.904 205.155,783.005C205.047,783.106 204.916,783.157 204.761,783.157C204.73,783.157 204.695,783.154 204.658,783.149C204.62,783.143 204.581,783.134 204.539,783.123L204.218,783.028C204.177,783.015 204.144,783.005 204.117,782.999C204.089,782.993 204.063,782.991 204.037,782.991C203.973,782.991 203.915,783.012 203.86,783.054C203.806,783.097 203.761,783.157 203.726,783.233L203.456,783.233C203.506,783.037 203.586,782.886 203.699,782.781C203.811,782.676 203.949,782.625 204.113,782.625C204.149,782.625 204.182,782.627 204.211,782.632C204.24,782.636 204.268,782.643 204.292,782.653L204.619,782.757C204.646,782.765 204.677,782.774 204.71,782.78C204.744,782.787 204.776,782.791 204.805,782.791C204.88,782.791 204.945,782.771 204.998,782.732C205.051,782.693 205.095,782.632 205.128,782.549L205.404,782.549ZM209.335,785.935L209.335,785.328C209.335,784.881 209.279,784.596 209.165,784.474C209.051,784.351 208.813,784.29 208.449,784.29L208.203,784.29C207.84,784.29 207.604,784.351 207.492,784.472C207.38,784.594 207.325,784.88 207.325,785.328L207.325,785.935C207.325,786.387 207.382,786.674 207.493,786.796C207.606,786.916 207.842,786.977 208.203,786.977L208.449,786.977C208.811,786.977 209.049,786.915 209.164,786.792C209.278,786.669 209.335,786.383 209.335,785.935M208.209,787.454C207.679,787.454 207.308,787.35 207.096,787.143C206.885,786.937 206.779,786.573 206.779,786.054L206.779,785.21C206.779,784.688 206.884,784.324 207.095,784.117C207.305,783.91 207.674,783.806 208.203,783.806L208.449,783.806C208.98,783.806 209.352,783.91 209.564,784.117C209.775,784.324 209.881,784.688 209.881,785.21L209.881,786.054C209.881,786.575 209.777,786.94 209.566,787.145C209.355,787.352 208.984,787.454 208.455,787.454L208.209,787.454Z" style="fill:white;fill-rule:nonzero;"/>
            </g>
            <g transform="matrix(36.650946,0,0,36.650946,2211.426527,2729.143137)">
                <path d="M0,-21.791L0,0L4.365,0L4.365,-8.72L10.893,-8.72L10.893,-13.071L4.365,-13.071L4.365,-17.436L13.071,-17.436L13.071,-21.791L0,-21.791Z" style="fill:white;fill-rule:nonzero;"/>
            </g>
            <g transform="matrix(36.650946,0,0,36.650946,2517.392286,2729.143137)">
                <path d="M0,-21.791L6.191,-10.907L0,-0.014L5.001,0L8.706,-6.501L12.411,0L17.421,0L11.207,-10.907L17.421,-21.791L12.411,-21.791L8.706,-15.299L5.001,-21.791L0,-21.791Z" style="fill:white;fill-rule:nonzero;"/>
            </g>
            <g transform="matrix(36.650946,0,0,36.650946,4018.970529,2729.143137)">
                <path d="M0,-21.791L0,0L4.365,0L4.365,-8.72L10.625,-0.351L16.882,-8.72L16.882,0L21.247,0L21.247,-21.791L10.625,-7.622L0,-21.791Z" style="fill:white;fill-rule:nonzero;"/>
            </g>
            <g transform="matrix(36.650946,0,0,36.650946,4797.590547,2729.143137)">
                <path d="M0,-21.791L0,0L13.071,0L13.071,-4.365L4.365,-4.365L4.365,-8.72L10.893,-8.72L10.893,-13.071L4.365,-13.071L4.365,-17.436L13.071,-17.436L13.071,-21.791L0,-21.791Z" style="fill:white;fill-rule:nonzero;"/>
            </g>
            <g transform="matrix(36.650946,0,0,36.650946,5276.647726,1930.482383)">
                <path d="M0,21.791L4.365,21.791L4.365,13.813L9.934,21.791L15.262,21.791L10.339,14.75C11.774,14.206 12.951,13.292 13.874,11.996C14.801,10.704 15.262,9.246 15.262,7.627C15.262,5.537 14.515,3.742 13.015,2.247C11.521,0.748 9.721,0 7.622,0L0,0L0,21.791ZM4.365,10.897L4.365,4.355L7.622,4.355C8.526,4.355 9.296,4.678 9.934,5.32C10.575,5.966 10.893,6.731 10.893,7.627C10.893,8.526 10.575,9.297 9.934,9.938C9.296,10.575 8.526,10.897 7.622,10.897L4.365,10.897Z" style="fill:white;fill-rule:nonzero;"/>
            </g>
            <g transform="matrix(36.650946,0,0,36.650946,-396.823352,-27069.131136)">
                <rect x="170.06" y="791.238" width="4.365" height="21.791" style="fill:white;"/>
            </g>
            <g transform="matrix(36.650946,0,0,36.650946,6392.819286,2729.143137)">
                <path d="M0,-21.791C-2.999,-21.791 -5.564,-20.721 -7.696,-18.584C-9.828,-16.448 -10.893,-13.888 -10.893,-10.894C-10.893,-7.895 -9.828,-5.329 -7.696,-3.197C-5.564,-1.066 -2.999,0 0,0C1.5,0 2.907,-0.286 4.226,-0.858C5.545,-1.431 6.704,-2.21 7.705,-3.202L4.623,-6.284C3.345,-5.006 1.804,-4.365 0,-4.365C-1.799,-4.365 -3.34,-5.001 -4.614,-6.279C-5.892,-7.553 -6.528,-9.094 -6.528,-10.894C-6.528,-12.688 -5.892,-14.224 -4.614,-15.512C-3.34,-16.794 -1.799,-17.436 0,-17.436C1.786,-17.436 3.326,-16.799 4.623,-15.516L7.705,-18.598C6.704,-19.581 5.545,-20.361 4.226,-20.933C2.907,-21.505 1.5,-21.791 0,-21.791" style="fill:white;fill-rule:nonzero;"/>
            </g>
            <g transform="matrix(36.650946,0,0,36.650946,6851.615823,2209.83589)">
                <path d="M0,6.547L1.716,2.732L3.419,6.547L0,6.547ZM-1.961,10.898L5.394,10.898L5.458,11.046L6.852,14.169L11.516,14.169L2.173,-6.593L1.703,-7.622L1.241,-6.607L-8.083,14.169L-3.437,14.169L-2.03,11.059L-1.961,10.898Z" style="fill:white;fill-rule:nonzero;"/>
            </g>
            <g transform="matrix(36.650946,0,0,36.650946,3632.006181,2209.83589)">
                <path d="M0,6.547L1.717,2.732L3.419,6.547L0,6.547ZM-1.96,10.898L5.394,10.898L5.458,11.046L6.852,14.169L11.517,14.169L2.173,-6.593L1.703,-7.622L1.242,-6.607L-8.083,14.169L-3.437,14.169L-2.03,11.059L-1.96,10.898Z" style="fill:white;fill-rule:nonzero;"/>
            </g>
            <g transform="matrix(36.650946,0,0,36.650946,-396.823352,-26842.958151)">
                <path d="M41.854,794.247L41.854,784.008L62.254,784.008L62.254,814.088L41.854,814.088L41.854,810.193C42.198,808.83 42.595,806.033 42.705,805.481C42.705,805.481 42.705,805.482 42.704,805.482L42.705,805.479L42.689,805.498C42.439,805.759 42.153,806.028 41.854,806.305L41.854,799.326C42.863,801.235 44.023,803.513 44.651,804.914L44.659,804.927C46.977,800.504 49.297,796.567 52.047,792.522C53.935,790.904 58.951,789.879 59.49,786.293C56.686,787.911 54.403,788.513 51.994,789.556C50.943,789.908 50.065,790.335 49.513,790.904L46.384,795.974C44.928,792.253 46.276,793.007 46.708,792.684C46.115,792.253 45.414,792.253 44.928,792.253C43.256,792.09 43.634,795.435 42.879,796.028C42.869,796.017 42.859,796.006 42.849,795.993L42.851,795.998L42.845,795.989C42.711,795.824 42.544,795.526 42.345,795.145C42.15,794.802 41.992,794.509 41.854,794.247ZM52.248,797.948C51.561,798.116 50.401,797.819 50.078,797.361C49.952,797.72 49.673,798.089 49.695,798.439C49.757,798.58 49.914,798.637 50.024,798.736C50.184,798.781 50.324,798.877 50.504,798.87C50.726,798.862 51.208,798.802 52.248,797.948ZM58.1,789.924L55.889,791.488C54.81,792.081 54.54,792.459 52.653,793.268C52.419,793.484 52.113,793.591 51.952,793.915L51.628,794.562C53.051,794.184 54.648,794.023 56.698,792.513C57.183,791.973 57.723,791.65 58.1,789.924ZM44.084,806.383L42.988,811.168L44.959,811.23L44.084,806.383ZM55.817,794.338C54.984,794.741 54.45,794.961 53.452,795.257L50.763,795.84C51.069,797.673 55.178,796.228 55.817,794.338ZM45.604,805.316L46.629,810.763L48.57,809.684L45.604,805.316Z" style="fill:white;"/>
            </g>
            <g transform="matrix(36.650946,0,0,36.650946,690.426948,2658.388487)">
                <path d="M1.757,-16.052C1.629,-16.182 1.498,-16.327 1.363,-16.495C0.96,-16.995 0.521,-17.688 0,-18.715C3.454,-17.19 4.18,-16.579 9.181,-14.766C10.475,-13.868 11.471,-12.111 12.189,-10.734C12.371,-10.386 12.534,-10.062 12.68,-9.782C12.485,-10.125 12.327,-10.419 12.189,-10.681L12.189,-5.602C13.198,-3.692 14.358,-1.414 14.986,-0.014C13.995,-1.679 13.107,-3.41 12.189,-5.122C10.978,-7.38 9.714,-9.604 8.09,-11.596C6.541,-13.336 6.833,-12.963 4.314,-14.238C3.268,-15.065 2.556,-15.245 1.757,-16.052ZM13.18,-8.938C13.182,-8.937 13.183,-8.935 13.184,-8.934C13.185,-8.932 13.185,-8.931 13.186,-8.929C13.184,-8.932 13.182,-8.935 13.18,-8.938Z" style="fill:white;"/>
            </g>
            <g transform="matrix(36.650946,0,0,36.650946,698.409524,2278.248545)">
                <path d="M0,-4.638L2.211,-3.074C3.29,-2.481 3.56,-2.103 5.447,-1.294C5.681,-1.078 5.986,-0.971 6.148,-0.647L6.472,0C5.048,-0.378 3.452,-0.539 1.402,-2.049C0.917,-2.589 0.377,-2.912 0,-4.638" style="fill:white;"/>
            </g>
            <g transform="matrix(36.650946,0,0,36.650946,779.748967,2393.042971)">
                <path d="M0,-3.335C0.833,-2.932 1.367,-2.712 2.365,-2.416L5.054,-1.833C4.748,0 0.639,-1.445 0,-3.335" style="fill:white;"/>
            </g>
            <g transform="matrix(36.650946,0,0,36.650946,915.379456,2416.081756)">
                <path d="M0,-0.342C0.687,-0.174 1.847,-0.47 2.17,-0.929C2.296,-0.569 2.575,-0.201 2.553,0.149C2.491,0.29 2.333,0.347 2.224,0.447C2.064,0.491 1.924,0.587 1.744,0.58C1.521,0.572 1.04,0.512 0,-0.342" style="fill:white;"/>
            </g>
            <g transform="matrix(36.650946,0,0,36.650946,1168.358943,2877.949641)">
                <path d="M-1.119,-0L-3.475,-1.394L-0.851,-4.448L-0.851,-4.042C-1.732,-2.805 -2.21,-2.885 -3.465,-1.388C-2.092,-1.104 -1.664,-0.719 -0.795,0.144C-0.795,0.144 -1.119,-0 -1.119,-0L-1.119,-0Z" style="fill:white;"/>
            </g>
            <g transform="matrix(36.650946,0,0,36.650946,690.426948,2331.132194)">
                <path d="M0,-9.786C2.229,-9.1 3.396,-8.228 6.002,-7.379C11.151,-5.703 11.047,-4.884 13.186,0C11.446,-2.835 11.977,-2.877 9.437,-5.497C7.326,-6.494 8.275,-6.103 5.87,-6.974C2.914,-8.044 2.6,-8.558 0,-9.786" style="fill:white;"/>
            </g>
            <g transform="matrix(-28.604663,22.914299,22.914299,28.604663,1394.003537,2411.329811)">
                <path d="M7.496,-21.347C8.391,-14.667 4.188,-15.001 5.725,-5.993C6.096,-3.818 6.937,0.484 7.496,2.632C7.056,-0.903 6.014,-5.647 5.829,-8.849C5.49,-14.731 8.855,-15.852 7.496,-21.347" style="fill:white;"/>
            </g>
            <g transform="matrix(-21.351239,29.789535,29.789535,21.351239,955.157523,2146.384483)">
                <path d="M3.236,-6.3C3.21,-3.374 2.787,-2.319 2.661,-0.042C2.612,0.841 2.776,1.154 3.236,1.662C3.044,1.187 2.912,0.941 2.908,0.356C2.893,-2.067 3.82,-1.785 3.236,-6.3" style="fill:white;"/>
            </g>
            <g transform="matrix(36.650946,0,0,36.650946,698.409524,2278.248545)">
                <path d="M0,-4.638C0.936,-2.097 3.993,-0.581 6.471,0C4.063,-0.045 0.184,-1.879 0,-4.638" style="fill:white;"/>
            </g>
            <g transform="matrix(36.650946,0,0,36.650946,779.748967,2325.898439)">
                <path d="M0,-1.503C0.513,-1.424 4.69,-0.136 5.054,0C1.934,-0.493 2.436,-0.202 0,-1.503" style="fill:white;"/>
            </g>
            <g transform="matrix(36.650946,0,0,36.650946,779.748967,2387.472028)">
                <path d="M0,-3.183C1.079,-1.829 4.441,0 5.054,-1.68C5.744,-0.18 0.71,-0.523 0,-3.183" style="fill:white;"/>
            </g>
            <g transform="matrix(36.650946,0,0,36.650946,915.379456,2391.067485)">
                <path d="M0,0.319C0.894,0.36 1.609,-0.017 2.174,-0.246C1.934,0.423 0.07,0.565 0,0.319" style="fill:white;"/>
            </g>
            <g transform="matrix(36.650946,0,0,36.650946,915.379456,2460.704282)">
                <path d="M0,-1.561C1.862,-0.67 2.638,-0.404 2.174,-2.146C3.281,-1.203 2.521,0.585 0,-1.561" style="fill:white;"/>
            </g>
            <g transform="matrix(36.650946,0,0,36.650946,1168.358943,2877.949641)">
                <path d="M-1.119,-0L-1.119,0L-1.119,-0.001C-1.119,-0.001 -1.119,-0 -1.119,-0Z" style="fill:white;"/>
            </g>
            <g transform="matrix(36.650946,0,0,36.650946,1041.011567,2678.696776)">
                <path d="M0.01,4.048C0.01,4.048 0.002,4.057 0,4.06C0.001,4.056 0.006,4.037 0.007,4.034C0.331,2.884 1.559,1.808 2.623,0.823L2.623,1.394C1.743,2.631 1.265,2.552 0.01,4.048Z" style="fill:white;"/>
            </g>
            <g transform="matrix(36.650946,0,0,36.650946,1041.011567,2877.945976)">
                <path d="M0,-1.39C1.382,-1.105 1.808,-0.721 2.68,0.144C1.419,-0.084 0.823,-0.64 0,-1.39" style="fill:white;"/>
            </g>
        </g>
    </g>
</svg>
