<?xml version="1.0" encoding="UTF-8" standalone="no"?>
<!DOCTYPE svg PUBLIC "-//W3C//DTD SVG 1.1//EN" "http://www.w3.org/Graphics/SVG/1.1/DTD/svg11.dtd">
<svg width="100%" height="100%" viewBox="0 0 2989 2390" version="1.1" xmlns="http://www.w3.org/2000/svg" xmlns:xlink="http://www.w3.org/1999/xlink" xml:space="preserve" xmlns:serif="http://www.serif.com/" style="fill-rule:evenodd;clip-rule:evenodd;stroke-linejoin:round;stroke-miterlimit:2;">
    <g transform="matrix(1,0,0,1,-2505.87875,-1060.866666)">
        <g transform="matrix(4.166667,0,0,4.166667,2606.22875,2622.795833)">
            <path d="M0,0.303C0,8.531 2.93,15.58 8.803,21.453C14.671,27.321 21.72,30.254 29.951,30.254C38.178,30.254 45.25,27.321 51.175,21.453C57.094,15.58 60.049,8.531 60.049,0.303C60.049,-8.024 57.094,-15.147 51.175,-21.073C45.25,-26.99 38.178,-29.951 29.951,-29.951C21.72,-29.951 14.671,-26.99 8.803,-21.073C2.93,-15.147 0,-8.024 0,0.303M-8.35,38.606C-18.839,28.122 -24.084,15.353 -24.084,0.303C-24.084,-14.751 -18.839,-27.563 -8.35,-38.152C2.132,-48.737 14.9,-54.034 29.951,-54.034C45.003,-54.034 57.792,-48.737 68.328,-38.152C78.862,-27.563 84.13,-14.751 84.13,0.303C84.13,15.353 78.862,28.122 68.328,38.606C57.792,49.092 45.003,54.337 29.951,54.337C14.9,54.337 2.132,49.092 -8.35,38.606" style="fill:white;fill-rule:nonzero;"/>
        </g>
        <g transform="matrix(4.166667,0,0,4.166667,3291.346667,2463.190833)">
            <path d="M0,76.911C-10.585,66.43 -15.881,53.661 -15.881,38.61C-15.881,23.558 -10.585,10.742 0,0.151C10.584,-10.434 23.403,-15.727 38.454,-15.727C52.5,-15.727 64.644,-11.061 74.878,-1.729C76.385,-0.326 76.432,1.083 75.029,2.486L63.289,14.678C61.984,15.882 60.731,15.882 59.527,14.678C53.705,9.56 46.93,7.003 39.208,7.003C30.778,7.003 23.751,10.037 18.135,16.107C12.517,22.178 9.714,29.477 9.714,38.008C9.714,46.438 12.542,53.638 18.206,59.605C23.877,65.576 30.929,68.557 39.356,68.557C47.184,68.557 53.902,66.153 59.527,61.331C60.928,60.126 62.236,60.181 63.44,61.487L75.18,73.981C76.481,75.281 76.432,76.636 75.029,78.038C64.994,87.773 52.802,92.638 38.454,92.638C23.403,92.638 10.584,87.401 0,76.911" style="fill:white;fill-rule:nonzero;"/>
        </g>
        <g transform="matrix(4.166667,0,0,4.166667,3895.574583,2415.845)">
            <path d="M0,99.639L0,0.004C0,-0.802 0.275,-1.477 0.825,-2.031C1.376,-2.578 2.052,-2.86 2.858,-2.86L65.171,-2.86C65.972,-2.86 66.646,-2.578 67.202,-2.031C67.754,-1.477 68.033,-0.802 68.033,0.004L68.033,16.404C68.033,17.212 67.754,17.892 67.202,18.44C66.646,18.994 65.972,19.264 65.171,19.264L23.479,19.264L23.479,37.928L57.789,37.928C58.495,37.928 59.149,38.207 59.754,38.759C60.356,39.313 60.656,39.988 60.656,40.788L60.656,57.194C60.656,58.002 60.379,58.676 59.825,59.23C59.278,59.779 58.595,60.053 57.789,60.053L23.479,60.053L23.479,80.373L65.171,80.373C65.972,80.373 66.646,80.65 67.202,81.204C67.754,81.754 68.033,82.434 68.033,83.235L68.033,99.639C68.033,100.448 67.754,101.12 67.202,101.668C66.646,102.222 65.972,102.499 65.171,102.499L2.858,102.499C2.052,102.499 1.376,102.222 0.825,101.668C0.275,101.12 0,100.448 0,99.639" style="fill:white;fill-rule:nonzero;"/>
        </g>
        <g transform="matrix(4.166667,0,0,4.166667,4590.41125,2548.155833)">
            <path d="M0,34.623L22.877,34.623L11.441,9.788L11.287,9.788L0,34.623ZM-36.423,70.744C-37.527,70.744 -38.358,70.344 -38.905,69.543C-39.457,68.734 -39.482,67.837 -38.983,66.831L8.128,-34.466C8.627,-35.564 9.483,-36.121 10.687,-36.121L12.192,-36.121C13.396,-36.121 14.245,-35.564 14.752,-34.466L61.862,66.831C62.362,67.837 62.337,68.734 61.785,69.543C61.229,70.344 60.405,70.744 59.303,70.744L42.597,70.744C40.284,70.744 38.532,69.494 37.328,66.985L31.909,55.093L-9.03,55.093L-14.449,67.134C-15.447,69.543 -17.26,70.744 -19.868,70.744L-36.423,70.744Z" style="fill:white;fill-rule:nonzero;"/>
        </g>
        <g transform="matrix(4.166667,0,0,4.166667,5117.209167,2415.874167)">
            <path d="M0,99.632L-0.151,-1.665C-0.151,-2.36 0.119,-2.988 0.673,-3.542C1.227,-4.091 1.903,-4.367 2.708,-4.367L4.966,-4.367C5.966,-4.367 7.223,-3.615 8.728,-2.113L66.526,53.423L66.677,53.423L66.677,-0.003C66.677,-0.809 66.948,-1.484 67.502,-2.038C68.056,-2.585 68.729,-2.867 69.53,-2.867L87.592,-2.867C88.297,-2.867 88.947,-2.562 89.554,-1.96C90.152,-1.356 90.458,-0.705 90.458,-0.003L90.458,101.288C90.458,103.094 89.501,103.999 87.592,103.999L86.086,103.999C84.684,103.999 83.432,103.444 82.331,102.341L23.779,43.489L23.63,43.489L23.63,99.632C23.63,100.441 23.353,101.113 22.806,101.661C22.249,102.215 21.572,102.492 20.77,102.492L2.858,102.492C2.052,102.492 1.378,102.192 0.825,101.59C0.275,100.987 0,100.337 0,99.632" style="fill:white;fill-rule:nonzero;"/>
        </g>
        <g transform="matrix(4.166667,0,0,4.166667,3115.577083,2977.5575)">
            <path d="M0,113.445C-0.639,113.445 -1.179,113.163 -1.614,112.609C-2.053,112.049 -2.191,111.41 -2.035,110.693L8.139,37.454L-0.716,37.454C-1.433,37.454 -1.992,37.195 -2.39,36.677C-2.793,36.158 -2.949,35.539 -2.871,34.823L-2.511,32.311C-2.113,30.553 -1.234,29.674 0.121,29.674L9.211,29.674L10.41,20.82C12.247,6.942 18.868,0 30.279,0C35.545,0 39.886,1.795 43.318,5.382C44.197,6.259 44.234,7.304 43.439,8.494L41.289,11.367C40.332,12.727 39.212,12.761 37.935,11.488C35.382,9.096 32.589,7.899 29.562,7.899C26.449,7.899 24.095,8.975 22.499,11.127C20.903,13.281 19.825,16.514 19.267,20.82L18.066,29.674L32.433,29.674C33.15,29.674 33.704,29.94 34.107,30.453C34.503,30.974 34.661,31.591 34.59,32.311L34.107,34.823C34.027,35.539 33.727,36.158 33.21,36.677C32.692,37.195 32.072,37.454 31.355,37.454L16.99,37.454L6.821,110.693C6.658,111.41 6.303,112.049 5.744,112.609C5.184,113.163 4.625,113.445 4.068,113.445L0,113.445Z" style="fill:white;fill-rule:nonzero;"/>
        </g>
        <g transform="matrix(4.166667,0,0,4.166667,3543.392083,3129.1525)">
            <path d="M0,41.998C5.268,41.998 9.89,39.586 13.883,34.756C17.869,29.933 19.868,24.209 19.868,17.585C19.868,12.644 18.591,8.471 16.034,5.082C13.48,1.691 10.211,-0.005 6.225,-0.005C0.957,-0.005 -3.666,2.371 -7.658,7.116C-11.644,11.866 -13.643,17.551 -13.643,24.168C-13.643,29.278 -12.384,33.522 -9.872,36.911C-7.359,40.308 -4.064,41.998 0,41.998M-22.018,24.889C-22.018,15.955 -19.204,8.253 -13.584,1.787C-7.961,-4.671 -1.113,-7.899 6.941,-7.899C12.764,-7.899 17.792,-5.468 22.016,-0.603C26.249,4.263 28.362,10.092 28.362,16.868C28.362,25.882 25.533,33.642 19.868,40.144C14.202,46.646 7.34,49.897 -0.717,49.897C-6.539,49.897 -11.548,47.443 -15.739,42.534C-19.922,37.628 -22.018,31.746 -22.018,24.889" style="fill:white;fill-rule:nonzero;"/>
        </g>
        <g transform="matrix(4.166667,0,0,4.166667,3976.68,3129.1525)">
            <path d="M0,41.998C5.269,41.998 9.891,39.586 13.884,34.756C17.868,29.933 19.868,24.209 19.868,17.585C19.868,12.644 18.591,8.471 16.031,5.082C13.481,1.691 10.212,-0.005 6.226,-0.005C0.957,-0.005 -3.665,2.371 -7.659,7.116C-11.645,11.866 -13.643,17.551 -13.643,24.168C-13.643,29.278 -12.386,33.522 -9.875,36.911C-7.358,40.308 -4.064,41.998 0,41.998M-22.018,24.889C-22.018,15.955 -19.207,8.253 -13.584,1.787C-7.953,-4.671 -1.115,-7.899 6.942,-7.899C12.764,-7.899 17.792,-5.468 22.016,-0.603C26.25,4.263 28.363,10.092 28.363,16.868C28.363,25.882 25.533,33.642 19.868,40.144C14.202,46.646 7.338,49.897 -0.716,49.897C-6.538,49.897 -11.548,47.443 -15.738,42.534C-19.921,37.628 -22.018,31.746 -22.018,24.889" style="fill:white;fill-rule:nonzero;"/>
        </g>
        <g transform="matrix(4.166667,0,0,4.166667,4406.985833,3015.44)">
            <path d="M0,69.289C2.397,69.289 4.806,68.513 7.243,66.954C9.67,65.402 11.53,63.829 12.807,62.228L14.6,59.838L18.431,30.759C15.479,28.447 11.644,27.286 6.944,27.286C1.753,27.286 -2.709,29.722 -6.459,34.588C-10.209,39.452 -12.082,45.197 -12.082,51.818C-12.082,56.605 -11.027,60.715 -8.915,64.143C-6.802,67.574 -3.828,69.289 0,69.289M-2.388,77.188C-7.819,77.188 -12.304,74.818 -15.857,70.068C-19.404,65.322 -21.178,59.561 -21.178,52.775C-21.178,43.443 -18.488,35.544 -13.098,29.078C-7.716,22.62 -0.998,19.392 7.065,19.392C8.496,19.392 9.895,19.507 11.248,19.746C12.608,19.987 13.765,20.264 14.721,20.582C15.678,20.903 16.534,21.246 17.292,21.601C18.052,21.963 18.629,22.265 19.026,22.499C19.431,22.739 19.664,22.86 19.749,22.86L23.698,-5.261C24.019,-7.016 24.896,-7.899 26.329,-7.899L30.521,-7.899C31.157,-7.899 31.694,-7.633 32.133,-7.116C32.572,-6.599 32.747,-5.985 32.676,-5.261L21.663,73.836C21.422,75.197 20.587,75.872 19.147,75.872L16.397,75.872C15.36,75.872 14.758,75.197 14.6,73.836L14.119,70.37L13.283,71.085C12.723,71.568 11.971,72.144 11.014,72.817C10.055,73.499 8.935,74.161 7.66,74.794C6.383,75.436 4.847,75.99 3.054,76.474C1.261,76.948 -0.559,77.188 -2.388,77.188" style="fill:white;fill-rule:nonzero;"/>
        </g>
        <g transform="matrix(4.166667,0,0,4.166667,4806.380833,3096.229167)">
            <path d="M0,57.799C-5.58,57.799 -10.729,55.841 -15.436,51.935C-16.315,51.06 -16.393,50.062 -15.679,48.941L-13.644,45.836C-12.842,44.476 -11.727,44.355 -10.289,45.474C-6.701,48.426 -2.908,49.9 1.076,49.9C3.631,49.9 5.785,49.123 7.539,47.57C9.295,46.01 10.174,44.121 10.174,41.879C10.174,40.051 9.435,38.351 7.961,36.799C6.483,35.24 4.112,33.427 0.842,31.35C-1.873,29.677 -3.846,28.383 -5.083,27.46C-6.322,26.545 -7.633,25.052 -9.032,22.975C-10.427,20.899 -11.128,18.63 -11.128,16.155C-11.128,12.084 -9.591,8.375 -6.52,5.021C-3.45,1.676 1.076,0 7.063,0C12.643,0 17.15,1.355 20.582,4.064C21.782,5.108 21.938,6.419 21.059,8.015L19.866,10.289C19.067,11.729 17.833,11.965 16.152,11.008C12.883,8.936 9.572,7.901 6.225,7.901C3.432,7.901 1.337,8.616 -0.055,10.048C-1.459,11.489 -2.15,13.163 -2.15,15.076C-2.15,16.277 -1.733,17.455 -0.897,18.604C-0.055,19.767 0.801,20.64 1.68,21.242C2.552,21.837 3.906,22.735 5.742,23.932C8.054,25.45 9.813,26.625 11.01,27.46C12.21,28.303 13.565,29.434 15.081,30.876C16.592,32.307 17.671,33.866 18.309,35.542C18.948,37.213 19.266,39.05 19.266,41.044C19.266,45.595 17.574,49.52 14.179,52.831C10.79,56.143 6.062,57.799 0,57.799" style="fill:white;fill-rule:nonzero;"/>
        </g>
        <g transform="matrix(456.007195,450.958824,450.958824,-456.007195,3848.863673,1173.555574)">
            <path d="M0.037,0.284C-0.019,0.228 -0.018,0.151 0.044,0.082C0.149,-0.037 0.28,-0.112 0.436,-0.144C0.545,-0.167 0.632,-0.131 0.696,-0.042L0.697,-0.041C0.7,-0.035 0.72,-0.001 0.749,0.048C0.814,0.154 0.923,0.329 1.001,0.413C1.001,0.413 1.008,0.421 1.011,0.425C1.004,0.42 0.942,0.388 0.848,0.34C0.78,0.306 0.708,0.28 0.633,0.267C0.509,0.245 0.385,0.254 0.26,0.293C0.228,0.303 0.197,0.314 0.165,0.321C0.119,0.331 0.078,0.321 0.043,0.289C0.041,0.288 0.037,0.284 0.037,0.284Z" style="fill:white;fill-rule:nonzero;"/>
        </g>
        <g transform="matrix(-302.882958,568.74663,568.74663,302.882958,4470.21652,1411.345724)">
            <path d="M0.046,0.038C0.15,-0.081 0.279,-0.158 0.434,-0.192C0.542,-0.215 0.628,-0.181 0.694,-0.093L0.694,-0.092C0.698,-0.086 0.718,-0.052 0.748,-0.004C0.813,0.101 0.924,0.274 1.002,0.357C1.002,0.357 1.009,0.365 1.012,0.368C1.005,0.364 0.943,0.332 0.849,0.286C0.781,0.253 0.709,0.228 0.634,0.215C0.511,0.195 0.387,0.205 0.263,0.246C0.232,0.256 0.201,0.267 0.169,0.275C0.124,0.285 0.082,0.276 0.047,0.244C-0.004,0.199 -0.014,0.138 0.018,0.078C0.025,0.065 0.034,0.051 0.046,0.038Z" style="fill:white;fill-rule:nonzero;"/>
        </g>
        <g transform="matrix(550.573858,-320.046615,-320.046615,-550.573858,3487.146273,1652.546048)">
            <path d="M0.837,0.35C0.769,0.315 0.697,0.289 0.621,0.275C0.497,0.253 0.371,0.262 0.245,0.301C0.213,0.31 0.182,0.321 0.149,0.329C0.104,0.339 0.062,0.328 0.027,0.296C-0.036,0.239 -0.036,0.159 0.028,0.087C0.135,-0.032 0.267,-0.107 0.424,-0.139C0.533,-0.162 0.621,-0.126 0.686,-0.036L0.686,-0.035C0.69,-0.029 0.71,0.006 0.739,0.055C0.803,0.162 0.913,0.338 0.991,0.423C0.991,0.423 0.998,0.432 1.001,0.435C0.994,0.431 0.932,0.398 0.837,0.35Z" style="fill:white;fill-rule:nonzero;"/>
        </g>
        <g transform="matrix(-112.403035,-626.967812,-626.967812,112.403035,3748.746138,2163.835562)">
            <path d="M1.001,0.354C0.994,0.35 0.932,0.317 0.837,0.269C0.769,0.235 0.697,0.208 0.621,0.194C0.497,0.172 0.372,0.181 0.245,0.22C0.213,0.229 0.182,0.24 0.15,0.248C0.104,0.258 0.062,0.248 0.027,0.215C-0.035,0.158 -0.036,0.078 0.028,0.007C0.135,-0.112 0.267,-0.188 0.424,-0.22C0.533,-0.243 0.621,-0.206 0.686,-0.117L0.686,-0.116C0.69,-0.11 0.71,-0.075 0.739,-0.026C0.803,0.082 0.913,0.257 0.991,0.343C0.991,0.343 0.998,0.351 1.001,0.354Z" style="fill:white;fill-rule:nonzero;"/>
        </g>
        <g transform="matrix(-631.679344,-89.517776,-89.517776,631.679344,4353.999261,2129.272254)">
            <path d="M0.685,-0.2L0.686,-0.199C0.689,-0.192 0.709,-0.158 0.738,-0.109C0.802,-0.001 0.911,0.175 0.988,0.26L0.989,0.261C0.992,0.265 0.995,0.268 0.999,0.272C0.991,0.267 0.93,0.234 0.835,0.186C0.767,0.151 0.695,0.124 0.62,0.111C0.496,0.088 0.37,0.096 0.244,0.134C0.212,0.144 0.181,0.155 0.148,0.162C0.103,0.172 0.061,0.162 0.026,0.129C-0.036,0.072 -0.036,-0.008 0.028,-0.079C0.135,-0.198 0.268,-0.273 0.424,-0.304C0.458,-0.311 0.489,-0.312 0.519,-0.308C0.585,-0.299 0.641,-0.262 0.685,-0.2Z" style="fill:white;fill-rule:nonzero;"/>
        </g>
        <g transform="matrix(4.166667,0,0,4.166667,5402.693333,2149.399167)">
            <path d="M0,-1.51L5.055,-1.51C5.996,-1.51 6.749,-1.801 7.319,-2.371C7.892,-2.943 8.18,-3.649 8.18,-4.48C8.18,-5.381 7.903,-6.105 7.344,-6.648C6.79,-7.183 6.025,-7.452 5.055,-7.452L0,-7.452L0,-1.51ZM-3.336,7.767L-3.336,-9.324C-3.336,-9.608 -3.24,-9.844 -3.047,-10.03C-2.862,-10.222 -2.627,-10.32 -2.342,-10.32L5.055,-10.32C6.79,-10.32 8.295,-9.807 9.558,-8.784C10.829,-7.754 11.461,-6.321 11.461,-4.48C11.461,-2.747 11.022,-1.425 10.137,-0.523C9.251,0.385 8.283,0.958 7.242,1.198C7.589,1.86 8.109,2.876 8.808,4.253C9.499,5.624 10.023,6.652 10.371,7.345C10.54,7.657 10.536,7.973 10.342,8.285C10.153,8.598 9.865,8.754 9.481,8.754L7.711,8.754C7.333,8.754 7.017,8.513 6.772,8.025L3.858,1.512L0,1.512L0,7.767C0,8.044 -0.099,8.28 -0.289,8.472C-0.477,8.658 -0.712,8.754 -0.989,8.754L-2.342,8.754C-2.627,8.754 -2.862,8.658 -3.047,8.472C-3.24,8.28 -3.336,8.044 -3.336,7.767M-7.847,-11.751C-10.887,-8.713 -12.403,-5.038 -12.403,-0.729C-12.403,3.577 -10.887,7.254 -7.847,10.297C-4.806,13.335 -1.134,14.853 3.177,14.853C7.486,14.853 11.161,13.335 14.202,10.297C17.24,7.254 18.758,3.577 18.758,-0.729C18.758,-5.038 17.24,-8.713 14.202,-11.751C11.161,-14.792 7.486,-16.309 3.177,-16.309C-1.134,-16.309 -4.806,-14.792 -7.847,-11.751M-15.528,-0.729C-15.528,-5.906 -13.698,-10.324 -10.031,-13.992C-6.369,-17.658 -1.964,-19.488 3.177,-19.488C8.318,-19.488 12.732,-17.647 16.415,-13.967C20.094,-10.281 21.938,-5.869 21.938,-0.729C21.938,4.413 20.108,8.815 16.44,12.482C12.775,16.149 8.354,17.978 3.177,17.978C-1.964,17.978 -6.369,16.149 -10.031,12.482C-13.698,8.815 -15.528,4.413 -15.528,-0.729" style="fill:white;fill-rule:nonzero;"/>
        </g>
    </g>
</svg>
