<?xml version="1.0" encoding="UTF-8" standalone="no"?>
<!DOCTYPE svg PUBLIC "-//W3C//DTD SVG 1.1//EN" "http://www.w3.org/Graphics/SVG/1.1/DTD/svg11.dtd">
<svg width="100%" height="100%" viewBox="0 0 6266 4187" version="1.1" xmlns="http://www.w3.org/2000/svg" xmlns:xlink="http://www.w3.org/1999/xlink" xml:space="preserve" xmlns:serif="http://www.serif.com/" style="fill-rule:evenodd;clip-rule:evenodd;stroke-linejoin:round;stroke-miterlimit:2;">
    <g transform="matrix(1,0,0,1,-1033.745833,-2073.18875)">
        <g transform="matrix(4.166667,0,0,4.166667,0,0)">
            <g transform="matrix(1,0,0,1,997.1792,497.5685)">
                <path d="M0,71.617C-9.895,71.617 -18.335,68.126 -25.349,61.149C-32.326,54.139 -35.813,45.692 -35.813,35.805C-35.813,25.949 -32.326,17.519 -25.349,10.511C-18.335,3.503 -9.895,0 0,0C9.848,0 18.285,3.503 25.294,10.511C32.302,17.519 35.799,25.949 35.799,35.805C35.799,45.692 32.302,54.139 25.294,61.149C18.285,68.126 9.848,71.617 0,71.617M-30.47,35.585C-30.47,27.242 -27.487,20.11 -21.516,14.206C-15.517,8.292 -8.276,5.341 0.22,5.341C8.618,5.341 15.762,8.325 21.642,14.291C27.523,20.233 30.458,27.327 30.458,35.585C30.458,44.136 27.523,51.396 21.642,57.363C15.762,63.304 8.618,66.27 0.22,66.27C-8.424,66.27 -15.701,63.304 -21.608,57.363C-27.519,51.396 -30.47,44.136 -30.47,35.585M-13.368,55.579L-13.368,15.676L4.716,15.676C8.753,15.676 12.037,16.581 14.561,18.389C17.084,20.173 18.346,22.861 18.346,26.456C18.346,29.956 17.232,32.656 15.008,34.561C12.779,36.461 9.691,37.41 5.739,37.41L17.723,55.579L11.756,55.579L0.397,37.41L-8.247,37.41L-8.247,55.579L-13.368,55.579ZM-8.247,19.459L-8.247,33.624L3.289,33.624C9.912,33.624 13.225,31.131 13.225,26.139C13.225,21.685 9.912,19.459 3.289,19.459L-8.247,19.459Z" style="fill:white;"/>
            </g>
        </g>
        <g transform="matrix(4.166667,0,0,4.166667,0,0)">
            <g transform="matrix(1,0,0,1,1724.499,1490.9767)">
                <path d="M0,-129.882C-7.935,-127.057 -12.73,-119.197 -12.767,-110.78C-12.933,-69.031 -46.949,-35.125 -88.729,-35.125C-130.521,-35.125 -164.526,-69.031 -164.696,-110.78C-164.735,-119.197 -169.532,-127.057 -177.463,-129.882C-191.621,-134.918 -204.858,-124.553 -204.858,-111.093C-204.858,-69.21 -238.944,-35.125 -280.833,-35.125C-322.611,-35.125 -356.63,-69.031 -356.795,-110.78C-356.833,-119.197 -361.63,-127.057 -369.562,-129.882C-383.726,-134.918 -396.964,-124.553 -396.964,-111.093C-396.964,-47.052 -344.868,5.036 -280.833,5.036C-240.948,5.036 -205.699,-15.179 -184.785,-45.894C-163.865,-15.179 -128.615,5.036 -88.729,5.036C-24.695,5.036 27.401,-47.052 27.401,-111.093C27.401,-124.553 14.162,-134.918 0,-129.882" style="fill:white;"/>
            </g>
        </g>
        <g transform="matrix(4.166667,0,0,4.166667,0,0)">
            <g transform="matrix(1,0,0,1,1751.9004,1483.38)">
                <path d="M0,-963.611C0,-974.773 -9.049,-983.82 -20.209,-983.82L-406.887,-983.82C-406.991,-983.82 -407.09,-983.796 -407.187,-983.79C-407.629,-983.796 -408.077,-983.82 -408.518,-983.82C-498.349,-983.82 -583.572,-955.237 -654.973,-901.152C-724.06,-848.828 -775.616,-774.491 -800.152,-691.844C-801.272,-688.046 -801.259,-683.96 -800.101,-680.174C-759.964,-549.782 -641.273,-462.169 -504.763,-462.169C-486.532,-462.169 -468.3,-463.77 -450.565,-466.905C-450.266,-466.961 -449.965,-467.021 -449.665,-467.089C-441.469,-468.561 -433.143,-470.422 -424.947,-472.615C-422.62,-473.234 -420.311,-473.889 -418.006,-474.569C-407.274,-477.76 -395.939,-478.98 -384.938,-476.878C-323.25,-465.098 -273.077,-405.087 -273.077,-337.628C-273.077,-268.014 -330.02,-210.967 -401.424,-207.397C-403.787,-207.355 -406.133,-207.219 -408.518,-207.219C-472.325,-207.219 -535.184,-223.815 -590.349,-255.216C-594.741,-257.715 -599.886,-258.893 -604.843,-257.886C-614.626,-255.902 -621.144,-247.528 -621.223,-238.18L-621.23,-237.401L-621.223,-2.563C-621.223,-2.097 -621.23,-1.625 -621.23,-1.154L-621.223,-1.154C-621.218,10.725 -610.974,20.209 -598.84,18.94C-588.491,17.867 -580.836,8.617 -580.792,-1.79C-580.597,-55.202 -555.29,-104.321 -515.281,-136.175C-488.007,-157.892 -453.384,-167.767 -418.534,-166.921C-415.2,-166.837 -411.855,-166.793 -408.518,-166.793C-405.442,-166.793 -402.385,-166.872 -399.348,-167.027C-178.321,-171.941 0,-353.128 0,-575.311C0,-575.77 -0.023,-576.23 -0.023,-576.688C-0.023,-576.775 0,-576.86 0,-576.945L0,-963.611ZM-267.854,-235.215C-245.762,-263.768 -232.652,-299.237 -232.652,-337.628C-232.652,-413.432 -279.879,-480.138 -344.647,-506.92C-307.125,-529.684 -274.512,-560.351 -249.34,-597.278C-243.061,-606.472 -244.225,-619.392 -253.156,-626.034C-262.48,-632.967 -275.576,-630.653 -281.997,-621.139C-318.392,-567.2 -372.857,-528.325 -435.387,-511.667C-442.639,-509.726 -449.971,-508.089 -457.169,-506.81L-457.169,-506.802C-457.444,-506.754 -457.714,-506.706 -457.983,-506.651C-473.28,-503.961 -489.019,-502.595 -504.763,-502.595C-621.364,-502.595 -723.005,-576.131 -759.59,-686.228C-711.722,-837.963 -568.251,-943.402 -408.518,-943.402C-362.909,-943.402 -318.398,-935.156 -276.214,-918.893C-135.183,-864.562 -40.426,-726.487 -40.426,-575.311C-40.426,-422.149 -134.484,-290.581 -267.854,-235.215" style="fill:white;"/>
            </g>
        </g>
        <g transform="matrix(4.166667,0,0,4.166667,0,0)">
            <g transform="matrix(0,-1,-1,0,1221.8817,670.8427)">
                <path d="M-42.254,-42.255C-18.914,-42.255 -0.004,-23.337 -0.004,-0.002C-0.004,23.337 -18.914,42.254 -42.254,42.254C-65.587,42.254 -84.505,23.337 -84.505,-0.002C-84.505,-23.337 -65.587,-42.255 -42.254,-42.255" style="fill:white;"/>
            </g>
        </g>
        <g transform="matrix(4.166667,0,0,4.166667,0,0)">
            <g transform="matrix(1,0,0,1,248.1035,614.9453)">
                <path d="M0,89.438L53.093,89.438C53.093,127.627 53.093,141.142 54.031,151.384C54.496,158.374 56.357,162.563 61.485,162.563C66.14,162.563 68.005,159.771 68.936,151.849C69.866,143.003 69.866,131.823 69.866,121.576C69.866,101.077 68.936,95.491 62.41,88.034L23.284,42.857C9.31,26.548 0,6.994 0,-35.862C0,-51.697 0.924,-71.729 6.989,-86.169C17.23,-109.461 35.401,-117.38 61.485,-117.38C86.633,-117.38 108.527,-107.132 116.447,-86.169C122.966,-69.403 122.966,-29.805 122.966,5.593L69.866,5.593C69.866,-14.9 69.866,-52.629 68.936,-63.815C68.475,-71.729 65.215,-73.126 61.485,-73.126C57.761,-73.126 54.962,-71.265 54.031,-64.275C53.093,-55.895 53.093,-44.249 53.093,-35.862C53.093,-7.915 54.031,-5.589 62.881,6.523L103.406,51.709C116.447,66.614 122.966,81.982 122.966,116.912C122.966,130.428 122.501,157.443 115.043,175.605C106.199,196.569 91.294,206.818 61.485,206.818C34.93,206.818 13.973,195.173 6.517,175.605C0,158.374 0,142.531 0,89.438" style="fill:white;"/>
            </g>
        </g>
        <g transform="matrix(4.166667,0,0,4.166667,0,0)">
            <g transform="matrix(1,0,0,1,402.2646,818.036)">
                <path d="M0,-316.744L90.363,-316.744L90.363,-272.489L53.098,-272.489L53.098,-183.994L85.7,-183.994L85.7,-142.998L53.098,-142.998L53.098,-44.254L90.363,-44.254L90.363,0L0,0L0,-316.744Z" style="fill:white;"/>
            </g>
        </g>
        <g transform="matrix(4.166667,0,0,4.166667,0,0)">
            <g transform="matrix(1,0,0,1,507.5239,818.036)">
                <path d="M0,-316.744L53.565,-316.744L60.089,-225.447C62.411,-194.236 67.073,-93.157 67.073,-93.157L69.865,-93.157C69.865,-93.157 74.528,-194.236 76.855,-225.447L83.374,-316.744L136.945,-316.744L96.883,0L40.056,0L0,-316.744Z" style="fill:white;"/>
            </g>
        </g>
        <g transform="matrix(4.166667,0,0,4.166667,0,0)">
            <g transform="matrix(1,0,0,1,668.665,818.036)">
                <path d="M0,-316.744L90.371,-316.744L90.371,-272.489L53.106,-272.489L53.106,-183.994L85.703,-183.994L85.703,-142.998L53.106,-142.998L53.106,-44.254L90.371,-44.254L90.371,0L0,0L0,-316.744Z" style="fill:white;"/>
            </g>
        </g>
        <g transform="matrix(4.166667,0,0,4.166667,0,0)">
            <g transform="matrix(1,0,0,1,785.5732,818.036)">
                <path d="M0,-316.744L43.316,-316.744L90.37,-144.395L91.761,-144.866C91.761,-144.866 79.184,-245.015 79.184,-263.643L79.184,-316.744L132.291,-316.744L132.291,0L88.962,0L41.921,-172.342L40.522,-171.881C40.522,-171.881 53.101,-72.664 53.101,-53.571L53.101,0L0,0L0,-316.744Z" style="fill:white;"/>
            </g>
        </g>
        <g transform="matrix(4.166667,0,0,4.166667,0,0)">
            <g transform="matrix(1,0,0,1,248.1035,1310.1109)">
                <path d="M0,-441.773L126.041,-441.773L126.041,-380.055L74.063,-380.055L74.063,-270.902L118.243,-270.902L118.243,-213.734L74.063,-213.734L74.063,0L0,0L0,-441.773Z" style="fill:white;"/>
            </g>
        </g>
        <g transform="matrix(4.166667,0,0,4.166667,0,0)">
            <g transform="matrix(1,0,0,1,0,178.445)">
                <rect x="412.454" y="689.891" width="74.057" height="441.773" style="fill:white;"/>
            </g>
        </g>
        <g transform="matrix(4.166667,0,0,4.166667,0,0)">
            <g transform="matrix(1,0,0,1,531.3325,1026.8546)">
                <path d="M0,124.744L74.058,124.744C74.058,178.015 74.058,196.851 75.363,211.143C76.011,220.89 78.61,226.735 85.758,226.735C92.251,226.735 94.85,222.844 96.142,211.794C97.446,199.455 97.446,183.86 97.446,169.567C97.446,140.976 96.142,133.19 87.051,122.796L32.481,59.778C12.987,37.037 0,9.754 0,-50.019C0,-72.108 1.293,-100.048 9.747,-120.186C24.039,-152.672 49.376,-163.716 85.758,-163.716C120.836,-163.716 151.375,-149.419 162.414,-120.186C171.516,-96.797 171.516,-41.571 171.516,7.798L97.446,7.798C97.446,-20.785 97.446,-73.407 96.142,-89.006C95.504,-100.048 90.959,-101.998 85.758,-101.998C80.558,-101.998 76.655,-99.394 75.363,-89.654C74.058,-77.959 74.058,-61.713 74.058,-50.019C74.058,-11.039 75.363,-7.792 87.699,9.098L144.225,72.114C162.414,92.912 171.516,114.348 171.516,163.074C171.516,181.911 170.865,219.591 160.464,244.929C148.122,274.168 127.336,288.46 85.758,288.46C48.72,288.46 19.494,272.215 9.092,244.929C0,220.89 0,198.805 0,124.744" style="fill:white;"/>
            </g>
        </g>
        <g transform="matrix(4.166667,0,0,4.166667,0,0)">
            <g transform="matrix(1,0,0,1,746.3457,1310.1109)">
                <path d="M0,-441.773L74.071,-441.773L74.071,-241.675L97.446,-241.675L97.446,-441.773L171.516,-441.773L171.516,0L97.446,0L97.446,-179.299L74.071,-179.299L74.071,0L0,0L0,-441.773Z" style="fill:white;"/>
            </g>
        </g>
        <g transform="matrix(4.166667,0,0,4.166667,0,0)">
            <g transform="matrix(-1,0,0,1,1165.957,858.416)">
                <path d="M917.858,497.565L248.099,497.565L248.099,644.019L917.858,644.019L917.858,497.565ZM791.656,518.156L791.656,623.43L763.17,623.43L763.17,613.213L779.582,613.213L779.582,573.89L764.719,573.89L764.719,564.291L779.582,564.291L779.582,528.373L763.17,528.373L763.17,518.156L791.656,518.156ZM514.699,570.795C514.699,591.077 514.547,606.398 511.761,614.449C509.285,621.413 502.626,624.666 495.042,624.666C487.459,624.666 480.798,621.413 478.324,614.449C475.532,606.398 475.377,591.077 475.377,570.795C475.377,551.444 475.377,534.879 478.324,527.135C480.798,520.329 487.61,516.916 495.042,516.916C502.473,516.916 509.285,520.329 511.761,527.135C514.699,534.879 514.699,551.444 514.699,570.795ZM495.042,614.449C497.83,614.449 500.778,613.052 501.548,609.028C502.785,602.68 502.626,587.046 502.626,570.795C502.626,555.155 502.785,538.902 501.548,532.398C500.778,528.372 497.83,527.135 495.042,527.135C492.409,527.135 489.314,528.372 488.536,532.398C487.298,538.902 487.459,555.155 487.459,570.795C487.459,587.046 487.459,602.68 488.536,609.028C489.314,613.052 492.254,614.449 495.042,614.449ZM691.5,518.155L707.128,623.429L694.895,623.429L692.273,603.612L677.557,603.612L674.931,623.429L662.696,623.429L678.336,518.155L691.5,518.155ZM678.648,594.013L691.188,594.013L688.553,576.058C687.164,566.77 685.454,541.538 685.454,541.538L684.375,541.538C684.375,541.538 682.674,566.77 681.283,576.058L678.648,594.013ZM413.46,570.795C413.46,591.077 413.308,606.398 410.52,614.449C408.039,621.413 401.387,624.666 393.796,624.666C386.21,624.666 379.559,621.413 377.079,614.449C374.29,606.398 374.138,591.077 374.138,570.795C374.138,551.444 374.138,534.879 377.079,527.135C379.559,520.329 386.365,516.916 393.796,516.916C401.233,516.916 408.039,520.329 410.52,527.135C413.46,534.879 413.46,551.444 413.46,570.795ZM393.796,614.449C396.584,614.449 399.53,613.052 400.301,609.028C401.544,602.68 401.387,587.046 401.387,570.795C401.387,555.155 401.544,538.902 400.301,532.398C399.53,528.372 396.584,527.135 393.796,527.135C391.167,527.135 388.068,528.372 387.296,532.398C386.058,538.902 386.21,555.155 386.21,570.795C386.21,587.046 386.21,602.68 387.296,609.028C388.068,613.052 391.015,614.449 393.796,614.449ZM310.669,518.152L310.669,623.427L292.4,623.427C283.107,623.427 276.92,620.335 274.132,612.438C271.345,604.077 271.345,591.077 271.345,570.795C271.345,551.289 271.499,537.198 274.439,529.149C277.072,522.024 283.884,518.152 292.4,518.152L310.669,518.152ZM292.4,613.21L298.593,613.21L298.593,528.372L292.4,528.372C288.223,528.372 285.588,530.541 284.657,535.19C283.419,541.536 283.419,555.313 283.419,570.795C283.419,586.894 283.419,600.358 284.502,607.015C285.282,611.346 288.069,613.21 292.4,613.21ZM894.446,585.656C894.446,602.991 894.446,609.498 892.278,614.759C889.491,621.564 882.683,624.666 874.787,624.666C865.966,624.666 860.697,621.564 857.758,614.759C855.276,609.025 855.123,600.056 855.123,595.874C855.123,584.729 857.604,579.774 863.179,573.887L876.797,559.798C881.134,555.467 882.37,552.367 882.37,542.927C882.37,539.986 882.37,534.724 881.6,531.782C880.821,528.996 878.347,527.135 874.787,527.135C871.228,527.135 868.906,528.53 867.975,531.63C867.204,534.411 867.204,543.697 867.204,557.789L855.123,557.789C855.123,545.559 855.123,532.09 857.298,526.821C859.926,520.326 866.432,516.914 874.787,516.914C883.456,516.914 889.19,520.326 892.13,526.821C894.134,531.317 894.446,538.437 894.446,542.927C894.446,555.925 891.665,562.279 885.778,568.166L872.153,582.094C868.28,585.968 867.204,588.442 867.204,596.799C867.204,600.981 867.516,607.015 868.28,609.498C869.366,612.897 871.693,614.446 874.787,614.446C878.034,614.446 880.521,612.897 881.293,609.498C882.37,604.853 882.37,599.433 882.37,585.656L894.446,585.656ZM602.33,518.156L602.33,623.43L590.249,623.43L590.249,570.484L575.694,570.484L575.694,560.891L590.249,560.891L590.249,528.373L573.845,528.373L573.845,518.156L602.33,518.156Z" style="fill:white;"/>
            </g>
        </g>
    </g>
</svg>
